*
%LPD*%
%LNIN1*%
%FSLAX24Y24*%
%MOIN*%
%AD*%
%ADD10C,0.006*%
%ADD19C,0.01*%
%ADD64C,0.016*%
%ADD70O,0.041X0.063*%
%ADD71R,0.041X0.063*%
%ADD72C,0.059*%
%ADD73O,0.063X0.041*%
%ADD74R,0.063X0.041*%
%ADD75C,0.099*%
%ADD76C,0.172*%
%ADD77C,0.063*%
%ADD78C,0.028*%
G54D10*
%SRX1Y1I0.0J0.0*%
G1X9812Y7040D2*
G1X11320Y5532D1*
G1X9850Y7040D2*
G1X11320Y5570D1*
G1X9770Y7040D2*
G1X11320Y5490D1*
G1X8628Y6205D2*
G1X9462Y7040D1*
G1X8612Y6148D2*
G1X9505Y7040D1*
G1X9685Y7040D2*
G1X11320Y5405D1*
G1X9727Y7040D2*
G1X11320Y5447D1*
G1X9643Y7040D2*
G1X11320Y5363D1*
G1X9600Y7040D2*
G1X11320Y5320D1*
G1X9558Y7040D2*
G1X11320Y5278D1*
G1X8570Y6402D2*
G1X9208Y7040D1*
G1X8549Y6424D2*
G1X9165Y7040D1*
G1X8588Y6378D2*
G1X9250Y7040D1*
G1X8500Y6459D2*
G1X9080Y7040D1*
G1X8526Y6443D2*
G1X9123Y7040D1*
G1X8625Y6288D2*
G1X9377Y7040D1*
G1X8630Y6250D2*
G1X9420Y7040D1*
G1X8604Y6351D2*
G1X9292Y7040D1*
G1X8616Y6321D2*
G1X9335Y7040D1*
G1X9133Y7040D2*
G1X11320Y4853D1*
G1X9176Y7040D2*
G1X11320Y4896D1*
G1X9091Y7040D2*
G1X11320Y4811D1*
G1X9049Y7040D2*
G1X11320Y4769D1*
G1X9006Y7040D2*
G1X11320Y4726D1*
G1X8964Y7040D2*
G1X11320Y4684D1*
G1X8921Y7040D2*
G1X11320Y4641D1*
G1X8879Y7040D2*
G1X11320Y4599D1*
G1X8836Y7040D2*
G1X11320Y4556D1*
G1X9473Y7040D2*
G1X11320Y5193D1*
G1X9515Y7040D2*
G1X11320Y5235D1*
G1X9430Y7040D2*
G1X11320Y5150D1*
G1X9388Y7040D2*
G1X11320Y5108D1*
G1X9346Y7040D2*
G1X11320Y5066D1*
G1X9345Y7040D2*
G1X11320Y5065D1*
G1X9303Y7040D2*
G1X11320Y5023D1*
G1X9261Y7040D2*
G1X11320Y4981D1*
G1X9218Y7040D2*
G1X11320Y4938D1*
G1X8307Y6479D2*
G1X8868Y7040D1*
G1X7861Y7040D2*
G1X8413Y6488D1*
G1X7903Y7040D2*
G1X8470Y6473D1*
G1X7630Y6226D2*
G1X8444Y7040D1*
G1X7621Y6175D2*
G1X8486Y7040D1*
G1X8439Y6483D2*
G1X8995Y7040D1*
G1X8471Y6473D2*
G1X9038Y7040D1*
G1X8360Y6489D2*
G1X8911Y7040D1*
G1X8402Y6489D2*
G1X8953Y7040D1*
G1X7733Y7040D2*
G1X8297Y6476D1*
G1X7515Y6450D2*
G1X8104Y7040D1*
G1X7611Y6335D2*
G1X8317Y7040D1*
G1X7077Y6394D2*
G1X7723Y7040D1*
G1X7351Y7040D2*
G1X8131Y6261D1*
G1X7818Y7040D2*
G1X8368Y6490D1*
G1X7776Y7040D2*
G1X8331Y6485D1*
G1X7622Y6303D2*
G1X8359Y7040D1*
G1X7629Y6267D2*
G1X8401Y7040D1*
G1X8449Y5858D2*
G1X9632Y7040D1*
G1X8444Y5895D2*
G1X9589Y7040D1*
G1X8449Y5814D2*
G1X9674Y7040D1*
G1X8434Y5927D2*
G1X9547Y7040D1*
G1X6546Y4761D2*
G1X8826Y7040D1*
G1X8437Y5760D2*
G1X9717Y7040D1*
G1X7910Y5191D2*
G1X9759Y7040D1*
G1X7906Y5144D2*
G1X9802Y7040D1*
G1X7885Y5081D2*
G1X9844Y7040D1*
G1X7583Y6095D2*
G1X8529Y7040D1*
G1X7267Y7040D2*
G1X8141Y6165D1*
G1X7139Y7040D2*
G1X8107Y6072D1*
G1X7097Y7040D2*
G1X8078Y6058D1*
G1X6312Y4739D2*
G1X8614Y7040D1*
G1X6479Y4778D2*
G1X8741Y7040D1*
G1X6515Y4771D2*
G1X8783Y7040D1*
G1X6438Y4780D2*
G1X8698Y7040D1*
G1X6388Y4772D2*
G1X8656Y7040D1*
G1X7691Y7040D2*
G1X8268Y6463D1*
G1X7648Y7040D2*
G1X8241Y6448D1*
G1X7606Y7040D2*
G1X8217Y6429D1*
G1X7581Y6389D2*
G1X8232Y7040D1*
G1X7597Y6363D2*
G1X8274Y7040D1*
G1X8421Y5957D2*
G1X8472Y6008D1*
G1X7622Y6303D2*
G1X7975Y5950D1*
G1X7630Y6253D2*
G1X7963Y5919D1*
G1X7628Y6212D2*
G1X7954Y5886D1*
G1X7564Y7040D2*
G1X8195Y6408D1*
G1X7587Y6380D2*
G1X7991Y5977D1*
G1X8116Y6075D2*
G1X8161Y6120D1*
G1X7622Y6176D2*
G1X7950Y5847D1*
G1X7611Y6144D2*
G1X7953Y5802D1*
G1X7597Y6116D2*
G1X7970Y5743D1*
G1X9455Y4530D2*
G1X10908Y5983D1*
G1X9116Y4530D2*
G1X10738Y6152D1*
G1X8361Y5649D2*
G1X9482Y4528D1*
G1X8337Y5631D2*
G1X9438Y4530D1*
G1X7580Y6090D2*
G1X9142Y4528D1*
G1X7899Y5264D2*
G1X8226Y5591D1*
G1X7907Y5230D2*
G1X8280Y5603D1*
G1X7872Y5323D2*
G1X8145Y5596D1*
G1X7887Y5295D2*
G1X8182Y5591D1*
G1X7726Y5431D2*
G1X7994Y5699D1*
G1X7691Y5438D2*
G1X7978Y5725D1*
G1X7757Y5420D2*
G1X8012Y5675D1*
G1X7650Y5440D2*
G1X7965Y5755D1*
G1X7600Y5433D2*
G1X7955Y5788D1*
G1X7834Y5369D2*
G1X8083Y5619D1*
G1X7854Y5347D2*
G1X8113Y5606D1*
G1X7786Y5406D2*
G1X8033Y5654D1*
G1X7811Y5389D2*
G1X8057Y5635D1*
G1X7539Y6433D2*
G1X8147Y7040D1*
G1X7488Y6466D2*
G1X8062Y7040D1*
G1X7436Y7040D2*
G1X8147Y6330D1*
G1X7394Y7040D2*
G1X8137Y6297D1*
G1X7309Y7040D2*
G1X8131Y6218D1*
G1X7561Y6412D2*
G1X8189Y7040D1*
G1X7521Y7040D2*
G1X8176Y6385D1*
G1X7479Y7040D2*
G1X8160Y6359D1*
G1X7224Y7040D2*
G1X8175Y6089D1*
G1X7278Y6468D2*
G1X7850Y7040D1*
G1X7094Y6369D2*
G1X7765Y7040D1*
G1X7109Y6341D2*
G1X7808Y7040D1*
G1X7034Y6437D2*
G1X7638Y7040D1*
G1X7057Y6417D2*
G1X7680Y7040D1*
G1X7423Y6486D2*
G1X7977Y7040D1*
G1X7457Y6478D2*
G1X8020Y7040D1*
G1X7385Y6490D2*
G1X7935Y7040D1*
G1X7339Y6487D2*
G1X7892Y7040D1*
G1X7182Y7040D2*
G1X8139Y6083D1*
G1X7054Y7040D2*
G1X8053Y6042D1*
G1X7012Y7040D2*
G1X8029Y6023D1*
G1X6575Y4747D2*
G1X8141Y6313D1*
G1X6600Y4730D2*
G1X8131Y6260D1*
G1X6661Y4663D2*
G1X8147Y6149D1*
G1X7561Y6067D2*
G1X9098Y4530D1*
G1X6623Y4710D2*
G1X8131Y6218D1*
G1X6644Y4688D2*
G1X8137Y6181D1*
G1X7076Y6085D2*
G1X7732Y5430D1*
G1X7056Y6063D2*
G1X7679Y5439D1*
G1X7094Y6110D2*
G1X7835Y5368D1*
G1X6970Y7040D2*
G1X8009Y6001D1*
G1X7034Y6043D2*
G1X7637Y5439D1*
G1X7527Y5401D2*
G1X7950Y5825D1*
G1X6676Y4636D2*
G1X7965Y5924D1*
G1X6688Y4606D2*
G1X7952Y5869D1*
G1X6876Y6490D2*
G1X7426Y7040D1*
G1X6842Y7040D2*
G1X7393Y6490D1*
G1X6828Y6484D2*
G1X7383Y7040D1*
G1X6800Y7040D2*
G1X7352Y6488D1*
G1X6760Y6460D2*
G1X7341Y7040D1*
G1X6981Y6468D2*
G1X7553Y7040D1*
G1X6950Y6480D2*
G1X7511Y7040D1*
G1X7009Y6454D2*
G1X7595Y7040D1*
G1X6916Y6487D2*
G1X7468Y7040D1*
G1X6885Y7040D2*
G1X7443Y6482D1*
G1X6333Y7040D2*
G1X6883Y6490D1*
G1X6291Y7040D2*
G1X6843Y6487D1*
G1X6376Y7040D2*
G1X6931Y6485D1*
G1X6248Y7040D2*
G1X6809Y6480D1*
G1X6206Y7040D2*
G1X6778Y6468D1*
G1X6757Y7040D2*
G1X7316Y6482D1*
G1X6715Y7040D2*
G1X7284Y6471D1*
G1X6418Y7040D2*
G1X6997Y6461D1*
G1X6673Y7040D2*
G1X7256Y6457D1*
G1X6503Y7040D2*
G1X7169Y6374D1*
G1X6461Y7040D2*
G1X7154Y6347D1*
G1X6130Y6253D2*
G1X6917Y7040D1*
G1X6128Y6209D2*
G1X6959Y7040D1*
G1X6114Y6153D2*
G1X7001Y7040D1*
G1X6927Y7040D2*
G1X7520Y6447D1*
G1X6630Y7040D2*
G1X7230Y6440D1*
G1X6588Y7040D2*
G1X7207Y6421D1*
G1X6545Y7040D2*
G1X7187Y6399D1*
G1X6121Y7040D2*
G1X6725Y6436D1*
G1X6079Y7040D2*
G1X6703Y6416D1*
G1X6087Y6380D2*
G1X6747Y7040D1*
G1X6048Y6426D2*
G1X6662Y7040D1*
G1X6069Y6404D2*
G1X6704Y7040D1*
G1X6164Y7040D2*
G1X6750Y6454D1*
G1X6125Y6291D2*
G1X6874Y7040D1*
G1X6103Y6353D2*
G1X6789Y7040D1*
G1X6116Y6324D2*
G1X6832Y7040D1*
G1X5998Y6461D2*
G1X6577Y7040D1*
G1X5969Y6474D2*
G1X6535Y7040D1*
G1X6024Y6444D2*
G1X6620Y7040D1*
G1X5400Y7040D2*
G1X5965Y6475D1*
G1X5867Y7040D2*
G1X6632Y6274D1*
G1X6036Y7040D2*
G1X6683Y6394D1*
G1X5994Y7040D2*
G1X6665Y6368D1*
G1X5951Y7040D2*
G1X6651Y6340D1*
G1X5909Y7040D2*
G1X6640Y6309D1*
G1X5273Y7040D2*
G1X5828Y6485D1*
G1X5230Y7040D2*
G1X5795Y6475D1*
G1X5188Y7040D2*
G1X5765Y6462D1*
G1X5145Y7040D2*
G1X5739Y6446D1*
G1X5103Y7040D2*
G1X5715Y6428D1*
G1X5315Y7040D2*
G1X5865Y6490D1*
G1X5357Y7040D2*
G1X5909Y6488D1*
G1X5150Y6249D2*
G1X5941Y7040D1*
G1X5107Y6249D2*
G1X5898Y7040D1*
G1X5782Y7040D2*
G1X6636Y6186D1*
G1X5824Y7040D2*
G1X6630Y6234D1*
G1X5570Y7040D2*
G1X6632Y5978D1*
G1X5527Y7040D2*
G1X6616Y5951D1*
G1X5485Y7040D2*
G1X6604Y5921D1*
G1X5739Y7040D2*
G1X6662Y6117D1*
G1X5697Y7040D2*
G1X6694Y6043D1*
G1X5654Y7040D2*
G1X6671Y6024D1*
G1X5612Y7040D2*
G1X6650Y6002D1*
G1X5248Y6220D2*
G1X6068Y7040D1*
G1X5219Y6234D2*
G1X6026Y7040D1*
G1X5274Y6204D2*
G1X6110Y7040D1*
G1X5187Y6243D2*
G1X5983Y7040D1*
G1X5054Y6238D2*
G1X5856Y7040D1*
G1X5337Y6140D2*
G1X6238Y7040D1*
G1X5442Y7040D2*
G1X6595Y5888D1*
G1X5298Y6185D2*
G1X6153Y7040D1*
G1X5319Y6164D2*
G1X6195Y7040D1*
G1X7062Y5955D2*
G1X7187Y6081D1*
G1X7027Y6005D2*
G1X7154Y6132D1*
G1X7046Y5982D2*
G1X7170Y6105D1*
G1X7090Y5855D2*
G1X7257Y6023D1*
G1X7088Y5812D2*
G1X7285Y6009D1*
G1X7075Y5926D2*
G1X7208Y6059D1*
G1X7084Y5893D2*
G1X7231Y6039D1*
G1X7120Y6310D2*
G1X7152Y6342D1*
G1X7101Y6357D2*
G1X7142Y6316D1*
G1X6115Y6325D2*
G1X6590Y5850D1*
G1X6128Y6269D2*
G1X6592Y5805D1*
G1X7120Y6169D2*
G1X7153Y6136D1*
G1X7099Y6119D2*
G1X7142Y6163D1*
G1X7089Y5860D2*
G1X7540Y5409D1*
G1X7089Y5818D2*
G1X7514Y5393D1*
G1X7083Y5781D2*
G1X7490Y5374D1*
G1X7008Y6025D2*
G1X7601Y5433D1*
G1X7079Y5912D2*
G1X7569Y5423D1*
G1X7073Y5749D2*
G1X7470Y5352D1*
G1X7059Y5720D2*
G1X7451Y5328D1*
G1X7043Y5694D2*
G1X7436Y5301D1*
G1X6697Y4571D2*
G1X7449Y5323D1*
G1X7024Y5671D2*
G1X7423Y5271D1*
G1X7076Y5757D2*
G1X7317Y5998D1*
G1X7002Y5650D2*
G1X7415Y5237D1*
G1X6130Y6225D2*
G1X6608Y5747D1*
G1X6978Y5632D2*
G1X7410Y5199D1*
G1X6951Y5616D2*
G1X7413Y5155D1*
G1X6921Y5604D2*
G1X7428Y5097D1*
G1X6700Y4532D2*
G1X7417Y5250D1*
G1X5899Y6489D2*
G1X6450Y7040D1*
G1X5856Y6489D2*
G1X6407Y7040D1*
G1X5936Y6484D2*
G1X6492Y7040D1*
G1X5803Y6478D2*
G1X6365Y7040D1*
G1X5366Y6083D2*
G1X6323Y7040D1*
G1X5353Y6113D2*
G1X6280Y7040D1*
G1X5060Y7040D2*
G1X5694Y6407D1*
G1X5268Y5689D2*
G1X5676Y6096D1*
G1X5375Y6050D2*
G1X5642Y6317D1*
G1X5380Y6012D2*
G1X5631Y6264D1*
G1X5378Y5968D2*
G1X5631Y6221D1*
G1X5018Y7040D2*
G1X5675Y6383D1*
G1X4976Y7040D2*
G1X5659Y6357D1*
G1X5364Y5911D2*
G1X5636Y6184D1*
G1X5262Y5724D2*
G1X5659Y6122D1*
G1X5251Y5756D2*
G1X5646Y6151D1*
G1X5357Y5895D2*
G1X6473Y4779D1*
G1X5342Y5868D2*
G1X6430Y4779D1*
G1X5369Y5926D2*
G1X6526Y4768D1*
G1X5324Y5843D2*
G1X6394Y4774D1*
G1X5304Y5821D2*
G1X6361Y4764D1*
G1X5281Y5801D2*
G1X6332Y4750D1*
G1X5269Y5686D2*
G1X6261Y4694D1*
G1X5256Y5784D2*
G1X6306Y4734D1*
G1X5257Y5741D2*
G1X6282Y4715D1*
G1X5262Y5598D2*
G1X5716Y6051D1*
G1X5270Y5648D2*
G1X5694Y6072D1*
G1X5269Y5643D2*
G1X6243Y4670D1*
G1X5228Y5521D2*
G1X5740Y6033D1*
G1X5264Y5606D2*
G1X6227Y4643D1*
G1X5254Y5573D2*
G1X6214Y4613D1*
G1X5241Y5544D2*
G1X6205Y4580D1*
G1X5225Y5517D2*
G1X6200Y4543D1*
G1X8667Y7040D2*
G1X11320Y4387D1*
G1X8794Y7040D2*
G1X11320Y4514D1*
G1X8624Y7040D2*
G1X11320Y4344D1*
G1X8582Y7040D2*
G1X11320Y4302D1*
G1X8539Y7040D2*
G1X11320Y4259D1*
G1X8752Y7040D2*
G1X11320Y4472D1*
G1X9218Y4505D2*
G1X10802Y6089D1*
G1X8709Y7040D2*
G1X11320Y4429D1*
G1X8497Y7040D2*
G1X11320Y4217D1*
G1X8455Y7040D2*
G1X11320Y4175D1*
G1X9010Y4509D2*
G1X10696Y6195D1*
G1X8630Y6228D2*
G1X10688Y4170D1*
G1X8629Y4170D2*
G1X10674Y6216D1*
G1X8613Y6330D2*
G1X10773Y4170D1*
G1X8625Y6191D2*
G1X10646Y4170D1*
G1X9154Y4526D2*
G1X10759Y6131D1*
G1X9188Y4517D2*
G1X10780Y6110D1*
G1X9070Y4527D2*
G1X10717Y6173D1*
G1X8616Y6157D2*
G1X10603Y4170D1*
G1X8370Y7040D2*
G1X11240Y4170D1*
G1X8327Y7040D2*
G1X11197Y4170D1*
G1X8412Y7040D2*
G1X11282Y4170D1*
G1X8242Y7040D2*
G1X11112Y4170D1*
G1X8285Y7040D2*
G1X11155Y4170D1*
G1X8586Y4170D2*
G1X10653Y6237D1*
G1X8628Y6273D2*
G1X10731Y4170D1*
G1X8501Y4170D2*
G1X10611Y6279D1*
G1X8544Y4170D2*
G1X10632Y6258D1*
G1X8374Y4170D2*
G1X10547Y6343D1*
G1X8332Y4170D2*
G1X10526Y6364D1*
G1X8416Y4170D2*
G1X10568Y6322D1*
G1X8247Y4170D2*
G1X10484Y6407D1*
G1X8289Y4170D2*
G1X10505Y6386D1*
G1X8588Y6101D2*
G1X10518Y4170D1*
G1X8603Y6128D2*
G1X10561Y4170D1*
G1X8459Y4170D2*
G1X10590Y6301D1*
G1X8569Y6077D2*
G1X10476Y4170D1*
G1X7526Y4170D2*
G1X10123Y6767D1*
G1X7483Y4170D2*
G1X10102Y6789D1*
G1X7568Y4170D2*
G1X10144Y6746D1*
G1X7398Y4170D2*
G1X10059Y6831D1*
G1X7441Y4170D2*
G1X10080Y6810D1*
G1X7695Y4170D2*
G1X10208Y6683D1*
G1X7738Y4170D2*
G1X10229Y6661D1*
G1X7610Y4170D2*
G1X10165Y6725D1*
G1X7653Y4170D2*
G1X10187Y6704D1*
G1X7144Y4170D2*
G1X9932Y6958D1*
G1X7101Y4170D2*
G1X9911Y6980D1*
G1X7186Y4170D2*
G1X9953Y6937D1*
G1X7016Y4170D2*
G1X9868Y7022D1*
G1X7059Y4170D2*
G1X9890Y7001D1*
G1X7313Y4170D2*
G1X10017Y6873D1*
G1X7356Y4170D2*
G1X10038Y6852D1*
G1X7229Y4170D2*
G1X9974Y6916D1*
G1X7271Y4170D2*
G1X9996Y6895D1*
G1X8158Y7040D2*
G1X11028Y4170D1*
G1X8115Y7040D2*
G1X10985Y4170D1*
G1X8200Y7040D2*
G1X11070Y4170D1*
G1X8030Y7040D2*
G1X10900Y4170D1*
G1X8073Y7040D2*
G1X10943Y4170D1*
G1X8162Y4170D2*
G1X10441Y6449D1*
G1X8204Y4170D2*
G1X10462Y6428D1*
G1X7945Y7040D2*
G1X10815Y4170D1*
G1X7988Y7040D2*
G1X10858Y4170D1*
G1X7907Y4170D2*
G1X10314Y6576D1*
G1X7865Y4170D2*
G1X10293Y6598D1*
G1X7950Y4170D2*
G1X10335Y6555D1*
G1X7780Y4170D2*
G1X10250Y6640D1*
G1X7822Y4170D2*
G1X10271Y6619D1*
G1X8077Y4170D2*
G1X10399Y6492D1*
G1X8119Y4170D2*
G1X10420Y6470D1*
G1X7992Y4170D2*
G1X10356Y6534D1*
G1X8035Y4170D2*
G1X10377Y6513D1*
G1X10326Y4170D2*
G1X11320Y5164D1*
G1X10283Y4170D2*
G1X11320Y5207D1*
G1X10368Y4170D2*
G1X11320Y5122D1*
G1X10198Y4170D2*
G1X11320Y5292D1*
G1X10241Y4170D2*
G1X11320Y5249D1*
G1X10495Y4170D2*
G1X11320Y4995D1*
G1X10538Y4170D2*
G1X11320Y4952D1*
G1X10410Y4170D2*
G1X11320Y5080D1*
G1X10453Y4170D2*
G1X11320Y5037D1*
G1X9944Y4170D2*
G1X11320Y5546D1*
G1X9901Y4170D2*
G1X11311Y5579D1*
G1X9986Y4170D2*
G1X11320Y5504D1*
G1X9817Y4170D2*
G1X11268Y5622D1*
G1X9859Y4170D2*
G1X11290Y5601D1*
G1X10113Y4170D2*
G1X11320Y5377D1*
G1X10156Y4170D2*
G1X11320Y5334D1*
G1X10029Y4170D2*
G1X11320Y5461D1*
G1X10071Y4170D2*
G1X11320Y5419D1*
G1X11089Y4170D2*
G1X11320Y4401D1*
G1X11047Y4170D2*
G1X11320Y4443D1*
G1X11320Y4170D2*
G1X11320Y5570D1*
G1X10962Y4170D2*
G1X11320Y4528D1*
G1X11004Y4170D2*
G1X11320Y4486D1*
G1X11217Y4170D2*
G1X11320Y4273D1*
G1X11259Y4170D2*
G1X11320Y4231D1*
G1X11132Y4170D2*
G1X11320Y4358D1*
G1X11174Y4170D2*
G1X11320Y4316D1*
G1X10707Y4170D2*
G1X11320Y4783D1*
G1X10665Y4170D2*
G1X11320Y4825D1*
G1X10750Y4170D2*
G1X11320Y4740D1*
G1X10580Y4170D2*
G1X11320Y4910D1*
G1X10623Y4170D2*
G1X11320Y4867D1*
G1X10877Y4170D2*
G1X11320Y4613D1*
G1X10920Y4170D2*
G1X11320Y4570D1*
G1X10792Y4170D2*
G1X11320Y4698D1*
G1X10835Y4170D2*
G1X11320Y4655D1*
G1X9682Y4374D2*
G1X11099Y5792D1*
G1X9668Y4403D2*
G1X11077Y5813D1*
G1X9692Y4343D2*
G1X11120Y5770D1*
G1X9632Y4452D2*
G1X11035Y5855D1*
G1X9651Y4429D2*
G1X11056Y5834D1*
G1X9700Y4265D2*
G1X11162Y5728D1*
G1X9732Y4170D2*
G1X11226Y5664D1*
G1X9699Y4307D2*
G1X11141Y5749D1*
G1X9691Y4214D2*
G1X11184Y5707D1*
G1X9494Y4526D2*
G1X10929Y5961D1*
G1X9410Y4527D2*
G1X10887Y6004D1*
G1X9349Y4509D2*
G1X10865Y6025D1*
G1X9246Y4490D2*
G1X10823Y6067D1*
G1X9270Y4472D2*
G1X10844Y6046D1*
G1X9585Y4490D2*
G1X10993Y5898D1*
G1X9610Y4472D2*
G1X11014Y5876D1*
G1X9528Y4518D2*
G1X10950Y5940D1*
G1X9558Y4505D2*
G1X10971Y5919D1*
G1X8525Y6036D2*
G1X10391Y4170D1*
G1X8499Y6020D2*
G1X10349Y4170D1*
G1X8548Y6055D2*
G1X10434Y4170D1*
G1X8437Y5997D2*
G1X10264Y4170D1*
G1X8470Y6007D2*
G1X10306Y4170D1*
G1X9689Y4170D2*
G1X11205Y5686D1*
G1X9774Y4170D2*
G1X11247Y5643D1*
G1X8401Y5991D2*
G1X10221Y4170D1*
G1X9674Y4170D2*
G1X11320Y4170D1*
G1X8449Y5815D2*
G1X10094Y4170D1*
G1X8443Y5779D2*
G1X10052Y4170D1*
G1X8449Y5857D2*
G1X10137Y4170D1*
G1X8432Y5747D2*
G1X10009Y4170D1*
G1X8440Y5909D2*
G1X10179Y4170D1*
G1X9684Y4368D2*
G1X9882Y4170D1*
G1X9698Y4312D2*
G1X9840Y4170D1*
G1X8402Y5693D2*
G1X9924Y4170D1*
G1X8418Y5718D2*
G1X9967Y4170D1*
G1X8310Y5615D2*
G1X9400Y4525D1*
G1X7539Y6047D2*
G1X9060Y4525D1*
G1X8383Y5669D2*
G1X9538Y4514D1*
G1X7514Y6029D2*
G1X9027Y4516D1*
G1X7487Y6014D2*
G1X8997Y4503D1*
G1X8279Y5603D2*
G1X9367Y4516D1*
G1X8246Y5594D2*
G1X9337Y4503D1*
G1X8207Y5590D2*
G1X9310Y4487D1*
G1X8103Y5610D2*
G1X9199Y4514D1*
G1X8162Y5593D2*
G1X9286Y4469D1*
G1X7456Y6002D2*
G1X8971Y4488D1*
G1X7422Y5994D2*
G1X8947Y4469D1*
G1X7337Y5994D2*
G1X8906Y4425D1*
G1X7276Y6013D2*
G1X8890Y4399D1*
G1X7108Y6138D2*
G1X8877Y4369D1*
G1X7383Y5990D2*
G1X8925Y4448D1*
G1X7838Y5365D2*
G1X8867Y4337D1*
G1X6696Y4486D2*
G1X7410Y5200D1*
G1X6676Y4424D2*
G1X7412Y5159D1*
G1X6805Y5592D2*
G1X8227Y4170D1*
G1X6747Y5608D2*
G1X8185Y4170D1*
G1X6888Y5595D2*
G1X8312Y4170D1*
G1X6115Y6155D2*
G1X8100Y4170D1*
G1X6125Y6188D2*
G1X8143Y4170D1*
G1X7909Y5209D2*
G1X8861Y4258D1*
G1X7909Y5167D2*
G1X8872Y4205D1*
G1X7900Y5262D2*
G1X8861Y4300D1*
G1X6850Y5590D2*
G1X8270Y4170D1*
G1X6086Y6099D2*
G1X8015Y4170D1*
G1X6068Y6075D2*
G1X7973Y4170D1*
G1X6102Y6126D2*
G1X8058Y4170D1*
G1X6023Y6035D2*
G1X7888Y4170D1*
G1X6047Y6054D2*
G1X7930Y4170D1*
G1X5967Y6006D2*
G1X7803Y4170D1*
G1X5997Y6019D2*
G1X7846Y4170D1*
G1X5898Y5991D2*
G1X7718Y4170D1*
G1X5935Y5996D2*
G1X7761Y4170D1*
G1X5701Y4170D2*
G1X8571Y7040D1*
G1X5380Y5999D2*
G1X7209Y4170D1*
G1X5801Y6003D2*
G1X7633Y4170D1*
G1X5172Y4192D2*
G1X6653Y5674D1*
G1X5377Y5960D2*
G1X7167Y4170D1*
G1X5447Y4170D2*
G1X6868Y5592D1*
G1X5489Y4170D2*
G1X6923Y5604D1*
G1X5197Y4175D2*
G1X6675Y5653D1*
G1X5404Y4170D2*
G1X6825Y5590D1*
G1X5058Y4248D2*
G1X6596Y5786D1*
G1X5026Y4259D2*
G1X6591Y5823D1*
G1X5088Y4236D2*
G1X6606Y5753D1*
G1X4958Y4275D2*
G1X6603Y5921D1*
G1X4993Y4268D2*
G1X6591Y5866D1*
G1X5207Y5494D2*
G1X6202Y4498D1*
G1X5185Y5473D2*
G1X6216Y4442D1*
G1X5117Y4223D2*
G1X6619Y5724D1*
G1X5145Y4208D2*
G1X6635Y5697D1*
G1X5616Y4170D2*
G1X7445Y5999D1*
G1X5531Y4170D2*
G1X7353Y5991D1*
G1X5659Y4170D2*
G1X7525Y6037D1*
G1X5355Y6109D2*
G1X7294Y4170D1*
G1X5376Y6046D2*
G1X7252Y4170D1*
G1X5574Y4170D2*
G1X7394Y5990D1*
G1X5855Y5991D2*
G1X7676Y4170D1*
G1X5319Y4170D2*
G1X6754Y5605D1*
G1X5362Y4170D2*
G1X6787Y5596D1*
G1X5235Y4170D2*
G1X6698Y5634D1*
G1X5162Y5454D2*
G1X6446Y4170D1*
G1X5277Y4170D2*
G1X6725Y5618D1*
G1X5106Y5425D2*
G1X6361Y4170D1*
G1X5135Y5438D2*
G1X6403Y4170D1*
G1X5035Y5410D2*
G1X6276Y4170D1*
G1X5073Y5416D2*
G1X6318Y4170D1*
G1X4937Y5424D2*
G1X6191Y4170D1*
G1X4992Y5412D2*
G1X6233Y4170D1*
G1X9700Y4268D2*
G1X9797Y4170D1*
G1X8671Y4170D2*
G1X8881Y4380D1*
G1X9686Y4197D2*
G1X9712Y4170D1*
G1X9695Y4230D2*
G1X9755Y4170D1*
G1X8798Y4170D2*
G1X8864Y4236D1*
G1X8841Y4170D2*
G1X8873Y4202D1*
G1X7893Y5099D2*
G1X8821Y4170D1*
G1X7879Y5070D2*
G1X8779Y4170D1*
G1X7903Y5131D2*
G1X8864Y4170D1*
G1X7844Y5020D2*
G1X8694Y4170D1*
G1X7863Y5044D2*
G1X8737Y4170D1*
G1X8713Y4170D2*
G1X8863Y4320D1*
G1X8756Y4170D2*
G1X8860Y4274D1*
G1X7798Y4981D2*
G1X8609Y4170D1*
G1X7822Y5000D2*
G1X8652Y4170D1*
G1X7741Y4953D2*
G1X8524Y4170D1*
G1X7707Y4945D2*
G1X8482Y4170D1*
G1X7771Y4966D2*
G1X8567Y4170D1*
G1X6974Y4170D2*
G1X7769Y4965D1*
G1X7567Y4958D2*
G1X8355Y4170D1*
G1X7625Y4943D2*
G1X8397Y4170D1*
G1X7669Y4940D2*
G1X8440Y4170D1*
G1X6889Y4170D2*
G1X7659Y4940D1*
G1X6932Y4170D2*
G1X7706Y4944D1*
G1X6804Y4170D2*
G1X7586Y4951D1*
G1X6762Y4170D2*
G1X7555Y4963D1*
G1X6847Y4170D2*
G1X7620Y4943D1*
G1X6688Y4606D2*
G1X7124Y4170D1*
G1X6719Y4170D2*
G1X7527Y4978D1*
G1X6699Y4553D2*
G1X7082Y4170D1*
G1X6699Y4510D2*
G1X7040Y4170D1*
G1X6684Y4441D2*
G1X6955Y4170D1*
G1X6694Y4474D2*
G1X6997Y4170D1*
G1X6592Y4170D2*
G1X7461Y5039D1*
G1X6550Y4170D2*
G1X7444Y5064D1*
G1X6635Y4170D2*
G1X7481Y5016D1*
G1X6465Y4170D2*
G1X7419Y5124D1*
G1X6507Y4170D2*
G1X7430Y5093D1*
G1X6670Y4412D2*
G1X6912Y4170D1*
G1X6677Y4170D2*
G1X7503Y4996D1*
G1X6635Y4362D2*
G1X6827Y4170D1*
G1X6654Y4386D2*
G1X6870Y4170D1*
G1X6590Y4323D2*
G1X6743Y4170D1*
G1X6563Y4307D2*
G1X6700Y4170D1*
G1X6614Y4341D2*
G1X6785Y4170D1*
G1X6422Y4170D2*
G1X6556Y4304D1*
G1X6500Y4285D2*
G1X6615Y4170D1*
G1X6533Y4294D2*
G1X6658Y4170D1*
G1X6418Y4282D2*
G1X6530Y4170D1*
G1X6463Y4280D2*
G1X6573Y4170D1*
G1X6253Y4170D2*
G1X6374Y4292D1*
G1X6210Y4170D2*
G1X6344Y4304D1*
G1X6362Y4296D2*
G1X6488Y4170D1*
G1X6125Y4170D2*
G1X6292Y4336D1*
G1X6168Y4170D2*
G1X6317Y4319D1*
G1X6338Y4170D2*
G1X6448Y4280D1*
G1X6380Y4170D2*
G1X6494Y4284D1*
G1X5205Y4170D2*
G1X8885Y4170D1*
G1X6295Y4170D2*
G1X6409Y4283D1*
G1X5871Y4170D2*
G1X6202Y4501D1*
G1X5828Y4170D2*
G1X6200Y4542D1*
G1X5913Y4170D2*
G1X6209Y4465D1*
G1X5744Y4170D2*
G1X6241Y4668D1*
G1X5786Y4170D2*
G1X6208Y4592D1*
G1X6041Y4170D2*
G1X6250Y4380D1*
G1X6083Y4170D2*
G1X6270Y4357D1*
G1X5956Y4170D2*
G1X6219Y4434D1*
G1X5998Y4170D2*
G1X6233Y4405D1*
G1X4437Y6979D2*
G1X4498Y7040D1*
G1X4425Y7009D2*
G1X4456Y7040D1*
G1X4446Y6945D2*
G1X4541Y7040D1*
G1X4447Y6861D2*
G1X4626Y7040D1*
G1X4450Y6907D2*
G1X4583Y7040D1*
G1X4430Y6802D2*
G1X4668Y7040D1*
G1X4407Y7040D2*
G1X9850Y7040D1*
G1X4190Y6520D2*
G1X4710Y7040D1*
G1X3915Y7040D2*
G1X3966Y6989D1*
G1X3873Y7040D2*
G1X3956Y6956D1*
G1X3830Y7040D2*
G1X3951Y6919D1*
G1X3788Y7040D2*
G1X3951Y6877D1*
G1X3745Y7040D2*
G1X3962Y6823D1*
G1X3957Y7040D2*
G1X3980Y7018D1*
G1X3660Y7040D2*
G1X4177Y6523D1*
G1X3618Y7040D2*
G1X4128Y6530D1*
G1X3576Y7040D2*
G1X4088Y6528D1*
G1X4848Y7040D2*
G1X5631Y6258D1*
G1X4370Y6275D2*
G1X5135Y7040D1*
G1X4424Y7040D2*
G1X5239Y6225D1*
G1X4368Y6315D2*
G1X5092Y7040D1*
G1X4339Y6160D2*
G1X5220Y7040D1*
G1X4933Y7040D2*
G1X5646Y6327D1*
G1X4891Y7040D2*
G1X5636Y6295D1*
G1X4806Y7040D2*
G1X5631Y6215D1*
G1X4763Y7040D2*
G1X5643Y6161D1*
G1X4274Y6477D2*
G1X4838Y7040D1*
G1X4249Y6494D2*
G1X4795Y7040D1*
G1X4297Y6457D2*
G1X4880Y7040D1*
G1X4221Y6509D2*
G1X4753Y7040D1*
G1X3703Y7040D2*
G1X4248Y6495D1*
G1X4349Y6381D2*
G1X5007Y7040D1*
G1X4360Y6350D2*
G1X5050Y7040D1*
G1X4317Y6434D2*
G1X4923Y7040D1*
G1X4334Y6409D2*
G1X4965Y7040D1*
G1X3485Y6578D2*
G1X3947Y7040D1*
G1X3463Y6599D2*
G1X3904Y7040D1*
G1X3504Y6555D2*
G1X3989Y7040D1*
G1X2939Y7040D2*
G1X3320Y6659D1*
G1X3211Y6644D2*
G1X3607Y7040D1*
G1X3533Y7040D2*
G1X4052Y6521D1*
G1X3491Y7040D2*
G1X4021Y6510D1*
G1X1053Y7040D2*
G1X3993Y7040D1*
G1X3448Y7040D2*
G1X3993Y6495D1*
G1X2727Y7040D2*
G1X3154Y6613D1*
G1X2685Y7040D2*
G1X3131Y6594D1*
G1X2642Y7040D2*
G1X3110Y6572D1*
G1X2600Y7040D2*
G1X3092Y6548D1*
G1X2557Y7040D2*
G1X3076Y6521D1*
G1X2897Y7040D2*
G1X3278Y6659D1*
G1X2854Y7040D2*
G1X3241Y6653D1*
G1X2812Y7040D2*
G1X3209Y6643D1*
G1X2769Y7040D2*
G1X3180Y6629D1*
G1X3236Y7040D2*
G1X3892Y6384D1*
G1X3194Y7040D2*
G1X3881Y6353D1*
G1X3151Y7040D2*
G1X3873Y6318D1*
G1X3066Y7040D2*
G1X3875Y6232D1*
G1X3024Y7040D2*
G1X3897Y6167D1*
G1X3406Y7040D2*
G1X3968Y6478D1*
G1X3363Y7040D2*
G1X3945Y6458D1*
G1X3321Y7040D2*
G1X3925Y6436D1*
G1X3279Y7040D2*
G1X3907Y6411D1*
G1X1740Y5597D2*
G1X3183Y7040D1*
G1X2345Y7040D2*
G1X3068Y6317D1*
G1X1764Y5579D2*
G1X3226Y7040D1*
G1X1684Y5626D2*
G1X3098Y7040D1*
G1X1713Y5613D2*
G1X3141Y7040D1*
G1X1907Y5636D2*
G1X3310Y7040D1*
G1X2108Y5583D2*
G1X3565Y7040D1*
G1X1907Y5636D2*
G1X3310Y7040D1*
G1X1845Y5617D2*
G1X3268Y7040D1*
G1X4448Y6931D2*
G1X5129Y6250D1*
G1X4450Y6887D2*
G1X5090Y6247D1*
G1X4445Y6850D2*
G1X5056Y6239D1*
G1X4434Y6987D2*
G1X5176Y6246D1*
G1X4364Y6227D2*
G1X5177Y7040D1*
G1X4436Y6816D2*
G1X5025Y6227D1*
G1X4423Y6787D2*
G1X4998Y6212D1*
G1X4407Y6760D2*
G1X4973Y6194D1*
G1X4389Y6736D2*
G1X4951Y6174D1*
G1X4368Y6715D2*
G1X4931Y6151D1*
G1X4344Y6696D2*
G1X4914Y6126D1*
G1X3549Y6430D2*
G1X3958Y6839D1*
G1X4318Y6680D2*
G1X4900Y6098D1*
G1X3543Y6467D2*
G1X3951Y6875D1*
G1X3549Y6388D2*
G1X3968Y6807D1*
G1X4116Y6530D2*
G1X4239Y6653D1*
G1X4155Y6527D2*
G1X4298Y6670D1*
G1X4068Y6524D2*
G1X4193Y6650D1*
G1X4000Y6499D2*
G1X4155Y6654D1*
G1X4289Y6666D2*
G1X4889Y6066D1*
G1X4256Y6656D2*
G1X4882Y6031D1*
G1X4219Y6651D2*
G1X4880Y5990D1*
G1X4177Y6651D2*
G1X4887Y5940D1*
G1X4123Y6662D2*
G1X4904Y5881D1*
G1X4335Y6408D2*
G1X4877Y5865D1*
G1X4363Y6337D2*
G1X4854Y5847D1*
G1X4370Y6288D2*
G1X4833Y5825D1*
G1X4368Y6248D2*
G1X4814Y5802D1*
G1X4361Y6212D2*
G1X4798Y5775D1*
G1X4350Y6181D2*
G1X4785Y5746D1*
G1X4335Y6153D2*
G1X4776Y5713D1*
G1X4318Y6128D2*
G1X4770Y5675D1*
G1X4298Y6105D2*
G1X4772Y5632D1*
G1X4276Y6085D2*
G1X4784Y5577D1*
G1X3413Y6633D2*
G1X3819Y7040D1*
G1X3350Y6655D2*
G1X3735Y7040D1*
G1X3439Y6618D2*
G1X3862Y7040D1*
G1X3312Y6660D2*
G1X3692Y7040D1*
G1X3109Y7040D2*
G1X3870Y6279D1*
G1X3533Y6499D2*
G1X3951Y6917D1*
G1X3538Y6335D2*
G1X3982Y6778D1*
G1X3383Y6646D2*
G1X3777Y7040D1*
G1X3520Y6529D2*
G1X3959Y6968D1*
G1X3268Y6658D2*
G1X3650Y7040D1*
G1X2982Y7040D2*
G1X3372Y6649D1*
G1X2900Y5908D2*
G1X3181Y6190D1*
G1X2844Y5895D2*
G1X3155Y6206D1*
G1X3014Y5895D2*
G1X3280Y6161D1*
G1X3044Y5883D2*
G1X3322Y6161D1*
G1X2944Y5910D2*
G1X3211Y6177D1*
G1X2981Y5905D2*
G1X3243Y6167D1*
G1X3151Y5777D2*
G1X4064Y6690D1*
G1X3135Y5804D2*
G1X4039Y6708D1*
G1X3164Y5748D2*
G1X4091Y6675D1*
G1X3094Y5848D2*
G1X3998Y6752D1*
G1X3116Y5827D2*
G1X4018Y6729D1*
G1X3179Y5679D2*
G1X3901Y6400D1*
G1X3179Y5636D2*
G1X3876Y6332D1*
G1X3174Y5715D2*
G1X4121Y6663D1*
G1X3168Y5582D2*
G1X3870Y6284D1*
G1X2056Y5616D2*
G1X3480Y7040D1*
G1X2026Y5628D2*
G1X3438Y7040D1*
G1X2084Y5601D2*
G1X3522Y7040D1*
G1X1953Y5640D2*
G1X3353Y7040D1*
G1X1992Y5636D2*
G1X3395Y7040D1*
G1X3071Y5867D2*
G1X3375Y6172D1*
G1X2198Y5419D2*
G1X3077Y6297D1*
G1X2200Y5378D2*
G1X3092Y6271D1*
G1X1642Y6432D2*
G1X2250Y7040D1*
G1X1632Y6464D2*
G1X2207Y7040D1*
G1X1649Y6396D2*
G1X2292Y7040D1*
G1X1601Y6519D2*
G1X2122Y7040D1*
G1X1618Y6493D2*
G1X2165Y7040D1*
G1X2515Y7040D2*
G1X3064Y6491D1*
G1X2472Y7040D2*
G1X3055Y6458D1*
G1X2430Y7040D2*
G1X3050Y6420D1*
G1X2388Y7040D2*
G1X3052Y6375D1*
G1X1650Y6355D2*
G1X2335Y7040D1*
G1X1444Y6616D2*
G1X1868Y7040D1*
G1X1405Y6620D2*
G1X1825Y7040D1*
G1X1478Y6608D2*
G1X1910Y7040D1*
G1X1360Y6617D2*
G1X1783Y7040D1*
G1X1300Y6599D2*
G1X1741Y7040D1*
G1X1560Y6562D2*
G1X2038Y7040D1*
G1X1582Y6542D2*
G1X2080Y7040D1*
G1X1508Y6595D2*
G1X1953Y7040D1*
G1X1535Y6580D2*
G1X1995Y7040D1*
G1X1751Y7040D2*
G1X2885Y5906D1*
G1X1709Y7040D2*
G1X2851Y5897D1*
G1X1666Y7040D2*
G1X2821Y5885D1*
G1X1624Y7040D2*
G1X2794Y5870D1*
G1X1582Y7040D2*
G1X2770Y5852D1*
G1X1879Y7040D2*
G1X3029Y5890D1*
G1X1651Y5635D2*
G1X3056Y7040D1*
G1X1613Y5640D2*
G1X3013Y7040D1*
G1X1569Y5638D2*
G1X2971Y7040D1*
G1X1602Y6222D2*
G1X2419Y7040D1*
G1X1641Y6304D2*
G1X2377Y7040D1*
G1X1369Y7040D2*
G1X2688Y5722D1*
G1X1327Y7040D2*
G1X2681Y5686D1*
G1X1285Y7040D2*
G1X2681Y5644D1*
G1X1539Y7040D2*
G1X2748Y5831D1*
G1X1497Y7040D2*
G1X2729Y5808D1*
G1X1454Y7040D2*
G1X2712Y5782D1*
G1X1412Y7040D2*
G1X2698Y5754D1*
G1X1092Y6985D2*
G1X1147Y7040D1*
G1X1076Y7012D2*
G1X1104Y7040D1*
G1X606Y7040D2*
G1X652Y6993D1*
G1X563Y7040D2*
G1X639Y6965D1*
G1X1120Y6886D2*
G1X1274Y7040D1*
G1X1118Y6842D2*
G1X1316Y7040D1*
G1X1105Y6956D2*
G1X1189Y7040D1*
G1X1114Y6923D2*
G1X1231Y7040D1*
G1X310Y6882D2*
G1X468Y7040D1*
G1X310Y6925D2*
G1X425Y7040D1*
G1X310Y6840D2*
G1X510Y7040D1*
G1X310Y7009D2*
G1X341Y7040D1*
G1X310Y6967D2*
G1X383Y7040D1*
G1X521Y7040D2*
G1X628Y6933D1*
G1X478Y7040D2*
G1X621Y6897D1*
G1X436Y7040D2*
G1X620Y6856D1*
G1X394Y7040D2*
G1X629Y6805D1*
G1X1072Y7040D2*
G1X1527Y6585D1*
G1X310Y5864D2*
G1X1486Y7040D1*
G1X310Y5822D2*
G1X1528Y7040D1*
G1X310Y5779D2*
G1X1571Y7040D1*
G1X310Y5737D2*
G1X1613Y7040D1*
G1X1242Y7040D2*
G1X2689Y5593D1*
G1X1200Y7040D2*
G1X2731Y5509D1*
G1X310Y5694D2*
G1X1656Y7040D1*
G1X310Y5652D2*
G1X1698Y7040D1*
G1X310Y6755D2*
G1X595Y7040D1*
G1X310Y6797D2*
G1X553Y7040D1*
G1X351Y7040D2*
G1X667Y6724D1*
G1X310Y6712D2*
G1X638Y7040D1*
G1X310Y6670D2*
G1X680Y7040D1*
G1X1106Y6787D2*
G1X1359Y7040D1*
G1X310Y5949D2*
G1X1401Y7040D1*
G1X310Y5906D2*
G1X1444Y7040D1*
G1X1117Y6911D2*
G1X1408Y6620D1*
G1X1120Y6865D2*
G1X1367Y6618D1*
G1X1794Y7040D2*
G1X2924Y5910D1*
G1X1098Y6972D2*
G1X1456Y6614D1*
G1X1116Y6827D2*
G1X1332Y6611D1*
G1X1108Y6793D2*
G1X1301Y6599D1*
G1X1096Y6762D2*
G1X1273Y6585D1*
G1X1080Y6735D2*
G1X1247Y6568D1*
G1X1063Y6711D2*
G1X1225Y6548D1*
G1X1042Y6689D2*
G1X1205Y6526D1*
G1X1019Y6669D2*
G1X1187Y6501D1*
G1X993Y6652D2*
G1X1172Y6473D1*
G1X965Y6639D2*
G1X1161Y6443D1*
G1X933Y6628D2*
G1X1153Y6408D1*
G1X897Y6621D2*
G1X1150Y6368D1*
G1X856Y6620D2*
G1X1155Y6321D1*
G1X805Y6629D2*
G1X1177Y6256D1*
G1X2130Y5563D2*
G1X3066Y6499D1*
G1X2150Y5540D2*
G1X3052Y6442D1*
G1X2167Y5515D2*
G1X3050Y6398D1*
G1X1836Y7040D2*
G1X2969Y5907D1*
G1X1513Y5624D2*
G1X2929Y7040D1*
G1X2181Y5486D2*
G1X3055Y6360D1*
G1X2192Y5454D2*
G1X3064Y6327D1*
G1X1531Y6157D2*
G1X2093Y5595D1*
G1X1503Y6142D2*
G1X2014Y5632D1*
G1X1286Y6147D2*
G1X1826Y5607D1*
G1X724Y6667D2*
G1X1801Y5591D1*
G1X310Y6869D2*
G1X1545Y5634D1*
G1X310Y5567D2*
G1X1153Y6410D1*
G1X1473Y6131D2*
G1X1964Y5640D1*
G1X1438Y6123D2*
G1X1922Y5638D1*
G1X1398Y6120D2*
G1X1887Y5632D1*
G1X1351Y6125D2*
G1X1855Y5621D1*
G1X310Y6203D2*
G1X755Y6648D1*
G1X310Y6246D2*
G1X728Y6664D1*
G1X310Y6161D2*
G1X784Y6635D1*
G1X310Y6288D2*
G1X704Y6683D1*
G1X310Y6911D2*
G1X1582Y5639D1*
G1X310Y6076D2*
G1X854Y6620D1*
G1X310Y6034D2*
G1X898Y6622D1*
G1X310Y6119D2*
G1X817Y6626D1*
G1X310Y5991D2*
G1X953Y6634D1*
G1X310Y6585D2*
G1X621Y6897D1*
G1X310Y6543D2*
G1X621Y6853D1*
G1X310Y6500D2*
G1X626Y6816D1*
G1X310Y7040D2*
G1X687Y7040D1*
G1X310Y6628D2*
G1X634Y6951D1*
G1X310Y6373D2*
G1X665Y6728D1*
G1X310Y6331D2*
G1X683Y6704D1*
G1X310Y6458D2*
G1X635Y6783D1*
G1X310Y6415D2*
G1X649Y6754D1*
G1X310Y6954D2*
G1X1625Y5639D1*
G1X310Y6827D2*
G1X1512Y5624D1*
G1X310Y6784D2*
G1X1483Y5611D1*
G1X310Y6996D2*
G1X1679Y5627D1*
G1X310Y7039D2*
G1X1778Y5571D1*
G1X310Y6657D2*
G1X1412Y5555D1*
G1X310Y6614D2*
G1X1394Y5531D1*
G1X310Y6742D2*
G1X1457Y5595D1*
G1X310Y6699D2*
G1X1433Y5576D1*
G1X310Y6487D2*
G1X1355Y5442D1*
G1X310Y5609D2*
G1X1171Y6470D1*
G1X310Y6445D2*
G1X1350Y5404D1*
G1X310Y6572D2*
G1X1378Y5504D1*
G1X310Y6530D2*
G1X1365Y5475D1*
G1X310Y5440D2*
G1X1162Y6292D1*
G1X310Y5397D2*
G1X1175Y6262D1*
G1X310Y5525D2*
G1X1150Y6365D1*
G1X310Y5482D2*
G1X1154Y6326D1*
G1X4466Y7040D2*
G1X7337Y4170D1*
G1X4428Y4170D2*
G1X7298Y7040D1*
G1X4509Y7040D2*
G1X7379Y4170D1*
G1X4344Y4170D2*
G1X7214Y7040D1*
G1X4386Y4170D2*
G1X7256Y7040D1*
G1X4679Y7040D2*
G1X7549Y4170D1*
G1X4636Y7040D2*
G1X7506Y4170D1*
G1X4721Y7040D2*
G1X7591Y4170D1*
G1X4551Y7040D2*
G1X7421Y4170D1*
G1X4594Y7040D2*
G1X7464Y4170D1*
G1X4301Y4170D2*
G1X7171Y7040D1*
G1X4259Y4170D2*
G1X7129Y7040D1*
G1X4471Y4170D2*
G1X6660Y6360D1*
G1X4174Y4170D2*
G1X7044Y7040D1*
G1X4216Y4170D2*
G1X7086Y7040D1*
G1X4747Y4276D2*
G1X6640Y6170D1*
G1X4692Y4264D2*
G1X6633Y6204D1*
G1X4629Y4243D2*
G1X6630Y6244D1*
G1X4547Y4204D2*
G1X6636Y6292D1*
G1X3539Y6482D2*
G1X5852Y4170D1*
G1X2943Y4170D2*
G1X5814Y7040D1*
G1X3549Y6430D2*
G1X5809Y4170D1*
G1X2859Y4170D2*
G1X5729Y7040D1*
G1X2901Y4170D2*
G1X5771Y7040D1*
G1X3543Y6351D2*
G1X5724Y4170D1*
G1X3549Y6388D2*
G1X5767Y4170D1*
G1X3519Y6290D2*
G1X5639Y4170D1*
G1X3533Y6319D2*
G1X5682Y4170D1*
G1X3484Y6241D2*
G1X5555Y4170D1*
G1X3462Y6220D2*
G1X5512Y4170D1*
G1X3503Y6264D2*
G1X5597Y4170D1*
G1X3411Y6186D2*
G1X5427Y4170D1*
G1X3438Y6202D2*
G1X5470Y4170D1*
G1X3348Y6165D2*
G1X5342Y4170D1*
G1X3381Y6174D2*
G1X5385Y4170D1*
G1X3207Y6178D2*
G1X5215Y4170D1*
G1X3265Y6162D2*
G1X5258Y4170D1*
G1X2519Y4170D2*
G1X5389Y7040D1*
G1X2434Y4170D2*
G1X5304Y7040D1*
G1X2647Y4170D2*
G1X5517Y7040D1*
G1X2303Y7040D2*
G1X5123Y4220D1*
G1X2392Y4170D2*
G1X5262Y7040D1*
G1X2774Y4170D2*
G1X5644Y7040D1*
G1X2816Y4170D2*
G1X5686Y7040D1*
G1X2689Y4170D2*
G1X5559Y7040D1*
G1X2731Y4170D2*
G1X5601Y7040D1*
G1X2091Y7040D2*
G1X4846Y4285D1*
G1X2048Y7040D2*
G1X4805Y4283D1*
G1X2006Y7040D2*
G1X4767Y4279D1*
G1X1963Y7040D2*
G1X4730Y4273D1*
G1X1921Y7040D2*
G1X4696Y4265D1*
G1X2218Y7040D2*
G1X4989Y4269D1*
G1X2260Y7040D2*
G1X5049Y4251D1*
G1X2133Y7040D2*
G1X4889Y4284D1*
G1X2175Y7040D2*
G1X4937Y4279D1*
G1X2562Y4170D2*
G1X5432Y7040D1*
G1X2477Y4170D2*
G1X5347Y7040D1*
G1X2604Y4170D2*
G1X5474Y7040D1*
G1X1115Y7040D2*
G1X3985Y4170D1*
G1X1157Y7040D2*
G1X4027Y4170D1*
G1X1840Y4170D2*
G1X3880Y6210D1*
G1X1883Y4170D2*
G1X3891Y6179D1*
G1X1615Y6497D2*
G1X3942Y4170D1*
G1X1644Y6426D2*
G1X3900Y4170D1*
G1X1650Y6378D2*
G1X3858Y4170D1*
G1X1648Y6337D2*
G1X3815Y4170D1*
G1X1798Y4170D2*
G1X3873Y6245D1*
G1X1629Y6271D2*
G1X3730Y4170D1*
G1X1641Y6302D2*
G1X3773Y4170D1*
G1X1598Y6217D2*
G1X3645Y4170D1*
G1X1615Y6243D2*
G1X3688Y4170D1*
G1X1556Y6175D2*
G1X3561Y4170D1*
G1X1578Y6195D2*
G1X3603Y4170D1*
G1X4882Y4284D2*
G1X6683Y6086D1*
G1X4840Y4285D2*
G1X6666Y6111D1*
G1X4921Y4281D2*
G1X6703Y6063D1*
G1X4796Y4283D2*
G1X6652Y6139D1*
G1X4251Y6067D2*
G1X6149Y4170D1*
G1X4193Y6041D2*
G1X6064Y4170D1*
G1X4224Y6053D2*
G1X6106Y4170D1*
G1X4119Y6030D2*
G1X5979Y4170D1*
G1X4158Y6033D2*
G1X6021Y4170D1*
G1X4072Y6035D2*
G1X5936Y4170D1*
G1X4007Y6057D2*
G1X5894Y4170D1*
G1X4131Y4170D2*
G1X5967Y6006D1*
G1X3919Y4170D2*
G1X5767Y6017D1*
G1X3962Y4170D2*
G1X5796Y6004D1*
G1X4089Y4170D2*
G1X5911Y5992D1*
G1X4004Y4170D2*
G1X5829Y5995D1*
G1X4047Y4170D2*
G1X5867Y5990D1*
G1X3665Y4170D2*
G1X4924Y5429D1*
G1X3622Y4170D2*
G1X4896Y5443D1*
G1X3877Y4170D2*
G1X5159Y5452D1*
G1X3310Y6160D2*
G1X5300Y4170D1*
G1X3580Y4170D2*
G1X4870Y5460D1*
G1X3792Y4170D2*
G1X5032Y5410D1*
G1X3834Y4170D2*
G1X5082Y5418D1*
G1X3707Y4170D2*
G1X4956Y5418D1*
G1X3750Y4170D2*
G1X4991Y5412D1*
G1X3325Y4170D2*
G1X4774Y5618D1*
G1X3283Y4170D2*
G1X4770Y5657D1*
G1X3368Y4170D2*
G1X4782Y5584D1*
G1X3198Y4170D2*
G1X4793Y5765D1*
G1X3240Y4170D2*
G1X4774Y5703D1*
G1X3495Y4170D2*
G1X4827Y5502D1*
G1X3537Y4170D2*
G1X4847Y5480D1*
G1X3410Y4170D2*
G1X4794Y5554D1*
G1X3453Y4170D2*
G1X4809Y5526D1*
G1X3113Y4170D2*
G1X4887Y5943D1*
G1X3071Y4170D2*
G1X4881Y5980D1*
G1X3156Y4170D2*
G1X4896Y5911D1*
G1X2986Y4170D2*
G1X4892Y6076D1*
G1X3028Y4170D2*
G1X4881Y6023D1*
G1X3177Y5699D2*
G1X4632Y4244D1*
G1X3180Y5654D2*
G1X4602Y4232D1*
G1X3160Y5759D2*
G1X4663Y4255D1*
G1X3176Y5615D2*
G1X4573Y4218D1*
G1X3167Y5581D2*
G1X4546Y4203D1*
G1X3155Y5551D2*
G1X4520Y4187D1*
G1X3140Y5524D2*
G1X4494Y4170D1*
G1X3101Y5478D2*
G1X4409Y4170D1*
G1X3122Y5500D2*
G1X4452Y4170D1*
G1X3052Y5442D2*
G1X4324Y4170D1*
G1X3078Y5459D2*
G1X4367Y4170D1*
G1X2992Y5418D2*
G1X4239Y4170D1*
G1X3024Y5428D2*
G1X4282Y4170D1*
G1X2350Y4170D2*
G1X4240Y6061D1*
G1X2307Y4170D2*
G1X4173Y6036D1*
G1X2779Y5461D2*
G1X4070Y4170D1*
G1X2222Y4170D2*
G1X4085Y6033D1*
G1X2265Y4170D2*
G1X4125Y6030D1*
G1X2914Y5411D2*
G1X4155Y4170D1*
G1X2956Y5411D2*
G1X4197Y4170D1*
G1X310Y4170D2*
G1X4495Y4170D1*
G1X2863Y5419D2*
G1X4112Y4170D1*
G1X2053Y4170D2*
G1X3966Y6083D1*
G1X2010Y4170D2*
G1X3943Y6103D1*
G1X2095Y4170D2*
G1X3991Y6066D1*
G1X1925Y4170D2*
G1X3906Y6151D1*
G1X1968Y4170D2*
G1X3923Y6126D1*
G1X2180Y4170D2*
G1X4050Y6040D1*
G1X2192Y5454D2*
G1X3476Y4170D1*
G1X2137Y4170D2*
G1X4019Y6051D1*
G1X2155Y5533D2*
G1X3518Y4170D1*
G1X2192Y5328D2*
G1X3111Y6247D1*
G1X310Y4888D2*
G1X2462Y7040D1*
G1X310Y4846D2*
G1X2504Y7040D1*
G1X310Y4761D2*
G1X2589Y7040D1*
G1X310Y4718D2*
G1X2632Y7040D1*
G1X2158Y5251D2*
G1X3132Y6225D1*
G1X1628Y4170D2*
G1X2875Y5416D1*
G1X1586Y4170D2*
G1X2842Y5426D1*
G1X1501Y4170D2*
G1X2786Y5455D1*
G1X1543Y4170D2*
G1X2813Y5439D1*
G1X310Y5270D2*
G1X1228Y6188D1*
G1X310Y5312D2*
G1X1208Y6210D1*
G1X310Y5228D2*
G1X1251Y6169D1*
G1X310Y5355D2*
G1X1190Y6235D1*
G1X310Y6360D2*
G1X1365Y5305D1*
G1X310Y5185D2*
G1X1277Y6152D1*
G1X310Y4931D2*
G1X1548Y6168D1*
G1X1459Y4170D2*
G1X2763Y5474D1*
G1X1416Y4170D2*
G1X2742Y5496D1*
G1X1756Y4170D2*
G1X3008Y5423D1*
G1X1331Y4170D2*
G1X2707Y5546D1*
G1X1374Y4170D2*
G1X2723Y5519D1*
G1X2198Y5362D2*
G1X3391Y4170D1*
G1X2200Y5404D2*
G1X3433Y4170D1*
G1X1671Y4170D2*
G1X2911Y5411D1*
G1X1713Y4170D2*
G1X2954Y5411D1*
G1X310Y6233D2*
G1X2373Y4170D1*
G1X310Y6190D2*
G1X2330Y4170D1*
G1X1119Y4170D2*
G1X2695Y5746D1*
G1X310Y6318D2*
G1X2458Y4170D1*
G1X310Y6275D2*
G1X2415Y4170D1*
G1X1246Y4170D2*
G1X2685Y5609D1*
G1X1289Y4170D2*
G1X2695Y5576D1*
G1X1162Y4170D2*
G1X2682Y5690D1*
G1X1204Y4170D2*
G1X2680Y5646D1*
G1X310Y4506D2*
G1X2844Y7040D1*
G1X310Y4634D2*
G1X2716Y7040D1*
G1X310Y4464D2*
G1X2886Y7040D1*
G1X310Y4591D2*
G1X2759Y7040D1*
G1X310Y4549D2*
G1X2801Y7040D1*
G1X310Y6063D2*
G1X2203Y4170D1*
G1X310Y5893D2*
G1X2033Y4170D1*
G1X310Y4803D2*
G1X2547Y7040D1*
G1X310Y4676D2*
G1X2674Y7040D1*
G1X310Y5058D2*
G1X1374Y6121D1*
G1X310Y5100D2*
G1X1338Y6128D1*
G1X310Y4973D2*
G1X1466Y6129D1*
G1X310Y6402D2*
G1X1352Y5361D1*
G1X310Y5143D2*
G1X1306Y6138D1*
G1X310Y4379D2*
G1X1352Y5421D1*
G1X310Y4337D2*
G1X1350Y5377D1*
G1X310Y5015D2*
G1X1415Y6120D1*
G1X310Y4421D2*
G1X1366Y5477D1*
G1X310Y6021D2*
G1X2161Y4170D1*
G1X310Y5978D2*
G1X2118Y4170D1*
G1X310Y5936D2*
G1X2076Y4170D1*
G1X310Y6148D2*
G1X2288Y4170D1*
G1X310Y6105D2*
G1X2245Y4170D1*
G1X310Y5766D2*
G1X1906Y4170D1*
G1X310Y5724D2*
G1X1864Y4170D1*
G1X310Y5851D2*
G1X1991Y4170D1*
G1X310Y5808D2*
G1X1948Y4170D1*
G1X310Y5639D2*
G1X1779Y4170D1*
G1X310Y5596D2*
G1X1736Y4170D1*
G1X310Y5554D2*
G1X1694Y4170D1*
G1X310Y4170D2*
G1X310Y7040D1*
G1X310Y5681D2*
G1X1821Y4170D1*
G1X310Y5427D2*
G1X1567Y4170D1*
G1X310Y5384D2*
G1X1524Y4170D1*
G1X310Y5511D2*
G1X1651Y4170D1*
G1X310Y5469D2*
G1X1609Y4170D1*
G1X1077Y4170D2*
G1X2089Y5182D1*
G1X1034Y4170D2*
G1X2012Y5148D1*
G1X1515Y5155D2*
G1X2500Y4170D1*
G1X865Y4170D2*
G1X1854Y5159D1*
G1X907Y4170D2*
G1X1886Y5148D1*
G1X1571Y5142D2*
G1X2542Y4170D1*
G1X1614Y5140D2*
G1X2585Y4170D1*
G1X949Y4170D2*
G1X1921Y5142D1*
G1X992Y4170D2*
G1X1962Y5140D1*
G1X780Y4170D2*
G1X1800Y5190D1*
G1X737Y4170D2*
G1X1777Y5210D1*
G1X822Y4170D2*
G1X1825Y5173D1*
G1X483Y4170D2*
G1X1482Y5169D1*
G1X525Y4170D2*
G1X1511Y5156D1*
G1X652Y4170D2*
G1X1624Y5141D1*
G1X695Y4170D2*
G1X1677Y5152D1*
G1X568Y4170D2*
G1X1544Y5146D1*
G1X610Y4170D2*
G1X1581Y5141D1*
G1X2181Y5295D2*
G1X3306Y4170D1*
G1X2167Y5266D2*
G1X3264Y4170D1*
G1X2192Y5327D2*
G1X3348Y4170D1*
G1X2131Y5218D2*
G1X3179Y4170D1*
G1X2150Y5241D2*
G1X3221Y4170D1*
G1X2085Y5179D2*
G1X3094Y4170D1*
G1X2109Y5197D2*
G1X3136Y4170D1*
G1X2027Y5152D2*
G1X3009Y4170D1*
G1X2057Y5164D2*
G1X3051Y4170D1*
G1X1765Y5202D2*
G1X2797Y4170D1*
G1X1741Y5184D2*
G1X2754Y4170D1*
G1X1847Y5162D2*
G1X2839Y4170D1*
G1X1685Y5155D2*
G1X2670Y4170D1*
G1X1714Y5168D2*
G1X2712Y4170D1*
G1X1954Y5140D2*
G1X2924Y4170D1*
G1X1993Y5144D2*
G1X2967Y4170D1*
G1X1652Y5145D2*
G1X2627Y4170D1*
G1X1908Y5144D2*
G1X2882Y4170D1*
G1X310Y5257D2*
G1X1397Y4170D1*
G1X310Y4209D2*
G1X1377Y5277D1*
G1X313Y4170D2*
G1X1393Y5250D1*
G1X310Y4252D2*
G1X1364Y5306D1*
G1X310Y5299D2*
G1X1439Y4170D1*
G1X440Y4170D2*
G1X1456Y5186D1*
G1X440Y4170D2*
G1X1456Y5186D1*
G1X356Y4170D2*
G1X1411Y5226D1*
G1X398Y4170D2*
G1X1432Y5204D1*
G1X310Y4790D2*
G1X930Y4170D1*
G1X310Y4620D2*
G1X760Y4170D1*
G1X310Y4578D2*
G1X718Y4170D1*
G1X310Y4294D2*
G1X1355Y5339D1*
G1X310Y5214D2*
G1X1354Y4170D1*
G1X310Y4239D2*
G1X379Y4170D1*
G1X310Y4196D2*
G1X336Y4170D1*
G1X310Y4451D2*
G1X591Y4170D1*
G1X310Y4366D2*
G1X506Y4170D1*
G1X310Y5130D2*
G1X1270Y4170D1*
G1X310Y5087D2*
G1X1227Y4170D1*
G1X310Y5045D2*
G1X1185Y4170D1*
G1X310Y5342D2*
G1X1482Y4170D1*
G1X310Y5172D2*
G1X1312Y4170D1*
G1X310Y4917D2*
G1X1057Y4170D1*
G1X310Y4875D2*
G1X1015Y4170D1*
G1X310Y5002D2*
G1X1142Y4170D1*
G1X310Y4960D2*
G1X1100Y4170D1*
G1X310Y4705D2*
G1X845Y4170D1*
G1X310Y4663D2*
G1X803Y4170D1*
G1X310Y4536D2*
G1X676Y4170D1*
G1X310Y4833D2*
G1X973Y4170D1*
G1X310Y4748D2*
G1X888Y4170D1*
G1X310Y4323D2*
G1X463Y4170D1*
G1X310Y4281D2*
G1X421Y4170D1*
G1X310Y4493D2*
G1X633Y4170D1*
G1X310Y4408D2*
G1X548Y4170D1*
G1X15480Y9350D2*
G1X15480Y9780D1*
G1X15480Y9350D2*
G1X15610Y9220D1*
G1X17110Y9220D1*
G1X17790Y9900D1*
G1X17790Y11060D1*
G1X17460Y11390D2*
G1X17790Y11060D1*
G1X17960Y9840D2*
G1X17960Y11480D1*
G1X17190Y9070D2*
G1X17960Y9840D1*
G1X14290Y9070D2*
G1X17190Y9070D1*
G1X17460Y11980D2*
G1X17960Y11480D1*
G1X17190Y11660D2*
G1X17460Y11390D1*
G1X17190Y11660D2*
G1X17190Y11950D1*
G1X15250Y13520D2*
G1X16110Y12660D1*
G1X13390Y13520D2*
G1X15250Y13520D1*
G1X12400Y13780D2*
G1X15190Y13780D1*
G1X12449Y13900D2*
G1X15240Y13900D1*
G1X17190Y11950D1*
G1X11920Y12570D2*
G1X13140Y12570D1*
G1X11000Y13490D2*
G1X11920Y12570D1*
G1X8930Y13490D2*
G1X11000Y13490D1*
G1X8240Y14180D2*
G1X8930Y13490D1*
G1X6850Y14180D2*
G1X8240Y14180D1*
G1X5800Y13380D2*
G1X6560Y13380D1*
G1X3870Y10340D2*
G1X3870Y10870D1*
G1X12180Y11200D2*
G1X12830Y10550D1*
G1X14680Y10550D1*
G1X14980Y10250D1*
G1X14980Y9780D2*
G1X14980Y10250D1*
G1X11010Y11200D2*
G1X11010Y11490D1*
G1X9730Y12770D2*
G1X11010Y11490D1*
G1X8700Y12770D2*
G1X9730Y12770D1*
G1X8100Y12170D2*
G1X8700Y12770D1*
G1X5170Y12170D2*
G1X8100Y12170D1*
G1X3870Y10870D2*
G1X5170Y12170D1*
G1X15390Y5940D2*
G1X15390Y6700D1*
G1X11810Y10280D2*
G1X15390Y6700D1*
G1X16510Y5280D2*
G1X16510Y5749D1*
G1X11930Y10329D2*
G1X16510Y5749D1*
G1X11930Y10329D2*
G1X11930Y11189D1*
G1X11810Y10280D2*
G1X11810Y11140D1*
G1X14770Y6340D2*
G1X14770Y7150D1*
G1X11690Y10230D2*
G1X14770Y7150D1*
G1X11690Y10230D2*
G1X11690Y11090D1*
G1X9879Y13240D2*
G1X11930Y11189D1*
G1X9850Y13100D2*
G1X11810Y11140D1*
G1X9820Y12960D2*
G1X11690Y11090D1*
G1X5730Y13240D2*
G1X9879Y13240D1*
G1X5390Y13100D2*
G1X9850Y13100D1*
G1X5130Y12960D2*
G1X9820Y12960D1*
G1X13440Y11090D2*
G1X15760Y11090D1*
G1X13140Y11390D2*
G1X13440Y11090D1*
G1X13140Y10800D2*
G1X15970Y10800D1*
G1X16480Y10290D1*
G1X16480Y9780D2*
G1X16480Y10290D1*
G1X16110Y11020D2*
G1X16110Y12660D1*
G1X12340Y11980D2*
G1X13140Y11980D1*
G1X10950Y13370D2*
G1X12340Y11980D1*
G1X8880Y13370D2*
G1X10950Y13370D1*
G1X12670Y13630D2*
G1X13140Y13160D1*
G1X12380Y13630D2*
G1X12670Y13630D1*
G1X11720Y14290D2*
G1X12380Y13630D1*
G1X11759Y14760D2*
G1X12499Y14020D1*
G1X11709Y14640D2*
G1X12449Y13900D1*
G1X11660Y14520D2*
G1X12400Y13780D1*
G1X16739Y12570D2*
G1X17460Y12570D1*
G1X9210Y14760D2*
G1X11759Y14760D1*
G1X8500Y15470D2*
G1X9210Y14760D1*
G1X9055Y14640D2*
G1X11709Y14640D1*
G1X8595Y15100D2*
G1X9055Y14640D1*
G1X8160Y15100D2*
G1X8595Y15100D1*
G1X7540Y14480D2*
G1X8160Y15100D1*
G1X8850Y14520D2*
G1X11660Y14520D1*
G1X8500Y14870D2*
G1X8850Y14520D1*
G1X9710Y14290D2*
G1X11720Y14290D1*
G1X8430Y18880D2*
G1X9400Y19850D1*
G1X16790Y19850D1*
G1X610Y11950D2*
G1X2360Y11950D1*
G1X8360Y13890D2*
G1X8880Y13370D1*
G1X7540Y13890D2*
G1X8360Y13890D1*
G1X4490Y14160D2*
G1X5020Y14160D1*
G1X5800Y13380D1*
G1X5120Y13850D2*
G1X5730Y13240D1*
G1X4260Y13850D2*
G1X5120Y13850D1*
G1X4890Y13600D2*
G1X5390Y13100D1*
G1X4490Y13600D2*
G1X5130Y12960D1*
G1X4100Y15070D2*
G1X7540Y15070D1*
G1X9700Y16220D2*
G1X11120Y17640D1*
G1X7570Y16220D2*
G1X9700Y16220D1*
G1X7540Y16250D2*
G1X7570Y16220D1*
G1X2360Y11950D2*
G1X4260Y13850D1*
G1X3220Y21090D2*
G1X3220Y21740D1*
G1X8500Y17630D2*
G1X10410Y17630D1*
G1X7540Y17440D2*
G1X7960Y17860D1*
G1X10590Y17860D1*
G1X6970Y19230D2*
G1X7660Y19920D1*
G1X6810Y19230D2*
G1X6970Y19230D1*
G1X6460Y18880D2*
G1X6810Y19230D1*
G1X7070Y20880D2*
G1X7630Y20320D1*
G1X8390Y20320D1*
G1X8830Y19880D1*
G1X7250Y18880D2*
G1X8430Y18880D1*
G1X5870Y17920D2*
G1X6530Y18580D1*
G1X8900Y18580D1*
G1X6270Y17920D2*
G1X6740Y18390D1*
G1X9330Y18390D1*
G1X8900Y18580D2*
G1X9330Y19010D1*
G1X16050Y4520D2*
G1X16050Y4820D1*
G1X16510Y5280D1*
G1X10590Y17860D2*
G1X10770Y17680D1*
G1X7820Y18090D2*
G1X8600Y18090D1*
G1X17010Y11250D2*
G1X17460Y10800D1*
G1X17010Y11250D2*
G1X17010Y11960D1*
G1X15190Y13780D2*
G1X17010Y11960D1*
G1X12499Y14020D2*
G1X15289Y14020D1*
G1X16739Y12570D1*
G1X6560Y13380D2*
G1X6850Y13670D1*
G1X6600Y13930D2*
G1X6850Y14180D1*
G1X4850Y30480D2*
G54D19*
G1X5950Y30480D1*
G1X4590Y30480D2*
G1X4850Y30480D1*
G1X4190Y30080D2*
G1X4590Y30480D1*
G1X5950Y30480D2*
G1X6350Y30080D1*
G1X9110Y30080D1*
G1X3340Y29230D2*
G1X4190Y30080D1*
G1X3340Y28460D2*
G1X3340Y29230D1*
G1X2380Y28460D2*
G1X2380Y30610D1*
G1X3770Y32000D1*
G1X7210Y32000D1*
G1X8570Y30640D1*
G1X9110Y29520D2*
G1X9110Y30080D1*
G1X17310Y30080D1*
G1X2640Y26330D2*
G1X3600Y26330D1*
G1X4560Y26330D1*
G1X5520Y26330D1*
G1X6480Y26330D1*
G1X7440Y26330D1*
G1X8400Y26330D1*
G1X9360Y26330D1*
G1X10320Y26330D1*
G1X11280Y26330D1*
G1X12240Y26330D1*
G1X12890Y26330D1*
G1X12190Y14730D2*
G54D64*
G1X13970Y14730D1*
G1X14800Y7870D2*
G1X15000Y8070D1*
G1X16410Y8070D1*
G1X9860Y12180D2*
G1X10310Y11730D1*
G1X4790Y12580D2*
G1X6660Y12580D1*
G1X3120Y10910D2*
G1X4790Y12580D1*
G1X1400Y10910D2*
G1X3120Y10910D1*
G1X10310Y10360D2*
G1X10310Y11730D1*
G1X10310Y10360D2*
G1X15050Y5620D1*
G1X12040Y15080D2*
G1X15660Y15080D1*
G1X15050Y5620D2*
G1X16260Y5620D1*
G1X1930Y16450D2*
G1X2260Y16450D1*
G1X1680Y16700D2*
G1X1930Y16450D1*
G1X1680Y16700D2*
G1X1680Y17240D1*
G1X3930Y15860D2*
G1X8500Y15860D1*
G1X3340Y16450D2*
G1X3930Y15860D1*
G1X2260Y16450D2*
G1X3340Y16450D1*
G1X6530Y23130D2*
G1X11110Y23130D1*
G1X5420Y24240D2*
G1X6530Y23130D1*
G1X2210Y22510D2*
G1X3940Y24240D1*
G1X1960Y22260D2*
G1X2210Y22510D1*
G1X1960Y20450D2*
G1X1960Y22260D1*
G1X980Y19470D2*
G1X1960Y20450D1*
G1X3940Y24240D2*
G1X5420Y24240D1*
G1X11110Y23130D2*
G1X13300Y25320D1*
G1X13300Y25570D1*
G1X13280Y19110D2*
G1X16780Y19110D1*
G1X8500Y15860D2*
G1X10030Y15860D1*
G1X7970Y11520D2*
G1X8630Y12180D1*
G1X5390Y11520D2*
G1X7370Y11520D1*
G1X7970Y11520D1*
G1X8630Y12180D2*
G1X9860Y12180D1*
G1X10030Y15860D2*
G1X11360Y17190D1*
G1X13280Y19110D1*
G1X12030Y15080D2*
G1X12040Y15080D1*
G54D70*
G1X13480Y9780D3*
G1X13980Y9780D3*
G1X14480Y9780D3*
G1X14980Y9780D3*
G1X15480Y9780D3*
G1X15980Y9780D3*
G54D71*
G1X16480Y9780D3*
G54D72*
G1X17430Y1340D3*
G1X17430Y2480D3*
G54D73*
G1X1680Y18240D3*
G1X1680Y17740D3*
G1X1680Y18740D3*
G54D74*
G1X1680Y17240D3*
G54D75*
G1X4850Y3680D3*
G1X4850Y30480D3*
G1X16650Y17480D3*
G54D76*
G1X4190Y30080D3*
G1X17310Y30080D3*
G54D77*
G1X10750Y30640D3*
G1X9660Y30640D3*
G1X8570Y30640D3*
G1X7480Y30640D3*
G1X11840Y30640D3*
G1X12930Y30640D3*
G1X14020Y30640D3*
G1X14570Y29520D3*
G1X13480Y29520D3*
G1X12390Y29520D3*
G1X11290Y29520D3*
G1X10210Y29520D3*
G1X9110Y29520D3*
G1X8020Y29520D3*
G1X6930Y29520D3*
G54D78*
G1X17460Y11980D3*
G1X6600Y13930D3*
G1X930Y29640D3*
G1X1950Y31280D3*
G1X780Y26530D3*
G1X1450Y30620D3*
G1X17880Y15470D3*
G1X14790Y2310D3*
G1X16280Y1840D3*
G1X10080Y13790D3*
G1X10850Y16100D3*
G1X10940Y15000D3*
G1X11210Y12370D3*
G1X3870Y10340D3*
G1X17140Y5390D3*
G1X17320Y7680D3*
G1X12790Y8520D3*
G1X11080Y10480D3*
G1X11880Y11700D3*
G1X11810Y9530D3*
G1X17510Y18360D3*
G1X15950Y23520D3*
G1X17700Y22830D3*
G1X17870Y24460D3*
G1X12060Y25430D3*
G1X12530Y23750D3*
G1X12530Y22480D3*
G1X14240Y22660D3*
G1X13230Y21900D3*
G1X13370Y20890D3*
G1X12310Y21240D3*
G1X17030Y7220D3*
G1X17030Y5820D3*
G1X18400Y31220D3*
G1X12180Y11200D3*
G1X11010Y11200D3*
G1X15760Y11090D3*
G1X10160Y15550D3*
G1X10480Y13000D3*
G1X13140Y10800D3*
G1X13140Y11390D3*
G1X13140Y11980D3*
G1X13970Y14730D3*
G1X13390Y13520D3*
G1X16110Y11020D3*
G1X11870Y13010D3*
G1X12190Y13330D3*
G1X13140Y12570D3*
G1X16760Y11020D3*
G1X14800Y7870D3*
G1X16410Y8070D3*
G1X16400Y8690D3*
G1X14290Y9070D3*
G1X17460Y12570D3*
G1X17460Y11390D3*
G1X13140Y13160D3*
G1X9710Y14290D3*
G1X15140Y20280D3*
G1X12190Y14730D3*
G1X18400Y13340D3*
G1X18400Y14160D3*
G1X5280Y12580D3*
G1X2890Y12020D3*
G1X2150Y11290D3*
G1X2960Y11410D3*
G1X2380Y12450D3*
G1X2210Y15660D3*
G1X2090Y15200D3*
G1X1660Y14740D3*
G1X6710Y22740D3*
G1X10640Y25390D3*
G1X6210Y20480D3*
G1X11950Y16530D3*
G1X12300Y16040D3*
G1X12480Y16520D3*
G1X12270Y17000D3*
G1X11540Y18050D3*
G1X15950Y16830D3*
G1X17860Y14760D3*
G1X13350Y14260D3*
G1X16640Y13660D3*
G1X17840Y9180D3*
G1X17530Y10120D3*
G1X18400Y4340D3*
G1X18400Y4840D3*
G1X18400Y3840D3*
G1X14520Y12030D3*
G1X15130Y14270D3*
G1X18000Y7120D3*
G1X18000Y6100D3*
G1X18000Y5070D3*
G1X2260Y14480D3*
G1X16730Y5150D3*
G1X15440Y27490D3*
G1X17410Y26880D3*
G1X15840Y29200D3*
G1X10220Y33340D3*
G1X17270Y13750D3*
G1X17440Y14340D3*
G1X16550Y11780D3*
G1X14540Y13130D3*
G1X15640Y1360D3*
G1X14506Y5670D3*
G1X14770Y1360D3*
G1X17550Y8310D3*
G1X3735Y13960D3*
G1X5840Y13790D3*
G1X4780Y16180D3*
G1X6390Y16640D3*
G1X7340Y15520D3*
G1X6940Y17400D3*
G1X3740Y17430D3*
G1X6940Y14480D3*
G1X8280Y13620D3*
G1X9360Y15050D3*
G1X6530Y19600D3*
G1X10900Y19120D3*
G1X10629Y20560D3*
G1X8660Y21490D3*
G1X7500Y22750D3*
G1X8280Y23560D3*
G1X9540Y22660D3*
G1X8380Y22660D3*
G1X7270Y21690D3*
G1X9240Y21840D3*
G1X9330Y23560D3*
G1X7230Y23630D3*
G1X6150Y25070D3*
G1X1140Y27430D3*
G1X480Y25210D3*
G1X510Y23080D3*
G1X3900Y25020D3*
G1X4790Y24880D3*
G1X5130Y20470D3*
G1X3690Y19520D3*
G1X2770Y18550D3*
G1X660Y18880D3*
G1X570Y16530D3*
G1X530Y14300D3*
G1X2700Y13210D3*
G1X3660Y12380D3*
G1X610Y12530D3*
G1X4920Y10360D3*
G1X5480Y11020D3*
G1X6390Y11095D3*
G1X7070Y11800D3*
G1X9820Y10630D3*
G1X16870Y3520D3*
G1X17440Y13160D3*
G1X15670Y12520D3*
G1X14000Y7260D3*
G1X16180Y14250D3*
G1X15450Y11480D3*
G1X17460Y10800D3*
G1X14250Y14260D3*
G1X16660Y14980D3*
G1X17880Y16220D3*
G1X13190Y20170D3*
G1X16220Y20710D3*
G1X17770Y17220D3*
G1X14300Y23850D3*
G1X12310Y20620D3*
G1X12530Y21860D3*
G1X12530Y23130D3*
G1X11900Y24820D3*
G1X13300Y23310D3*
G1X17360Y25750D3*
G1X15670Y25770D3*
G1X16490Y27810D3*
G1X14750Y28310D3*
G1X13900Y27620D3*
G1X5020Y29210D3*
G1X2950Y29460D3*
G1X4350Y31300D3*
G1X4500Y33090D3*
G1X7580Y32380D3*
G1X13590Y31830D3*
G1X6480Y33280D3*
G1X11970Y33370D3*
G1X15190Y31410D3*
G1X15720Y32980D3*
G1X18060Y34030D3*
G1X18060Y33270D3*
G1X18070Y32760D3*
G1X18230Y32270D3*
G1X18400Y31720D3*
G1X18400Y30720D3*
G1X18400Y29720D3*
G1X18400Y29220D3*
G1X18400Y28720D3*
G1X18400Y28220D3*
G1X18400Y27720D3*
G1X18400Y27220D3*
G1X18400Y26720D3*
G1X18400Y26220D3*
G1X18400Y25720D3*
G1X18400Y25220D3*
G1X18400Y24720D3*
G1X18400Y24220D3*
G1X18400Y23720D3*
G1X18400Y23220D3*
G1X18400Y22720D3*
G1X18400Y22220D3*
G1X18400Y21720D3*
G1X18400Y21220D3*
G1X18400Y20720D3*
G1X18400Y20220D3*
G1X18400Y19720D3*
G1X18400Y19220D3*
G1X18400Y18720D3*
G1X18400Y18220D3*
G1X18400Y17720D3*
G1X18400Y17220D3*
G1X18400Y16720D3*
G1X15660Y15080D3*
G1X4490Y14160D3*
G1X6850Y13670D3*
G1X7540Y13890D3*
G1X4100Y15070D3*
G1X8200Y5840D3*
G1X5020Y5660D3*
G1X5130Y6000D3*
G1X7380Y6240D3*
G1X6880Y6240D3*
G1X4120Y6280D3*
G1X5880Y6240D3*
G1X4200Y6900D3*
G1X3700Y6410D3*
G1X2930Y5660D3*
G1X870Y6870D3*
G1X1600Y5390D3*
G1X640Y4990D3*
G1X14770Y6340D3*
G1X6840Y5840D3*
G1X10110Y5590D3*
G1X7660Y5190D3*
G1X9380Y6240D3*
G1X8380Y6240D3*
G1X7880Y6240D3*
G1X6510Y5150D3*
G1X6450Y4530D3*
G1X6380Y6240D3*
G1X1400Y10910D3*
G1X1000Y10970D3*
G1X7540Y15070D3*
G1X11120Y17640D3*
G1X7540Y16250D3*
G1X8500Y15860D3*
G1X10090Y23920D3*
G1X3980Y22540D3*
G1X4370Y22240D3*
G1X3980Y21950D3*
G1X6610Y21950D3*
G1X11110Y23130D3*
G1X10080Y20400D3*
G1X11280Y20230D3*
G1X5420Y24240D3*
G1X10590Y24400D3*
G1X7860Y24400D3*
G1X9820Y24400D3*
G1X9430Y24400D3*
G1X9040Y24400D3*
G1X8640Y24400D3*
G1X8250Y24400D3*
G1X7070Y24400D3*
G1X7460Y24400D3*
G1X9630Y25360D3*
G1X9240Y25360D3*
G1X8840Y25360D3*
G1X8450Y25360D3*
G1X8050Y25360D3*
G1X7660Y25360D3*
G1X7260Y25360D3*
G1X2090Y26800D3*
G1X2640Y26330D3*
G1X2380Y28460D3*
G1X3050Y26800D3*
G1X3600Y26330D3*
G1X3340Y28460D3*
G1X7850Y26800D3*
G1X8400Y26330D3*
G1X8140Y28460D3*
G1X8810Y26800D3*
G1X9360Y26330D3*
G1X9100Y28460D3*
G1X9770Y26800D3*
G1X10320Y26330D3*
G1X10060Y28460D3*
G1X10730Y26800D3*
G1X11280Y26330D3*
G1X11020Y28460D3*
G1X11690Y26800D3*
G1X12240Y26330D3*
G1X11980Y28460D3*
G1X6890Y26800D3*
G1X7440Y26330D3*
G1X7180Y28460D3*
G1X5930Y26800D3*
G1X6480Y26330D3*
G1X6220Y28460D3*
G1X4970Y26800D3*
G1X5520Y26330D3*
G1X5260Y28460D3*
G1X9450Y4280D3*
G1X9110Y4280D3*
G1X18400Y14720D3*
G1X18400Y15220D3*
G1X18400Y15720D3*
G1X18400Y16220D3*
G1X4560Y26330D3*
G1X4300Y28460D3*
G1X4010Y26800D3*
G1X6870Y25360D3*
G1X12890Y26330D3*
G1X2190Y25430D3*
G1X3230Y22250D3*
G1X3220Y21740D3*
G1X3220Y24410D3*
G1X2210Y22510D3*
G1X980Y25430D3*
G1X980Y23410D3*
G1X1050Y22780D3*
G1X1530Y22400D3*
G1X1520Y22000D3*
G1X610Y21090D3*
G1X2200Y19460D3*
G1X980Y19470D3*
G1X1600Y21460D3*
G1X3220Y21090D3*
G1X13300Y25570D3*
G1X13290Y27320D3*
G1X17810Y19480D3*
G1X16780Y19110D3*
G1X16790Y19850D3*
G1X14820Y21920D3*
G1X2260Y16450D3*
G1X2260Y16050D3*
G1X3220Y15860D3*
G1X960Y14760D3*
G1X3220Y14680D3*
G1X4780Y19080D3*
G1X4300Y18880D3*
G1X4100Y17920D3*
G1X7540Y16650D3*
G1X7540Y17440D3*
G1X8500Y17630D3*
G1X7540Y17040D3*
G1X8500Y17230D3*
G1X8500Y16850D3*
G1X8840Y20880D3*
G1X8150Y21080D3*
G1X8050Y19920D3*
G1X7660Y19920D3*
G1X7070Y20880D3*
G1X7460Y20880D3*
G1X7860Y20880D3*
G1X9630Y20880D3*
G1X8500Y16450D3*
G1X6660Y17920D3*
G1X6860Y18880D3*
G1X6460Y18880D3*
G1X7050Y17920D3*
G1X7260Y19920D3*
G1X7250Y18880D3*
G1X13280Y19110D3*
G1X6660Y12580D3*
G1X6880Y11040D3*
G1X7380Y11050D3*
G1X5390Y11520D3*
G1X5480Y15860D3*
G1X6270Y17920D3*
G1X5870Y17920D3*
G1X8830Y19880D3*
G1X9330Y19010D3*
G1X9330Y18390D3*
G1X610Y11950D3*
G1X2010Y13110D3*
G1X9200Y12510D3*
G1X7960Y12510D3*
G1X9860Y12180D3*
G1X9580Y11520D3*
G1X7370Y11520D3*
G1X4890Y13600D3*
G1X4490Y13600D3*
G1X15980Y5150D3*
G1X16260Y5620D3*
G1X16650Y4760D3*
G1X15390Y5940D3*
G1X16050Y4520D3*
G1X10770Y17680D3*
G1X10410Y17630D3*
G1X7390Y13580D3*
G1X7540Y14480D3*
G1X8500Y14870D3*
G1X8500Y15470D3*
G1X11360Y17190D3*
G1X13060Y15880D3*
G1X12040Y15080D3*
G1X18400Y12840D3*
G1X18400Y12340D3*
G1X18400Y11840D3*
G1X18400Y11340D3*
G1X18400Y10840D3*
G1X18400Y10340D3*
G1X18400Y9840D3*
G1X18400Y9340D3*
G1X18400Y8840D3*
G1X18400Y8340D3*
G1X18400Y7840D3*
G1X18400Y7340D3*
G1X18400Y6840D3*
G1X18400Y6340D3*
G1X18400Y5840D3*
G1X18400Y5340D3*
G1X18400Y3250D3*
G1X8600Y18090D3*
G1X7820Y18090D3*
G1X3800Y15510D3*
G1X5250Y17750D3*
G1X5920Y15450D3*
G1X6340Y14410D3*
G1X7920Y13510D3*
G1X4210Y5390D3*
G1X3180Y5390D3*
G1X2410Y5390D3*
G1X1950Y5390D3*
G1X15390Y2480D3*
G1X1400Y6370D3*
G1X3300Y6410D3*
G1X7120Y13930D3*
G1X8399Y5991D2*
G54D10*
G1X8442Y5998D1*
G1X8483Y6012D1*
G1X8521Y6034D1*
G1X8555Y6061D1*
G1X8583Y6094D1*
G1X8605Y6132D1*
G1X8621Y6173D1*
G1X8629Y6215D1*
G1X8630Y6240D1*
G1X8450Y5840D2*
G1X8446Y5883D1*
G1X8435Y5925D1*
G1X8416Y5965D1*
G1X8399Y5991D1*
G1X8630Y6240D2*
G1X8626Y6283D1*
G1X8615Y6326D1*
G1X8597Y6365D1*
G1X8572Y6401D1*
G1X8541Y6432D1*
G1X8505Y6457D1*
G1X8466Y6475D1*
G1X8423Y6486D1*
G1X8380Y6490D1*
G1X8337Y6486D1*
G1X8294Y6475D1*
G1X8255Y6457D1*
G1X8219Y6432D1*
G1X8188Y6401D1*
G1X8163Y6365D1*
G1X8145Y6326D1*
G1X8134Y6283D1*
G1X8130Y6240D1*
G1X8134Y6197D1*
G1X8145Y6154D1*
G1X8163Y6115D1*
G1X8181Y6089D1*
G1X8181Y6089D2*
G1X8138Y6082D1*
G1X8097Y6067D1*
G1X8059Y6046D1*
G1X8025Y6019D1*
G1X7997Y5985D1*
G1X7975Y5948D1*
G1X7960Y5907D1*
G1X7951Y5865D1*
G1X7951Y5821D1*
G1X7958Y5778D1*
G1X7973Y5737D1*
G1X7994Y5699D1*
G1X8021Y5665D1*
G1X8055Y5637D1*
G1X8092Y5615D1*
G1X8133Y5600D1*
G1X8175Y5591D1*
G1X8219Y5591D1*
G1X8262Y5598D1*
G1X8303Y5613D1*
G1X8341Y5634D1*
G1X8375Y5661D1*
G1X8403Y5695D1*
G1X8425Y5732D1*
G1X8440Y5773D1*
G1X8449Y5815D1*
G1X8450Y5840D1*
G1X7910Y5190D2*
G1X7906Y5233D1*
G1X7895Y5276D1*
G1X7877Y5315D1*
G1X7852Y5351D1*
G1X7821Y5382D1*
G1X7785Y5407D1*
G1X7746Y5425D1*
G1X7703Y5436D1*
G1X7660Y5440D1*
G1X7617Y5436D1*
G1X7574Y5425D1*
G1X7535Y5407D1*
G1X7499Y5382D1*
G1X7468Y5351D1*
G1X7443Y5315D1*
G1X7425Y5276D1*
G1X7414Y5233D1*
G1X7410Y5190D1*
G1X7414Y5147D1*
G1X7425Y5104D1*
G1X7443Y5065D1*
G1X7468Y5029D1*
G1X7499Y4998D1*
G1X7535Y4973D1*
G1X7574Y4955D1*
G1X7617Y4944D1*
G1X7660Y4940D1*
G1X7703Y4944D1*
G1X7746Y4955D1*
G1X7785Y4973D1*
G1X7821Y4998D1*
G1X7852Y5029D1*
G1X7877Y5065D1*
G1X7895Y5104D1*
G1X7906Y5147D1*
G1X7910Y5190D1*
G1X7130Y6240D2*
G1X7134Y6197D1*
G1X7145Y6154D1*
G1X7163Y6115D1*
G1X7188Y6079D1*
G1X7219Y6048D1*
G1X7255Y6023D1*
G1X7294Y6005D1*
G1X7337Y5994D1*
G1X7380Y5990D1*
G1X7423Y5994D1*
G1X7466Y6005D1*
G1X7505Y6023D1*
G1X7541Y6048D1*
G1X7572Y6079D1*
G1X7597Y6115D1*
G1X7615Y6154D1*
G1X7626Y6197D1*
G1X7630Y6240D1*
G1X7626Y6283D1*
G1X7615Y6326D1*
G1X7597Y6365D1*
G1X7572Y6401D1*
G1X7541Y6432D1*
G1X7505Y6457D1*
G1X7466Y6475D1*
G1X7423Y6486D1*
G1X7380Y6490D1*
G1X7337Y6486D1*
G1X7294Y6475D1*
G1X7255Y6457D1*
G1X7219Y6432D1*
G1X7188Y6401D1*
G1X7163Y6365D1*
G1X7145Y6326D1*
G1X7134Y6283D1*
G1X7130Y6240D1*
G1X7126Y6283D1*
G1X7115Y6326D1*
G1X7097Y6365D1*
G1X7072Y6401D1*
G1X7041Y6432D1*
G1X7005Y6457D1*
G1X6966Y6475D1*
G1X6923Y6486D1*
G1X6880Y6490D1*
G1X6837Y6486D1*
G1X6794Y6475D1*
G1X6755Y6457D1*
G1X6719Y6432D1*
G1X6688Y6401D1*
G1X6663Y6365D1*
G1X6645Y6326D1*
G1X6634Y6283D1*
G1X6630Y6240D1*
G1X6634Y6197D1*
G1X6645Y6154D1*
G1X6663Y6115D1*
G1X6688Y6079D1*
G1X6712Y6055D1*
G1X7008Y6025D2*
G1X7043Y6051D1*
G1X7074Y6082D1*
G1X7098Y6118D1*
G1X7116Y6158D1*
G1X7127Y6200D1*
G1X7130Y6240D1*
G1X7090Y5840D2*
G1X7086Y5883D1*
G1X7075Y5925D1*
G1X7056Y5965D1*
G1X7031Y6001D1*
G1X7008Y6025D1*
G1X6712Y6055D2*
G1X6677Y6030D1*
G1X6646Y5998D1*
G1X6622Y5962D1*
G1X6604Y5922D1*
G1X6593Y5880D1*
G1X6590Y5837D1*
G1X6594Y5793D1*
G1X6606Y5751D1*
G1X6625Y5712D1*
G1X6650Y5677D1*
G1X6682Y5646D1*
G1X6718Y5622D1*
G1X6758Y5604D1*
G1X6800Y5593D1*
G1X6843Y5590D1*
G1X6887Y5594D1*
G1X6929Y5606D1*
G1X6968Y5625D1*
G1X7003Y5650D1*
G1X7034Y5682D1*
G1X7058Y5718D1*
G1X7076Y5758D1*
G1X7087Y5800D1*
G1X7090Y5840D1*
G1X6130Y6240D2*
G1X6126Y6283D1*
G1X6115Y6326D1*
G1X6097Y6365D1*
G1X6072Y6401D1*
G1X6041Y6432D1*
G1X6005Y6457D1*
G1X5966Y6475D1*
G1X5923Y6486D1*
G1X5880Y6490D1*
G1X5837Y6486D1*
G1X5794Y6475D1*
G1X5755Y6457D1*
G1X5719Y6432D1*
G1X5688Y6401D1*
G1X5663Y6365D1*
G1X5645Y6326D1*
G1X5634Y6283D1*
G1X5630Y6240D1*
G1X5634Y6197D1*
G1X5645Y6154D1*
G1X5663Y6115D1*
G1X5688Y6079D1*
G1X5719Y6048D1*
G1X5755Y6023D1*
G1X5794Y6005D1*
G1X5837Y5994D1*
G1X5880Y5990D1*
G1X5923Y5994D1*
G1X5966Y6005D1*
G1X6005Y6023D1*
G1X6041Y6048D1*
G1X6072Y6079D1*
G1X6097Y6115D1*
G1X6115Y6154D1*
G1X6126Y6197D1*
G1X6130Y6240D1*
G1X5241Y5776D2*
G1X5278Y5799D1*
G1X5311Y5827D1*
G1X5338Y5862D1*
G1X5359Y5900D1*
G1X5373Y5941D1*
G1X5379Y5984D1*
G1X5380Y6000D1*
G1X5270Y5660D2*
G1X5266Y5703D1*
G1X5255Y5745D1*
G1X5241Y5776D1*
G1X9674Y4170D2*
G1X9690Y4211D1*
G1X9698Y4254D1*
G1X9700Y4280D1*
G1X9696Y4323D1*
G1X9685Y4365D1*
G1X9666Y4405D1*
G1X9642Y4441D1*
G1X9611Y4471D1*
G1X9575Y4496D1*
G1X9536Y4515D1*
G1X9493Y4526D1*
G1X9450Y4530D1*
G1X9407Y4526D1*
G1X9365Y4515D1*
G1X9325Y4496D1*
G1X9289Y4471D1*
G1X9280Y4463D1*
G1X9246Y4490D1*
G1X9207Y4510D1*
G1X9166Y4524D1*
G1X9122Y4530D1*
G1X9079Y4528D1*
G1X9036Y4519D1*
G1X8996Y4502D1*
G1X8959Y4479D1*
G1X8927Y4450D1*
G1X8900Y4416D1*
G1X8879Y4377D1*
G1X8866Y4336D1*
G1X8860Y4292D1*
G1X8862Y4249D1*
G1X8871Y4206D1*
G1X8885Y4170D1*
G1X6700Y4530D2*
G1X6696Y4573D1*
G1X6685Y4616D1*
G1X6667Y4655D1*
G1X6642Y4691D1*
G1X6611Y4722D1*
G1X6575Y4747D1*
G1X6536Y4765D1*
G1X6493Y4776D1*
G1X6450Y4780D1*
G1X6407Y4776D1*
G1X6364Y4765D1*
G1X6325Y4747D1*
G1X6289Y4722D1*
G1X6258Y4691D1*
G1X6233Y4655D1*
G1X6215Y4616D1*
G1X6204Y4573D1*
G1X6200Y4530D1*
G1X6204Y4487D1*
G1X6215Y4444D1*
G1X6233Y4405D1*
G1X6258Y4369D1*
G1X6289Y4338D1*
G1X6325Y4313D1*
G1X6364Y4295D1*
G1X6407Y4284D1*
G1X6450Y4280D1*
G1X6493Y4284D1*
G1X6536Y4295D1*
G1X6575Y4313D1*
G1X6611Y4338D1*
G1X6642Y4369D1*
G1X6667Y4405D1*
G1X6685Y4444D1*
G1X6696Y4487D1*
G1X6700Y4530D1*
G1X4450Y6900D2*
G1X4446Y6943D1*
G1X4435Y6985D1*
G1X4416Y7025D1*
G1X4407Y7040D1*
G1X3993Y7040D2*
G1X3972Y7002D1*
G1X3958Y6961D1*
G1X3951Y6918D1*
G1X3951Y6874D1*
G1X3960Y6831D1*
G1X3975Y6791D1*
G1X3998Y6753D1*
G1X4026Y6720D1*
G1X4060Y6693D1*
G1X4098Y6672D1*
G1X4139Y6658D1*
G1X4182Y6651D1*
G1X4226Y6651D1*
G1X4269Y6660D1*
G1X4309Y6675D1*
G1X4347Y6698D1*
G1X4380Y6726D1*
G1X4407Y6760D1*
G1X4428Y6798D1*
G1X4442Y6839D1*
G1X4449Y6882D1*
G1X4450Y6900D1*
G1X5380Y6000D2*
G1X5376Y6043D1*
G1X5365Y6086D1*
G1X5347Y6125D1*
G1X5322Y6161D1*
G1X5291Y6192D1*
G1X5255Y6217D1*
G1X5216Y6235D1*
G1X5173Y6246D1*
G1X5130Y6250D1*
G1X5087Y6246D1*
G1X5044Y6235D1*
G1X5005Y6217D1*
G1X4969Y6192D1*
G1X4938Y6161D1*
G1X4913Y6125D1*
G1X4895Y6086D1*
G1X4884Y6043D1*
G1X4880Y6000D1*
G1X4884Y5957D1*
G1X4895Y5914D1*
G1X4909Y5884D1*
G1X4909Y5884D2*
G1X4872Y5861D1*
G1X4839Y5833D1*
G1X4812Y5798D1*
G1X4791Y5760D1*
G1X4777Y5719D1*
G1X4771Y5676D1*
G1X4772Y5632D1*
G1X4780Y5590D1*
G1X4796Y5549D1*
G1X4819Y5512D1*
G1X4847Y5479D1*
G1X4882Y5452D1*
G1X4920Y5431D1*
G1X4961Y5417D1*
G1X5004Y5411D1*
G1X5048Y5412D1*
G1X5090Y5420D1*
G1X5131Y5436D1*
G1X5168Y5459D1*
G1X5201Y5487D1*
G1X5228Y5522D1*
G1X5249Y5560D1*
G1X5263Y5601D1*
G1X5269Y5644D1*
G1X5270Y5660D1*
G1X4370Y6280D2*
G1X4366Y6323D1*
G1X4355Y6366D1*
G1X4337Y6405D1*
G1X4312Y6441D1*
G1X4281Y6472D1*
G1X4245Y6497D1*
G1X4206Y6515D1*
G1X4163Y6526D1*
G1X4120Y6530D1*
G1X4077Y6526D1*
G1X4034Y6515D1*
G1X3995Y6497D1*
G1X3959Y6472D1*
G1X3928Y6441D1*
G1X3903Y6405D1*
G1X3885Y6366D1*
G1X3874Y6323D1*
G1X3870Y6280D1*
G1X3874Y6237D1*
G1X3885Y6194D1*
G1X3903Y6155D1*
G1X3928Y6119D1*
G1X3959Y6088D1*
G1X3995Y6063D1*
G1X4034Y6045D1*
G1X4077Y6034D1*
G1X4120Y6030D1*
G1X4163Y6034D1*
G1X4206Y6045D1*
G1X4245Y6063D1*
G1X4281Y6088D1*
G1X4312Y6119D1*
G1X4337Y6155D1*
G1X4355Y6194D1*
G1X4366Y6237D1*
G1X4370Y6280D1*
G1X3550Y6410D2*
G1X3546Y6453D1*
G1X3535Y6496D1*
G1X3517Y6535D1*
G1X3492Y6571D1*
G1X3461Y6602D1*
G1X3425Y6627D1*
G1X3386Y6645D1*
G1X3343Y6656D1*
G1X3300Y6660D1*
G1X3257Y6656D1*
G1X3214Y6645D1*
G1X3175Y6627D1*
G1X3139Y6602D1*
G1X3108Y6571D1*
G1X3083Y6535D1*
G1X3065Y6496D1*
G1X3054Y6453D1*
G1X3050Y6410D1*
G1X3054Y6367D1*
G1X3065Y6324D1*
G1X3083Y6285D1*
G1X3108Y6249D1*
G1X3139Y6218D1*
G1X3175Y6193D1*
G1X3214Y6175D1*
G1X3257Y6164D1*
G1X3300Y6160D1*
G1X3343Y6164D1*
G1X3386Y6175D1*
G1X3425Y6193D1*
G1X3461Y6218D1*
G1X3492Y6249D1*
G1X3517Y6285D1*
G1X3535Y6324D1*
G1X3546Y6367D1*
G1X3550Y6410D1*
G1X3180Y5660D2*
G1X3176Y5703D1*
G1X3165Y5746D1*
G1X3147Y5785D1*
G1X3122Y5821D1*
G1X3091Y5852D1*
G1X3055Y5877D1*
G1X3016Y5895D1*
G1X2973Y5906D1*
G1X2930Y5910D1*
G1X2887Y5906D1*
G1X2844Y5895D1*
G1X2805Y5877D1*
G1X2769Y5852D1*
G1X2738Y5821D1*
G1X2713Y5785D1*
G1X2695Y5746D1*
G1X2684Y5703D1*
G1X2680Y5660D1*
G1X2684Y5617D1*
G1X2695Y5574D1*
G1X2713Y5535D1*
G1X2738Y5499D1*
G1X2769Y5468D1*
G1X2805Y5443D1*
G1X2844Y5425D1*
G1X2887Y5414D1*
G1X2930Y5410D1*
G1X2973Y5414D1*
G1X3016Y5425D1*
G1X3055Y5443D1*
G1X3091Y5468D1*
G1X3122Y5499D1*
G1X3147Y5535D1*
G1X3165Y5574D1*
G1X3176Y5617D1*
G1X3180Y5660D1*
G1X1120Y6870D2*
G1X1116Y6913D1*
G1X1105Y6955D1*
G1X1086Y6995D1*
G1X1061Y7031D1*
G1X1053Y7040D1*
G1X687Y7040D2*
G1X660Y7006D1*
G1X640Y6967D1*
G1X627Y6926D1*
G1X621Y6883D1*
G1X622Y6839D1*
G1X631Y6797D1*
G1X648Y6756D1*
G1X671Y6719D1*
G1X700Y6687D1*
G1X734Y6660D1*
G1X773Y6640D1*
G1X814Y6627D1*
G1X857Y6621D1*
G1X901Y6622D1*
G1X943Y6631D1*
G1X984Y6648D1*
G1X1021Y6671D1*
G1X1053Y6700D1*
G1X1080Y6734D1*
G1X1100Y6773D1*
G1X1113Y6814D1*
G1X1119Y6857D1*
G1X1120Y6870D1*
G1X1650Y6370D2*
G1X1646Y6413D1*
G1X1635Y6456D1*
G1X1617Y6495D1*
G1X1592Y6531D1*
G1X1561Y6562D1*
G1X1525Y6587D1*
G1X1486Y6605D1*
G1X1443Y6616D1*
G1X1400Y6620D1*
G1X1357Y6616D1*
G1X1314Y6605D1*
G1X1275Y6587D1*
G1X1239Y6562D1*
G1X1208Y6531D1*
G1X1183Y6495D1*
G1X1165Y6456D1*
G1X1154Y6413D1*
G1X1150Y6370D1*
G1X1154Y6327D1*
G1X1165Y6284D1*
G1X1183Y6245D1*
G1X1208Y6209D1*
G1X1239Y6178D1*
G1X1275Y6153D1*
G1X1314Y6135D1*
G1X1357Y6124D1*
G1X1400Y6120D1*
G1X1443Y6124D1*
G1X1486Y6135D1*
G1X1525Y6153D1*
G1X1561Y6178D1*
G1X1592Y6209D1*
G1X1617Y6245D1*
G1X1635Y6284D1*
G1X1646Y6327D1*
G1X1650Y6370D1*
G1X2200Y5390D2*
G1X2196Y5433D1*
G1X2185Y5476D1*
G1X2167Y5515D1*
G1X2142Y5551D1*
G1X2111Y5582D1*
G1X2075Y5607D1*
G1X2035Y5625D1*
G1X1993Y5636D1*
G1X1950Y5640D1*
G1X1906Y5636D1*
G1X1864Y5625D1*
G1X1825Y5607D1*
G1X1789Y5582D1*
G1X1775Y5569D1*
G1X5205Y4170D2*
G1X5115Y4224D1*
G1X5016Y4262D1*
G1X4912Y4282D1*
G1X4807Y4284D1*
G1X4703Y4267D1*
G1X4603Y4232D1*
G1X4511Y4181D1*
G1X4495Y4170D1*
G1X1775Y5569D2*
G1X1741Y5597D1*
G1X1703Y5618D1*
G1X1662Y5633D1*
G1X1619Y5640D1*
G1X1575Y5639D1*
G1X1532Y5631D1*
G1X1492Y5616D1*
G1X1454Y5593D1*
G1X1421Y5565D1*
G1X1393Y5531D1*
G1X1372Y5493D1*
G1X1357Y5452D1*
G1X1350Y5409D1*
G1X1351Y5365D1*
G1X1359Y5322D1*
G1X1374Y5282D1*
G1X1397Y5244D1*
G1X1425Y5211D1*
G1X1459Y5183D1*
G1X1497Y5162D1*
G1X1538Y5147D1*
G1X1581Y5140D1*
G1X1625Y5141D1*
G1X1668Y5149D1*
G1X1708Y5164D1*
G1X1746Y5187D1*
G1X1775Y5211D1*
G1X1809Y5183D1*
G1X1847Y5162D1*
G1X1888Y5148D1*
G1X1931Y5140D1*
G1X1975Y5141D1*
G1X2017Y5149D1*
G1X2058Y5164D1*
G1X2096Y5187D1*
G1X2129Y5215D1*
G1X2156Y5249D1*
G1X2178Y5287D1*
G1X2192Y5328D1*
G1X2199Y5371D1*
G1X2200Y5390D1*
M2*
