*
%LPD*%
%LNIN2*%
%FSLAX24Y24*%
%MOIN*%
%AD*%
%ADD10C,0.006*%
%ADD19C,0.01*%
%ADD63C,0.008*%
%ADD64C,0.016*%
%ADD67C,0.014*%
%ADD70O,0.041X0.063*%
%ADD71R,0.041X0.063*%
%ADD72C,0.059*%
%ADD73O,0.063X0.041*%
%ADD74R,0.063X0.041*%
%ADD75C,0.099*%
%ADD76C,0.172*%
%ADD77C,0.063*%
%ADD78C,0.028*%
G54D10*
%SRX1Y1I0.0J0.0*%
G1X8921Y7040D2*
G1X9504Y6457D1*
G1X8879Y7040D2*
G1X9435Y6484D1*
G1X8444Y5895D2*
G1X9589Y7040D1*
G1X8421Y5957D2*
G1X9505Y7040D1*
G1X8434Y5927D2*
G1X9547Y7040D1*
G1X8964Y7040D2*
G1X10171Y5832D1*
G1X9267Y6463D2*
G1X9844Y7040D1*
G1X9006Y7040D2*
G1X10247Y5799D1*
G1X8449Y5858D2*
G1X9632Y7040D1*
G1X8449Y5814D2*
G1X9674Y7040D1*
G1X8624Y7040D2*
G1X9227Y6438D1*
G1X8582Y7040D2*
G1X9204Y6418D1*
G1X8539Y7040D2*
G1X9184Y6395D1*
G1X8497Y7040D2*
G1X9167Y6370D1*
G1X8455Y7040D2*
G1X9152Y6343D1*
G1X8836Y7040D2*
G1X9386Y6490D1*
G1X8794Y7040D2*
G1X9346Y6488D1*
G1X8752Y7040D2*
G1X9311Y6480D1*
G1X8709Y7040D2*
G1X9280Y6469D1*
G1X8667Y7040D2*
G1X9252Y6455D1*
G1X9473Y7040D2*
G1X11320Y5193D1*
G1X9515Y7040D2*
G1X11320Y5235D1*
G1X9430Y7040D2*
G1X11320Y5150D1*
G1X9388Y7040D2*
G1X11320Y5108D1*
G1X9346Y7040D2*
G1X11320Y5066D1*
G1X9303Y7040D2*
G1X11320Y5023D1*
G1X9303Y7040D2*
G1X11320Y5023D1*
G1X9261Y7040D2*
G1X11320Y4981D1*
G1X9218Y7040D2*
G1X11320Y4938D1*
G1X9176Y7040D2*
G1X11320Y4896D1*
G1X9812Y7040D2*
G1X11320Y5532D1*
G1X9850Y7040D2*
G1X11320Y5570D1*
G1X9770Y7040D2*
G1X11320Y5490D1*
G1X8437Y5760D2*
G1X9717Y7040D1*
G1X9727Y7040D2*
G1X11320Y5447D1*
G1X9685Y7040D2*
G1X11320Y5405D1*
G1X9643Y7040D2*
G1X11320Y5363D1*
G1X9600Y7040D2*
G1X11320Y5320D1*
G1X9558Y7040D2*
G1X11320Y5278D1*
G1X7539Y6433D2*
G1X8147Y7040D1*
G1X7515Y6450D2*
G1X8104Y7040D1*
G1X7561Y6412D2*
G1X8189Y7040D1*
G1X7457Y6478D2*
G1X8020Y7040D1*
G1X7488Y6466D2*
G1X8062Y7040D1*
G1X8085Y6384D2*
G1X8741Y7040D1*
G1X8066Y6407D2*
G1X8698Y7040D1*
G1X8101Y6357D2*
G1X8783Y7040D1*
G1X7581Y6389D2*
G1X8232Y7040D1*
G1X7597Y6363D2*
G1X8274Y7040D1*
G1X7339Y6487D2*
G1X7892Y7040D1*
G1X7309Y7040D2*
G1X7860Y6489D1*
G1X7278Y6468D2*
G1X7850Y7040D1*
G1X7267Y7040D2*
G1X7823Y6483D1*
G1X7224Y7040D2*
G1X7791Y6474D1*
G1X7423Y6486D2*
G1X7977Y7040D1*
G1X7394Y7040D2*
G1X7956Y6478D1*
G1X7385Y6490D2*
G1X7935Y7040D1*
G1X7351Y7040D2*
G1X7902Y6489D1*
G1X8252Y6085D2*
G1X9208Y7040D1*
G1X8412Y7040D2*
G1X9140Y6312D1*
G1X8285Y6075D2*
G1X9250Y7040D1*
G1X8242Y7040D2*
G1X9159Y6124D1*
G1X8215Y6090D2*
G1X9165Y7040D1*
G1X8386Y6007D2*
G1X9420Y7040D1*
G1X8365Y6028D2*
G1X9377Y7040D1*
G1X8405Y5983D2*
G1X9462Y7040D1*
G1X8315Y6062D2*
G1X9292Y7040D1*
G1X8341Y6046D2*
G1X9335Y7040D1*
G1X8124Y6296D2*
G1X8868Y7040D1*
G1X8114Y6328D2*
G1X8826Y7040D1*
G1X8118Y6162D2*
G1X8995Y7040D1*
G1X7109Y6341D2*
G1X7808Y7040D1*
G1X7611Y6335D2*
G1X8317Y7040D1*
G1X8370Y7040D2*
G1X9133Y6277D1*
G1X8327Y7040D2*
G1X9130Y6237D1*
G1X8285Y7040D2*
G1X9135Y6190D1*
G1X8171Y6088D2*
G1X9123Y7040D1*
G1X9630Y6232D2*
G1X10144Y6746D1*
G1X9628Y6272D2*
G1X10123Y6767D1*
G1X9623Y6183D2*
G1X10165Y6725D1*
G1X9595Y6112D2*
G1X10187Y6704D1*
G1X9597Y6364D2*
G1X10121Y5840D1*
G1X10165Y5834D2*
G1X10611Y6279D1*
G1X10128Y5839D2*
G1X10590Y6301D1*
G1X10198Y5824D2*
G1X10632Y6258D1*
G1X10085Y5839D2*
G1X10568Y6322D1*
G1X10031Y5827D2*
G1X10547Y6343D1*
G1X9578Y6392D2*
G1X10038Y6852D1*
G1X9558Y6415D2*
G1X10017Y6873D1*
G1X9595Y6367D2*
G1X10059Y6831D1*
G1X9511Y6453D2*
G1X9974Y6916D1*
G1X9536Y6435D2*
G1X9996Y6895D1*
G1X9624Y6295D2*
G1X10081Y5838D1*
G1X9630Y6246D2*
G1X10045Y5831D1*
G1X9628Y6206D2*
G1X10013Y5821D1*
G1X9610Y6339D2*
G1X10080Y6810D1*
G1X9621Y6308D2*
G1X10102Y6789D1*
G1X10317Y5731D2*
G1X10738Y6152D1*
G1X10298Y5755D2*
G1X10717Y6173D1*
G1X10332Y5704D2*
G1X10759Y6131D1*
G1X10253Y5795D2*
G1X10674Y6216D1*
G1X10277Y5776D2*
G1X10696Y6195D1*
G1X10360Y5604D2*
G1X10823Y6067D1*
G1X10355Y5641D2*
G1X10802Y6089D1*
G1X10358Y5560D2*
G1X10844Y6046D1*
G1X10345Y5675D2*
G1X10780Y6110D1*
G1X10345Y5505D2*
G1X10865Y6025D1*
G1X10227Y5811D2*
G1X10653Y6237D1*
G1X9620Y6171D2*
G1X9985Y5807D1*
G1X9609Y6140D2*
G1X9959Y5790D1*
G1X9595Y6112D2*
G1X9937Y5770D1*
G1X9578Y6087D2*
G1X9916Y5748D1*
G1X9558Y6064D2*
G1X9899Y5723D1*
G1X9535Y6044D2*
G1X9884Y5696D1*
G1X9510Y6027D2*
G1X9872Y5665D1*
G1X8129Y6259D2*
G1X8911Y7040D1*
G1X8044Y6428D2*
G1X8656Y7040D1*
G1X8129Y6216D2*
G1X8953Y7040D1*
G1X7994Y6463D2*
G1X8571Y7040D1*
G1X8020Y6447D2*
G1X8614Y7040D1*
G1X9453Y6479D2*
G1X9932Y6958D1*
G1X9418Y6487D2*
G1X9911Y6980D1*
G1X9484Y6468D2*
G1X9953Y6937D1*
G1X9379Y6490D2*
G1X9890Y7001D1*
G1X9332Y6485D2*
G1X9868Y7022D1*
G1X7931Y6485D2*
G1X8486Y7040D1*
G1X7894Y6490D2*
G1X8444Y7040D1*
G1X7964Y6475D2*
G1X8529Y7040D1*
G1X7850Y6488D2*
G1X8401Y7040D1*
G1X7794Y6475D2*
G1X8359Y7040D1*
G1X8123Y6183D2*
G1X8217Y6089D1*
G1X8113Y6151D2*
G1X8175Y6089D1*
G1X7094Y6369D2*
G1X7765Y7040D1*
G1X8129Y6262D2*
G1X8357Y6035D1*
G1X8129Y6220D2*
G1X8269Y6080D1*
G1X8100Y6122D2*
G1X8139Y6083D1*
G1X8116Y6075D2*
G1X9080Y7040D1*
G1X9483Y6012D2*
G1X9863Y5631D1*
G1X9452Y6000D2*
G1X9860Y5592D1*
G1X9417Y5993D2*
G1X9864Y5546D1*
G1X9377Y5990D2*
G1X9884Y5483D1*
G1X8084Y6095D2*
G1X8107Y6072D1*
G1X7791Y6006D2*
G1X7950Y5847D1*
G1X7611Y6144D2*
G1X7953Y5802D1*
G1X7597Y6116D2*
G1X7970Y5743D1*
G1X7963Y6004D2*
G1X7991Y5977D1*
G1X7930Y5995D2*
G1X7975Y5950D1*
G1X7892Y5990D2*
G1X7963Y5919D1*
G1X7848Y5992D2*
G1X7954Y5886D1*
G1X6876Y6490D2*
G1X7426Y7040D1*
G1X6842Y7040D2*
G1X7393Y6490D1*
G1X6885Y7040D2*
G1X7443Y6482D1*
G1X6800Y7040D2*
G1X7352Y6488D1*
G1X6828Y6484D2*
G1X7383Y7040D1*
G1X7182Y7040D2*
G1X7762Y6460D1*
G1X6981Y6468D2*
G1X7553Y7040D1*
G1X7009Y6454D2*
G1X7595Y7040D1*
G1X6916Y6487D2*
G1X7468Y7040D1*
G1X6950Y6480D2*
G1X7511Y7040D1*
G1X6475Y6471D2*
G1X7044Y7040D1*
G1X6443Y6482D2*
G1X7001Y7040D1*
G1X6418Y7040D2*
G1X6997Y6461D1*
G1X6407Y6488D2*
G1X6959Y7040D1*
G1X6376Y7040D2*
G1X6931Y6485D1*
G1X6757Y7040D2*
G1X7316Y6482D1*
G1X6715Y7040D2*
G1X7284Y6471D1*
G1X6760Y6460D2*
G1X7341Y7040D1*
G1X6504Y6457D2*
G1X7086Y7040D1*
G1X6673Y7040D2*
G1X7256Y6457D1*
G1X7012Y7040D2*
G1X7673Y6380D1*
G1X7034Y6437D2*
G1X7638Y7040D1*
G1X6970Y7040D2*
G1X7657Y6353D1*
G1X6927Y7040D2*
G1X7520Y6447D1*
G1X6606Y6347D2*
G1X7298Y7040D1*
G1X7139Y7040D2*
G1X7735Y6444D1*
G1X7097Y7040D2*
G1X7712Y6425D1*
G1X7077Y6394D2*
G1X7723Y7040D1*
G1X7057Y6417D2*
G1X7680Y7040D1*
G1X7054Y7040D2*
G1X7691Y6404D1*
G1X6552Y6421D2*
G1X7171Y7040D1*
G1X6529Y6441D2*
G1X7129Y7040D1*
G1X6545Y7040D2*
G1X7187Y6399D1*
G1X6503Y7040D2*
G1X7169Y6374D1*
G1X6461Y7040D2*
G1X7154Y6347D1*
G1X6630Y7040D2*
G1X7230Y6440D1*
G1X6591Y6375D2*
G1X7256Y7040D1*
G1X6588Y7040D2*
G1X7207Y6421D1*
G1X6573Y6399D2*
G1X7214Y7040D1*
G1X6248Y7040D2*
G1X6809Y6480D1*
G1X6206Y7040D2*
G1X6778Y6468D1*
G1X6164Y7040D2*
G1X6750Y6454D1*
G1X6121Y7040D2*
G1X6725Y6436D1*
G1X6079Y7040D2*
G1X6703Y6416D1*
G1X6366Y6490D2*
G1X6917Y7040D1*
G1X6333Y7040D2*
G1X6883Y6490D1*
G1X6316Y6482D2*
G1X6874Y7040D1*
G1X6291Y7040D2*
G1X6843Y6487D1*
G1X6236Y6445D2*
G1X6832Y7040D1*
G1X5739Y7040D2*
G1X6302Y6477D1*
G1X5697Y7040D2*
G1X6272Y6465D1*
G1X5654Y7040D2*
G1X6244Y6450D1*
G1X5612Y7040D2*
G1X6220Y6432D1*
G1X5570Y7040D2*
G1X6198Y6411D1*
G1X5867Y7040D2*
G1X6420Y6487D1*
G1X6036Y7040D2*
G1X6683Y6394D1*
G1X5824Y7040D2*
G1X6374Y6490D1*
G1X5782Y7040D2*
G1X6336Y6486D1*
G1X5380Y6012D2*
G1X6407Y7040D1*
G1X5375Y6050D2*
G1X6365Y7040D1*
G1X5378Y5968D2*
G1X6450Y7040D1*
G1X5353Y6113D2*
G1X6280Y7040D1*
G1X5366Y6083D2*
G1X6323Y7040D1*
G1X5994Y7040D2*
G1X6665Y6368D1*
G1X5951Y7040D2*
G1X6651Y6340D1*
G1X5270Y5648D2*
G1X6662Y7040D1*
G1X5262Y5598D2*
G1X6704Y7040D1*
G1X5228Y5521D2*
G1X6747Y7040D1*
G1X5219Y6234D2*
G1X6026Y7040D1*
G1X5187Y6243D2*
G1X5983Y7040D1*
G1X5248Y6220D2*
G1X6068Y7040D1*
G1X5107Y6249D2*
G1X5898Y7040D1*
G1X5054Y6238D2*
G1X5856Y7040D1*
G1X5319Y6164D2*
G1X6195Y7040D1*
G1X5337Y6140D2*
G1X6238Y7040D1*
G1X5274Y6204D2*
G1X6110Y7040D1*
G1X5230Y7040D2*
G1X6180Y6091D1*
G1X7622Y6303D2*
G1X7645Y6326D1*
G1X7587Y6380D2*
G1X7644Y6323D1*
G1X7120Y6310D2*
G1X7152Y6342D1*
G1X7622Y6176D2*
G1X7646Y6151D1*
G1X7120Y6169D2*
G1X7153Y6136D1*
G1X7583Y6095D2*
G1X7645Y6156D1*
G1X7027Y6005D2*
G1X7154Y6132D1*
G1X7046Y5982D2*
G1X7170Y6105D1*
G1X7101Y6357D2*
G1X7142Y6316D1*
G1X6618Y6317D2*
G1X6660Y6360D1*
G1X6609Y6340D2*
G1X6640Y6309D1*
G1X7099Y6119D2*
G1X7142Y6163D1*
G1X6617Y6162D2*
G1X6662Y6117D1*
G1X6608Y6137D2*
G1X6640Y6170D1*
G1X6605Y6132D2*
G1X6694Y6043D1*
G1X6760Y5144D2*
G1X7692Y6076D1*
G1X6758Y5184D2*
G1X7673Y6100D1*
G1X6754Y5096D2*
G1X7713Y6054D1*
G1X6739Y5250D2*
G1X7525Y6037D1*
G1X6750Y5219D2*
G1X7657Y6126D1*
G1X6725Y5278D2*
G1X7445Y5999D1*
G1X7076Y5757D2*
G1X7317Y5998D1*
G1X6727Y5026D2*
G1X7736Y6035D1*
G1X6688Y5326D2*
G1X7353Y5991D1*
G1X6707Y5303D2*
G1X7394Y5990D1*
G1X7084Y5893D2*
G1X7231Y6039D1*
G1X7075Y5926D2*
G1X7208Y6059D1*
G1X7090Y5855D2*
G1X7257Y6023D1*
G1X7062Y5955D2*
G1X7187Y6081D1*
G1X7088Y5812D2*
G1X7285Y6009D1*
G1X6665Y5346D2*
G1X6923Y5604D1*
G1X6612Y5378D2*
G1X6825Y5590D1*
G1X6640Y5363D2*
G1X6868Y5592D1*
G1X6590Y6104D2*
G1X6671Y6024D1*
G1X6572Y6080D2*
G1X6650Y6002D1*
G1X5909Y7040D2*
G1X6480Y6469D1*
G1X5364Y5911D2*
G1X6492Y7040D1*
G1X6551Y6058D2*
G1X6632Y5978D1*
G1X6528Y6039D2*
G1X6616Y5951D1*
G1X6503Y6022D2*
G1X6604Y5921D1*
G1X6474Y6008D2*
G1X6595Y5888D1*
G1X6442Y5998D2*
G1X6590Y5850D1*
G1X5400Y7040D2*
G1X6138Y6302D1*
G1X5357Y7040D2*
G1X6131Y6266D1*
G1X5315Y7040D2*
G1X6130Y6225D1*
G1X5150Y6249D2*
G1X5941Y7040D1*
G1X5273Y7040D2*
G1X6139Y6174D1*
G1X5527Y7040D2*
G1X6179Y6388D1*
G1X5485Y7040D2*
G1X6162Y6363D1*
G1X5442Y7040D2*
G1X6148Y6334D1*
G1X5298Y6185D2*
G1X6153Y7040D1*
G1X6406Y5991D2*
G1X6592Y5805D1*
G1X6393Y5371D2*
G1X6675Y5653D1*
G1X6365Y5990D2*
G1X6608Y5747D1*
G1X5268Y5689D2*
G1X6620Y7040D1*
G1X6547Y5397D2*
G1X6754Y5605D1*
G1X6507Y5400D2*
G1X6725Y5618D1*
G1X6581Y5390D2*
G1X6787Y5596D1*
G1X6459Y5395D2*
G1X6698Y5634D1*
G1X5262Y5724D2*
G1X6577Y7040D1*
G1X5355Y6109D2*
G1X6265Y5199D1*
G1X5376Y6046D2*
G1X6260Y5161D1*
G1X5251Y5756D2*
G1X6535Y7040D1*
G1X4933Y7040D2*
G1X6585Y5389D1*
G1X5380Y5999D2*
G1X6262Y5117D1*
G1X5377Y5960D2*
G1X6277Y5060D1*
G1X9133Y7040D2*
G1X11320Y4853D1*
G1X9651Y4429D2*
G1X11056Y5834D1*
G1X9668Y4403D2*
G1X11077Y5813D1*
G1X9091Y7040D2*
G1X11320Y4811D1*
G1X9049Y7040D2*
G1X11320Y4769D1*
G1X10352Y5651D2*
G1X11320Y4684D1*
G1X10319Y5727D2*
G1X11320Y4726D1*
G1X9699Y4307D2*
G1X11141Y5749D1*
G1X9682Y4374D2*
G1X11099Y5792D1*
G1X9692Y4343D2*
G1X11120Y5770D1*
G1X9528Y4518D2*
G1X10950Y5940D1*
G1X9494Y4526D2*
G1X10929Y5961D1*
G1X9558Y4505D2*
G1X10971Y5919D1*
G1X9455Y4530D2*
G1X10908Y5983D1*
G1X9410Y4527D2*
G1X10887Y6004D1*
G1X9610Y4472D2*
G1X11014Y5876D1*
G1X9585Y4490D2*
G1X10993Y5898D1*
G1X9632Y4452D2*
G1X11035Y5855D1*
G1X8361Y5649D2*
G1X9482Y4528D1*
G1X8383Y5669D2*
G1X9538Y4514D1*
G1X9264Y6019D2*
G1X11112Y4170D1*
G1X8332Y4170D2*
G1X10526Y6364D1*
G1X9330Y5995D2*
G1X11155Y4170D1*
G1X8247Y4170D2*
G1X10484Y6407D1*
G1X8289Y4170D2*
G1X10505Y6386D1*
G1X9732Y4170D2*
G1X11226Y5664D1*
G1X9700Y4265D2*
G1X11162Y5728D1*
G1X9774Y4170D2*
G1X11247Y5643D1*
G1X9691Y4214D2*
G1X11184Y5707D1*
G1X9689Y4170D2*
G1X11205Y5686D1*
G1X8449Y5815D2*
G1X10094Y4170D1*
G1X8443Y5779D2*
G1X10052Y4170D1*
G1X8449Y5857D2*
G1X10137Y4170D1*
G1X8395Y5997D2*
G1X10221Y4170D1*
G1X8440Y5909D2*
G1X10179Y4170D1*
G1X8418Y5718D2*
G1X9967Y4170D1*
G1X8432Y5747D2*
G1X10009Y4170D1*
G1X8374Y4170D2*
G1X9873Y5669D1*
G1X8402Y5693D2*
G1X9924Y4170D1*
G1X7564Y7040D2*
G1X10434Y4170D1*
G1X7521Y7040D2*
G1X10391Y4170D1*
G1X7606Y7040D2*
G1X10476Y4170D1*
G1X7436Y7040D2*
G1X10306Y4170D1*
G1X7479Y7040D2*
G1X10349Y4170D1*
G1X7776Y7040D2*
G1X10646Y4170D1*
G1X7733Y7040D2*
G1X10603Y4170D1*
G1X7818Y7040D2*
G1X10688Y4170D1*
G1X7648Y7040D2*
G1X10518Y4170D1*
G1X7691Y7040D2*
G1X10561Y4170D1*
G1X7738Y4170D2*
G1X10229Y6661D1*
G1X7695Y4170D2*
G1X10208Y6683D1*
G1X7780Y4170D2*
G1X10250Y6640D1*
G1X6889Y4170D2*
G1X9759Y7040D1*
G1X6932Y4170D2*
G1X9802Y7040D1*
G1X7653Y4170D2*
G1X9508Y6025D1*
G1X7822Y4170D2*
G1X10271Y6619D1*
G1X7568Y4170D2*
G1X9388Y5990D1*
G1X7610Y4170D2*
G1X9437Y5997D1*
G1X8158Y7040D2*
G1X11028Y4170D1*
G1X8115Y7040D2*
G1X10985Y4170D1*
G1X8200Y7040D2*
G1X11070Y4170D1*
G1X8030Y7040D2*
G1X10900Y4170D1*
G1X8073Y7040D2*
G1X10943Y4170D1*
G1X7988Y7040D2*
G1X10858Y4170D1*
G1X7945Y7040D2*
G1X10815Y4170D1*
G1X8204Y4170D2*
G1X10462Y6428D1*
G1X7861Y7040D2*
G1X10731Y4170D1*
G1X7903Y7040D2*
G1X10773Y4170D1*
G1X7992Y4170D2*
G1X10356Y6534D1*
G1X7950Y4170D2*
G1X10335Y6555D1*
G1X8035Y4170D2*
G1X10377Y6513D1*
G1X7865Y4170D2*
G1X10293Y6598D1*
G1X7907Y4170D2*
G1X10314Y6576D1*
G1X8119Y4170D2*
G1X10420Y6470D1*
G1X8162Y4170D2*
G1X10441Y6449D1*
G1X8077Y4170D2*
G1X10399Y6492D1*
G1X8118Y6316D2*
G1X10264Y4170D1*
G1X10835Y4170D2*
G1X11320Y4655D1*
G1X10792Y4170D2*
G1X11320Y4698D1*
G1X10877Y4170D2*
G1X11320Y4613D1*
G1X10185Y5352D2*
G1X11320Y4217D1*
G1X10750Y4170D2*
G1X11320Y4740D1*
G1X11174Y4170D2*
G1X11320Y4316D1*
G1X11004Y4170D2*
G1X11320Y4486D1*
G1X11259Y4170D2*
G1X11320Y4231D1*
G1X10920Y4170D2*
G1X11320Y4570D1*
G1X10962Y4170D2*
G1X11320Y4528D1*
G1X10358Y5561D2*
G1X11320Y4599D1*
G1X10360Y5601D2*
G1X11320Y4641D1*
G1X10351Y5525D2*
G1X11320Y4556D1*
G1X10341Y5493D2*
G1X11320Y4514D1*
G1X10327Y5465D2*
G1X11320Y4472D1*
G1X10290Y5417D2*
G1X11320Y4387D1*
G1X10310Y5439D2*
G1X11320Y4429D1*
G1X10268Y5396D2*
G1X11320Y4344D1*
G1X10243Y5379D2*
G1X11320Y4302D1*
G1X10216Y5364D2*
G1X11320Y4259D1*
G1X10453Y4170D2*
G1X11320Y5037D1*
G1X10241Y4170D2*
G1X11320Y5249D1*
G1X10495Y4170D2*
G1X11320Y4995D1*
G1X10156Y4170D2*
G1X11320Y5334D1*
G1X10198Y4170D2*
G1X11320Y5292D1*
G1X10665Y4170D2*
G1X11320Y4825D1*
G1X10623Y4170D2*
G1X11320Y4867D1*
G1X10707Y4170D2*
G1X11320Y4783D1*
G1X10538Y4170D2*
G1X11320Y4952D1*
G1X10580Y4170D2*
G1X11320Y4910D1*
G1X10410Y4170D2*
G1X11320Y5080D1*
G1X10368Y4170D2*
G1X11320Y5122D1*
G1X11320Y4170D2*
G1X11320Y5570D1*
G1X10283Y4170D2*
G1X11320Y5207D1*
G1X10326Y4170D2*
G1X11320Y5164D1*
G1X11132Y4170D2*
G1X11320Y4358D1*
G1X11217Y4170D2*
G1X11320Y4273D1*
G1X11047Y4170D2*
G1X11320Y4443D1*
G1X11089Y4170D2*
G1X11320Y4401D1*
G1X9944Y4170D2*
G1X11320Y5546D1*
G1X9901Y4170D2*
G1X11311Y5579D1*
G1X9986Y4170D2*
G1X11320Y5504D1*
G1X9817Y4170D2*
G1X11268Y5622D1*
G1X9859Y4170D2*
G1X11290Y5601D1*
G1X9349Y4509D2*
G1X10195Y5355D1*
G1X9270Y4472D2*
G1X10140Y5342D1*
G1X10151Y5343D2*
G1X11320Y4175D1*
G1X9218Y4505D2*
G1X10058Y5345D1*
G1X9246Y4490D2*
G1X10096Y5340D1*
G1X9070Y4527D2*
G1X9945Y5402D1*
G1X8337Y5631D2*
G1X9438Y4530D1*
G1X9010Y4509D2*
G1X9924Y5423D1*
G1X8310Y5615D2*
G1X9400Y4525D1*
G1X8279Y5603D2*
G1X9367Y4516D1*
G1X9188Y4517D2*
G1X10025Y5355D1*
G1X9116Y4530D2*
G1X9969Y5383D1*
G1X9154Y4526D2*
G1X9996Y5368D1*
G1X10071Y4170D2*
G1X11320Y5419D1*
G1X10029Y4170D2*
G1X11320Y5461D1*
G1X10113Y4170D2*
G1X11320Y5377D1*
G1X8586Y4170D2*
G1X9889Y5473D1*
G1X8629Y4170D2*
G1X9905Y5447D1*
G1X10066Y5344D2*
G1X11240Y4170D1*
G1X10003Y5364D2*
G1X11197Y4170D1*
G1X10112Y5340D2*
G1X11282Y4170D1*
G1X9674Y4170D2*
G1X11320Y4170D1*
G1X9684Y4368D2*
G1X9882Y4170D1*
G1X8544Y4170D2*
G1X9876Y5502D1*
G1X8501Y4170D2*
G1X9866Y5535D1*
G1X9698Y4312D2*
G1X9840Y4170D1*
G1X8416Y4170D2*
G1X9861Y5615D1*
G1X8459Y4170D2*
G1X9861Y5572D1*
G1X9695Y4230D2*
G1X9755Y4170D1*
G1X9700Y4268D2*
G1X9797Y4170D1*
G1X9686Y4197D2*
G1X9712Y4170D1*
G1X7580Y6090D2*
G1X9142Y4528D1*
G1X7561Y6067D2*
G1X9098Y4530D1*
G1X7539Y6047D2*
G1X9060Y4525D1*
G1X7271Y4170D2*
G1X9185Y6084D1*
G1X7313Y4170D2*
G1X9205Y6062D1*
G1X7514Y6029D2*
G1X9027Y4516D1*
G1X7487Y6014D2*
G1X8997Y4503D1*
G1X7526Y4170D2*
G1X9348Y5992D1*
G1X7356Y4170D2*
G1X9228Y6042D1*
G1X7441Y4170D2*
G1X9281Y6010D1*
G1X7108Y6138D2*
G1X8877Y4369D1*
G1X7094Y6110D2*
G1X8867Y4337D1*
G1X7076Y6085D2*
G1X8861Y4300D1*
G1X7056Y6063D2*
G1X8861Y4258D1*
G1X7034Y6043D2*
G1X8872Y4205D1*
G1X7456Y6002D2*
G1X8971Y4488D1*
G1X7422Y5994D2*
G1X8947Y4469D1*
G1X7383Y5990D2*
G1X8925Y4448D1*
G1X7337Y5994D2*
G1X8906Y4425D1*
G1X7276Y6013D2*
G1X8890Y4399D1*
G1X7101Y4170D2*
G1X9133Y6202D1*
G1X7059Y4170D2*
G1X9130Y6241D1*
G1X7144Y4170D2*
G1X9141Y6167D1*
G1X6974Y4170D2*
G1X9157Y6353D1*
G1X7016Y4170D2*
G1X9135Y6288D1*
G1X7398Y4170D2*
G1X9253Y6025D1*
G1X7229Y4170D2*
G1X9167Y6109D1*
G1X7483Y4170D2*
G1X9312Y5999D1*
G1X7008Y6025D2*
G1X8864Y4170D1*
G1X7186Y4170D2*
G1X9152Y6136D1*
G1X7089Y5818D2*
G1X8737Y4170D1*
G1X7083Y5781D2*
G1X8694Y4170D1*
G1X7089Y5860D2*
G1X8779Y4170D1*
G1X7073Y5749D2*
G1X8652Y4170D1*
G1X7079Y5912D2*
G1X8821Y4170D1*
G1X7043Y5694D2*
G1X8567Y4170D1*
G1X7059Y5720D2*
G1X8609Y4170D1*
G1X6465Y4170D2*
G1X7994Y5699D1*
G1X6507Y4170D2*
G1X8012Y5675D1*
G1X6168Y4170D2*
G1X9038Y7040D1*
G1X6125Y4170D2*
G1X7958Y6002D1*
G1X6314Y5999D2*
G1X8143Y4170D1*
G1X5956Y4170D2*
G1X7792Y6006D1*
G1X5998Y4170D2*
G1X7824Y5996D1*
G1X6210Y4170D2*
G1X7965Y5924D1*
G1X6338Y4170D2*
G1X7955Y5788D1*
G1X6380Y4170D2*
G1X7965Y5755D1*
G1X6041Y4170D2*
G1X7861Y5991D1*
G1X6083Y4170D2*
G1X7904Y5991D1*
G1X4993Y4268D2*
G1X6591Y5866D1*
G1X5026Y4259D2*
G1X6591Y5823D1*
G1X5913Y4170D2*
G1X7763Y6019D1*
G1X4921Y4281D2*
G1X6703Y6063D1*
G1X4958Y4275D2*
G1X6603Y5921D1*
G1X5117Y4223D2*
G1X6619Y5724D1*
G1X5145Y4208D2*
G1X6635Y5697D1*
G1X5058Y4248D2*
G1X6596Y5786D1*
G1X5088Y4236D2*
G1X6606Y5753D1*
G1X5145Y7040D2*
G1X8015Y4170D1*
G1X5103Y7040D2*
G1X7973Y4170D1*
G1X5188Y7040D2*
G1X8058Y4170D1*
G1X5018Y7040D2*
G1X7888Y4170D1*
G1X5060Y7040D2*
G1X7930Y4170D1*
G1X6253Y4170D2*
G1X7952Y5869D1*
G1X6295Y4170D2*
G1X7950Y5825D1*
G1X6422Y4170D2*
G1X7978Y5725D1*
G1X4976Y7040D2*
G1X7846Y4170D1*
G1X6231Y6040D2*
G1X8100Y4170D1*
G1X5357Y5895D2*
G1X7082Y4170D1*
G1X5342Y5868D2*
G1X7040Y4170D1*
G1X5369Y5926D2*
G1X7124Y4170D1*
G1X5304Y5821D2*
G1X6955Y4170D1*
G1X5324Y5843D2*
G1X6997Y4170D1*
G1X5269Y5686D2*
G1X6785Y4170D1*
G1X5281Y5801D2*
G1X6912Y4170D1*
G1X5256Y5784D2*
G1X6870Y4170D1*
G1X5257Y5741D2*
G1X6827Y4170D1*
G1X8246Y5594D2*
G1X9337Y4503D1*
G1X8207Y5590D2*
G1X9310Y4487D1*
G1X8103Y5610D2*
G1X9199Y4514D1*
G1X8162Y5593D2*
G1X9286Y4469D1*
G1X8798Y4170D2*
G1X8864Y4236D1*
G1X8756Y4170D2*
G1X8860Y4274D1*
G1X8841Y4170D2*
G1X8873Y4202D1*
G1X8671Y4170D2*
G1X8881Y4380D1*
G1X8713Y4170D2*
G1X8863Y4320D1*
G1X7002Y5650D2*
G1X8482Y4170D1*
G1X6978Y5632D2*
G1X8440Y4170D1*
G1X7024Y5671D2*
G1X8524Y4170D1*
G1X6921Y5604D2*
G1X8355Y4170D1*
G1X6951Y5616D2*
G1X8397Y4170D1*
G1X6850Y5590D2*
G1X8270Y4170D1*
G1X6888Y5595D2*
G1X8312Y4170D1*
G1X6805Y5592D2*
G1X8227Y4170D1*
G1X6847Y4170D2*
G1X8280Y5603D1*
G1X6719Y4170D2*
G1X8145Y5596D1*
G1X6677Y4170D2*
G1X8113Y5606D1*
G1X6747Y5608D2*
G1X8185Y4170D1*
G1X6592Y4170D2*
G1X8057Y5635D1*
G1X6635Y4170D2*
G1X8083Y5619D1*
G1X6762Y4170D2*
G1X8182Y5591D1*
G1X6759Y5129D2*
G1X7718Y4170D1*
G1X6804Y4170D2*
G1X8226Y5591D1*
G1X6749Y5225D2*
G1X7803Y4170D1*
G1X6759Y5172D2*
G1X7761Y4170D1*
G1X6743Y5060D2*
G1X7633Y4170D1*
G1X6730Y5031D2*
G1X7591Y4170D1*
G1X6753Y5093D2*
G1X7676Y4170D1*
G1X6695Y4982D2*
G1X7506Y4170D1*
G1X6714Y5005D2*
G1X7549Y4170D1*
G1X6649Y4942D2*
G1X7421Y4170D1*
G1X6673Y4961D2*
G1X7464Y4170D1*
G1X6593Y4914D2*
G1X7337Y4170D1*
G1X6622Y4927D2*
G1X7379Y4170D1*
G1X6420Y4917D2*
G1X7167Y4170D1*
G1X5871Y4170D2*
G1X6634Y4933D1*
G1X6550Y4170D2*
G1X8033Y5654D1*
G1X5172Y4192D2*
G1X6653Y5674D1*
G1X5701Y4170D2*
G1X6441Y4910D1*
G1X6521Y4900D2*
G1X7252Y4170D1*
G1X6477Y4902D2*
G1X7209Y4170D1*
G1X6559Y4905D2*
G1X7294Y4170D1*
G1X5744Y4170D2*
G1X6476Y4902D1*
G1X5786Y4170D2*
G1X6516Y4900D1*
G1X5447Y4170D2*
G1X6297Y5020D1*
G1X5404Y4170D2*
G1X6282Y5048D1*
G1X5489Y4170D2*
G1X6314Y4995D1*
G1X5197Y4175D2*
G1X6289Y5267D1*
G1X5362Y4170D2*
G1X6270Y5079D1*
G1X5616Y4170D2*
G1X6382Y4935D1*
G1X5659Y4170D2*
G1X6410Y4921D1*
G1X5531Y4170D2*
G1X6334Y4972D1*
G1X5574Y4170D2*
G1X6357Y4953D1*
G1X5264Y5606D2*
G1X6700Y4170D1*
G1X5254Y5573D2*
G1X6658Y4170D1*
G1X5269Y5643D2*
G1X6743Y4170D1*
G1X5225Y5517D2*
G1X6573Y4170D1*
G1X5241Y5544D2*
G1X6615Y4170D1*
G1X5205Y4170D2*
G1X8885Y4170D1*
G1X5207Y5494D2*
G1X6530Y4170D1*
G1X5828Y4170D2*
G1X6564Y4906D1*
G1X5162Y5454D2*
G1X6446Y4170D1*
G1X5185Y5473D2*
G1X6488Y4170D1*
G1X5106Y5425D2*
G1X6361Y4170D1*
G1X5073Y5416D2*
G1X6318Y4170D1*
G1X5135Y5438D2*
G1X6403Y4170D1*
G1X4937Y5424D2*
G1X6191Y4170D1*
G1X4992Y5412D2*
G1X6233Y4170D1*
G1X5277Y4170D2*
G1X6260Y5153D1*
G1X5319Y4170D2*
G1X6263Y5113D1*
G1X5035Y5410D2*
G1X6276Y4170D1*
G1X5235Y4170D2*
G1X6265Y5201D1*
G1X4368Y6315D2*
G1X5092Y7040D1*
G1X4360Y6350D2*
G1X5050Y7040D1*
G1X4297Y7040D2*
G1X5090Y6247D1*
G1X4254Y7040D2*
G1X5056Y6239D1*
G1X4212Y7040D2*
G1X5025Y6227D1*
G1X4382Y7040D2*
G1X5176Y6246D1*
G1X4370Y6275D2*
G1X5135Y7040D1*
G1X4424Y7040D2*
G1X5239Y6225D1*
G1X4339Y7040D2*
G1X5129Y6250D1*
G1X4364Y6227D2*
G1X5177Y7040D1*
G1X4249Y6494D2*
G1X4795Y7040D1*
G1X4221Y6509D2*
G1X4753Y7040D1*
G1X4274Y6477D2*
G1X4838Y7040D1*
G1X4155Y6527D2*
G1X4668Y7040D1*
G1X4190Y6520D2*
G1X4710Y7040D1*
G1X4334Y6409D2*
G1X4965Y7040D1*
G1X4317Y6434D2*
G1X4923Y7040D1*
G1X4349Y6381D2*
G1X5007Y7040D1*
G1X4297Y6457D2*
G1X4880Y7040D1*
G1X4170Y7040D2*
G1X4998Y6212D1*
G1X4679Y7040D2*
G1X6365Y5354D1*
G1X4636Y7040D2*
G1X6342Y5335D1*
G1X4594Y7040D2*
G1X6321Y5313D1*
G1X4551Y7040D2*
G1X6302Y5289D1*
G1X4509Y7040D2*
G1X6287Y5262D1*
G1X4891Y7040D2*
G1X6532Y5399D1*
G1X4848Y7040D2*
G1X6489Y5399D1*
G1X4806Y7040D2*
G1X6453Y5393D1*
G1X4763Y7040D2*
G1X6420Y5383D1*
G1X4721Y7040D2*
G1X6391Y5370D1*
G1X4201Y5640D2*
G1X5601Y7040D1*
G1X4339Y6160D2*
G1X5220Y7040D1*
G1X4242Y5638D2*
G1X5644Y7040D1*
G1X4127Y7040D2*
G1X4973Y6194D1*
G1X4152Y5633D2*
G1X5559Y7040D1*
G1X4337Y5606D2*
G1X5771Y7040D1*
G1X4362Y5588D2*
G1X5814Y7040D1*
G1X4277Y5631D2*
G1X5686Y7040D1*
G1X4308Y5620D2*
G1X5729Y7040D1*
G1X3896Y6565D2*
G1X4371Y7040D1*
G1X3876Y6587D2*
G1X4329Y7040D1*
G1X3913Y6540D2*
G1X4413Y7040D1*
G1X3854Y6607D2*
G1X4286Y7040D1*
G1X3703Y7040D2*
G1X4248Y6495D1*
G1X4116Y6530D2*
G1X4626Y7040D1*
G1X4068Y6524D2*
G1X4583Y7040D1*
G1X4000Y6499D2*
G1X4541Y7040D1*
G1X1053Y7040D2*
G1X9850Y7040D1*
G1X3928Y6512D2*
G1X4456Y7040D1*
G1X3279Y7040D2*
G1X3662Y6657D1*
G1X3236Y7040D2*
G1X3627Y6649D1*
G1X3491Y7040D2*
G1X4021Y6510D1*
G1X3194Y7040D2*
G1X3596Y6637D1*
G1X3151Y7040D2*
G1X3569Y6623D1*
G1X3800Y6639D2*
G1X4201Y7040D1*
G1X3828Y6625D2*
G1X4244Y7040D1*
G1X3646Y6654D2*
G1X4032Y7040D1*
G1X3660Y7040D2*
G1X4177Y6523D1*
G1X3957Y7040D2*
G1X4900Y6098D1*
G1X3915Y7040D2*
G1X4889Y6066D1*
G1X3873Y7040D2*
G1X4882Y6031D1*
G1X3830Y7040D2*
G1X4880Y5990D1*
G1X3788Y7040D2*
G1X4887Y5940D1*
G1X4085Y7040D2*
G1X4951Y6174D1*
G1X4042Y7040D2*
G1X4931Y6151D1*
G1X4080Y5604D2*
G1X5517Y7040D1*
G1X4000Y7040D2*
G1X4914Y6126D1*
G1X3745Y7040D2*
G1X4904Y5881D1*
G1X2345Y7040D2*
G1X3962Y5423D1*
G1X2521Y5614D2*
G1X3947Y7040D1*
G1X2303Y7040D2*
G1X3960Y5383D1*
G1X2108Y5583D2*
G1X3565Y7040D1*
G1X2130Y5563D2*
G1X3607Y7040D1*
G1X3940Y6481D2*
G1X4498Y7040D1*
G1X2472Y7040D2*
G1X3995Y5518D1*
G1X2260Y7040D2*
G1X3966Y5334D1*
G1X2218Y7040D2*
G1X3994Y5264D1*
G1X4335Y6408D2*
G1X4877Y5865D1*
G1X4363Y6337D2*
G1X4854Y5847D1*
G1X4370Y6288D2*
G1X4833Y5825D1*
G1X3769Y6650D2*
G1X4159Y7040D1*
G1X4368Y6248D2*
G1X4814Y5802D1*
G1X4361Y6212D2*
G1X4798Y5775D1*
G1X4350Y6181D2*
G1X4785Y5746D1*
G1X3734Y6658D2*
G1X4116Y7040D1*
G1X3694Y6660D2*
G1X4074Y7040D1*
G1X3618Y7040D2*
G1X4128Y6530D1*
G1X3576Y7040D2*
G1X4088Y6528D1*
G1X3533Y7040D2*
G1X4052Y6521D1*
G1X3577Y6627D2*
G1X3989Y7040D1*
G1X3923Y6523D2*
G1X3968Y6478D1*
G1X3852Y6212D2*
G1X3897Y6167D1*
G1X3448Y7040D2*
G1X3993Y6495D1*
G1X4385Y5569D2*
G1X4892Y6076D1*
G1X4405Y5547D2*
G1X4881Y6023D1*
G1X4422Y5522D2*
G1X4881Y5980D1*
G1X4335Y6153D2*
G1X4776Y5713D1*
G1X4276Y6085D2*
G1X4784Y5577D1*
G1X4457Y5429D2*
G1X4793Y5765D1*
G1X4460Y5390D2*
G1X4774Y5703D1*
G1X4437Y5494D2*
G1X4887Y5943D1*
G1X4449Y5463D2*
G1X4896Y5911D1*
G1X3732Y6162D2*
G1X4259Y5635D1*
G1X3692Y6160D2*
G1X4212Y5640D1*
G1X3767Y6169D2*
G1X4325Y5612D1*
G1X3643Y6167D2*
G1X4172Y5637D1*
G1X3571Y6196D2*
G1X4138Y5629D1*
G1X4455Y5343D2*
G1X4770Y5657D1*
G1X4434Y5278D2*
G1X4774Y5618D1*
G1X4318Y6128D2*
G1X4770Y5675D1*
G1X4298Y6105D2*
G1X4772Y5632D1*
G1X2491Y5627D2*
G1X3904Y7040D1*
G1X2457Y5635D2*
G1X3862Y7040D1*
G1X2642Y7040D2*
G1X4079Y5603D1*
G1X2419Y5640D2*
G1X3819Y7040D1*
G1X2375Y5637D2*
G1X3777Y7040D1*
G1X3287Y5616D2*
G1X3880Y6210D1*
G1X3406Y7040D2*
G1X3813Y6633D1*
G1X3314Y5601D2*
G1X3891Y6179D1*
G1X3256Y5628D2*
G1X3817Y6189D1*
G1X2685Y7040D2*
G1X4107Y5618D1*
G1X3363Y7040D2*
G1X3748Y6655D1*
G1X3321Y7040D2*
G1X3701Y6660D1*
G1X3109Y7040D2*
G1X3544Y6605D1*
G1X2316Y5622D2*
G1X3735Y7040D1*
G1X2084Y5601D2*
G1X3522Y7040D1*
G1X3183Y5640D2*
G1X3703Y6160D1*
G1X3222Y5636D2*
G1X3751Y6165D1*
G1X3137Y5636D2*
G1X3663Y6163D1*
G1X3075Y5617D2*
G1X3629Y6170D1*
G1X2600Y7040D2*
G1X4054Y5586D1*
G1X2557Y7040D2*
G1X4032Y5565D1*
G1X3411Y5486D2*
G1X3991Y6066D1*
G1X2515Y7040D2*
G1X4012Y5543D1*
G1X2430Y7040D2*
G1X3981Y5489D1*
G1X3430Y5377D2*
G1X4085Y6033D1*
G1X3428Y5419D2*
G1X4050Y6040D1*
G1X3422Y5327D2*
G1X4125Y6030D1*
G1X3422Y5454D2*
G1X4019Y6051D1*
G1X3387Y5250D2*
G1X4173Y6036D1*
G1X2388Y7040D2*
G1X3969Y5458D1*
G1X2659Y5371D2*
G1X3523Y6234D1*
G1X2650Y5319D2*
G1X3545Y6214D1*
G1X2150Y5540D2*
G1X3650Y7040D1*
G1X2167Y5515D2*
G1X3692Y7040D1*
G1X3380Y5540D2*
G1X3943Y6103D1*
G1X3397Y5514D2*
G1X3966Y6083D1*
G1X3339Y5583D2*
G1X3906Y6151D1*
G1X3361Y5563D2*
G1X3923Y6126D1*
G1X2897Y7040D2*
G1X3459Y6477D1*
G1X2854Y7040D2*
G1X3452Y6442D1*
G1X2812Y7040D2*
G1X3450Y6402D1*
G1X2769Y7040D2*
G1X3457Y6353D1*
G1X1992Y5636D2*
G1X3395Y7040D1*
G1X3066Y7040D2*
G1X3521Y6585D1*
G1X3024Y7040D2*
G1X3502Y6562D1*
G1X2982Y7040D2*
G1X3485Y6537D1*
G1X2939Y7040D2*
G1X3470Y6509D1*
G1X2727Y7040D2*
G1X3486Y6281D1*
G1X1751Y7040D2*
G1X3153Y5639D1*
G1X1651Y5635D2*
G1X3056Y7040D1*
G1X1709Y7040D2*
G1X3117Y5632D1*
G1X1613Y5640D2*
G1X3013Y7040D1*
G1X1569Y5638D2*
G1X2971Y7040D1*
G1X1953Y5640D2*
G1X3353Y7040D1*
G1X1907Y5636D2*
G1X3310Y7040D1*
G1X1907Y5636D2*
G1X3310Y7040D1*
G1X1794Y7040D2*
G1X3194Y5640D1*
G1X1836Y7040D2*
G1X3245Y5632D1*
G1X1713Y5613D2*
G1X3141Y7040D1*
G1X1684Y5626D2*
G1X3098Y7040D1*
G1X1740Y5597D2*
G1X3183Y7040D1*
G1X1666Y7040D2*
G1X3085Y5621D1*
G1X1624Y7040D2*
G1X3057Y5607D1*
G1X2056Y5616D2*
G1X3480Y7040D1*
G1X2026Y5628D2*
G1X3438Y7040D1*
G1X1879Y7040D2*
G1X3325Y5594D1*
G1X1845Y5617D2*
G1X3268Y7040D1*
G1X1764Y5579D2*
G1X3226Y7040D1*
G1X1412Y7040D2*
G1X2954Y5498D1*
G1X1513Y5624D2*
G1X2929Y7040D1*
G1X1369Y7040D2*
G1X2942Y5467D1*
G1X1327Y7040D2*
G1X2934Y5433D1*
G1X1285Y7040D2*
G1X2930Y5395D1*
G1X1582Y7040D2*
G1X3031Y5591D1*
G1X1539Y7040D2*
G1X3008Y5571D1*
G1X1497Y7040D2*
G1X2987Y5549D1*
G1X1454Y7040D2*
G1X2969Y5525D1*
G1X1092Y6985D2*
G1X1147Y7040D1*
G1X1076Y7012D2*
G1X1104Y7040D1*
G1X310Y7040D2*
G1X687Y7040D1*
G1X1120Y6886D2*
G1X1274Y7040D1*
G1X1114Y6923D2*
G1X1231Y7040D1*
G1X1118Y6842D2*
G1X1316Y7040D1*
G1X1105Y6956D2*
G1X1189Y7040D1*
G1X310Y5822D2*
G1X1528Y7040D1*
G1X310Y6840D2*
G1X510Y7040D1*
G1X310Y6882D2*
G1X468Y7040D1*
G1X310Y6797D2*
G1X553Y7040D1*
G1X310Y7009D2*
G1X341Y7040D1*
G1X310Y6967D2*
G1X383Y7040D1*
G1X606Y7040D2*
G1X652Y6993D1*
G1X563Y7040D2*
G1X639Y6965D1*
G1X351Y7040D2*
G1X667Y6724D1*
G1X310Y6670D2*
G1X680Y7040D1*
G1X310Y5270D2*
G1X2080Y7040D1*
G1X310Y5312D2*
G1X2038Y7040D1*
G1X618Y5239D2*
G1X2419Y7040D1*
G1X310Y5397D2*
G1X1953Y7040D1*
G1X310Y5355D2*
G1X1995Y7040D1*
G1X1242Y7040D2*
G1X2933Y5349D1*
G1X1072Y7040D2*
G1X2483Y5629D1*
G1X1200Y7040D2*
G1X2952Y5288D1*
G1X661Y5239D2*
G1X2462Y7040D1*
G1X698Y5233D2*
G1X2504Y7040D1*
G1X310Y5652D2*
G1X1698Y7040D1*
G1X310Y5694D2*
G1X1656Y7040D1*
G1X310Y5609D2*
G1X1741Y7040D1*
G1X310Y5779D2*
G1X1571Y7040D1*
G1X310Y5737D2*
G1X1613Y7040D1*
G1X310Y5482D2*
G1X1868Y7040D1*
G1X310Y5440D2*
G1X1910Y7040D1*
G1X310Y5567D2*
G1X1783Y7040D1*
G1X310Y5525D2*
G1X1825Y7040D1*
G1X1117Y6911D2*
G1X2389Y5639D1*
G1X1120Y6865D2*
G1X2352Y5633D1*
G1X1116Y6827D2*
G1X2320Y5623D1*
G1X1098Y6972D2*
G1X2431Y5639D1*
G1X1108Y6793D2*
G1X2291Y5610D1*
G1X965Y6639D2*
G1X1964Y5640D1*
G1X933Y6628D2*
G1X1922Y5638D1*
G1X993Y6652D2*
G1X2014Y5632D1*
G1X897Y6621D2*
G1X1887Y5632D1*
G1X856Y6620D2*
G1X1855Y5621D1*
G1X521Y7040D2*
G1X628Y6933D1*
G1X478Y7040D2*
G1X621Y6897D1*
G1X1106Y6787D2*
G1X1359Y7040D1*
G1X436Y7040D2*
G1X620Y6856D1*
G1X394Y7040D2*
G1X629Y6805D1*
G1X310Y6500D2*
G1X626Y6816D1*
G1X310Y6827D2*
G1X1512Y5624D1*
G1X310Y6543D2*
G1X621Y6853D1*
G1X310Y6869D2*
G1X1545Y5634D1*
G1X2572Y5580D2*
G1X3456Y6464D1*
G1X2594Y5560D2*
G1X3450Y6416D1*
G1X2613Y5536D2*
G1X3452Y6376D1*
G1X2548Y5599D2*
G1X3483Y6533D1*
G1X1096Y6762D2*
G1X2265Y5593D1*
G1X2653Y5449D2*
G1X3485Y6282D1*
G1X2643Y5481D2*
G1X3471Y6310D1*
G1X2659Y5413D2*
G1X3503Y6256D1*
G1X2629Y5510D2*
G1X3460Y6341D1*
G1X1080Y6735D2*
G1X2241Y5574D1*
G1X1063Y6711D2*
G1X2220Y5553D1*
G1X1042Y6689D2*
G1X2202Y5529D1*
G1X1019Y6669D2*
G1X2093Y5595D1*
G1X724Y6667D2*
G1X1801Y5591D1*
G1X2155Y5533D2*
G1X2186Y5502D1*
G1X2158Y5251D2*
G1X2186Y5279D1*
G1X805Y6629D2*
G1X1826Y5607D1*
G1X310Y6246D2*
G1X728Y6664D1*
G1X310Y6288D2*
G1X704Y6683D1*
G1X310Y6203D2*
G1X755Y6648D1*
G1X310Y5949D2*
G1X1401Y7040D1*
G1X310Y5906D2*
G1X1444Y7040D1*
G1X310Y6076D2*
G1X854Y6620D1*
G1X310Y6119D2*
G1X817Y6626D1*
G1X310Y6034D2*
G1X898Y6622D1*
G1X310Y6161D2*
G1X784Y6635D1*
G1X310Y5991D2*
G1X953Y6634D1*
G1X310Y6628D2*
G1X634Y6951D1*
G1X310Y6925D2*
G1X425Y7040D1*
G1X310Y6585D2*
G1X621Y6897D1*
G1X310Y6755D2*
G1X595Y7040D1*
G1X310Y6712D2*
G1X638Y7040D1*
G1X310Y6373D2*
G1X665Y6728D1*
G1X310Y6331D2*
G1X683Y6704D1*
G1X310Y6458D2*
G1X635Y6783D1*
G1X310Y6415D2*
G1X649Y6754D1*
G1X310Y6954D2*
G1X1625Y5639D1*
G1X310Y6911D2*
G1X1582Y5639D1*
G1X310Y6996D2*
G1X1679Y5627D1*
G1X310Y5864D2*
G1X1486Y7040D1*
G1X310Y7039D2*
G1X1778Y5571D1*
G1X310Y6699D2*
G1X1433Y5576D1*
G1X310Y6657D2*
G1X1412Y5555D1*
G1X310Y6614D2*
G1X1394Y5531D1*
G1X310Y6784D2*
G1X1483Y5611D1*
G1X310Y6742D2*
G1X1457Y5595D1*
G1X310Y6487D2*
G1X1355Y5442D1*
G1X310Y6445D2*
G1X1350Y5404D1*
G1X310Y6402D2*
G1X1352Y5361D1*
G1X310Y6572D2*
G1X1378Y5504D1*
G1X310Y6530D2*
G1X1365Y5475D1*
G1X310Y5554D2*
G1X624Y5240D1*
G1X310Y5511D2*
G1X587Y5234D1*
G1X310Y6360D2*
G1X1365Y5305D1*
G1X310Y5596D2*
G1X668Y5238D1*
G1X4882Y4284D2*
G1X6683Y6086D1*
G1X4840Y4285D2*
G1X6666Y6111D1*
G1X4796Y4283D2*
G1X6652Y6139D1*
G1X4466Y7040D2*
G1X6274Y5233D1*
G1X4428Y4170D2*
G1X6273Y6014D1*
G1X4747Y4276D2*
G1X6483Y6012D1*
G1X4692Y4264D2*
G1X6422Y5993D1*
G1X4629Y4243D2*
G1X6376Y5990D1*
G1X4547Y4204D2*
G1X6337Y5994D1*
G1X4471Y4170D2*
G1X6303Y6002D1*
G1X4301Y4170D2*
G1X6199Y6068D1*
G1X4259Y4170D2*
G1X6179Y6091D1*
G1X4344Y4170D2*
G1X6221Y6047D1*
G1X4224Y6053D2*
G1X6106Y4170D1*
G1X4251Y6067D2*
G1X6149Y4170D1*
G1X4432Y5504D2*
G1X5767Y4170D1*
G1X4455Y5439D2*
G1X5724Y4170D1*
G1X4460Y5392D2*
G1X5682Y4170D1*
G1X4386Y4170D2*
G1X6245Y6029D1*
G1X4004Y4170D2*
G1X6138Y6304D1*
G1X4047Y4170D2*
G1X6130Y6254D1*
G1X4089Y4170D2*
G1X6132Y6213D1*
G1X3919Y4170D2*
G1X6789Y7040D1*
G1X3962Y4170D2*
G1X6175Y6384D1*
G1X4174Y4170D2*
G1X6149Y6145D1*
G1X4193Y6041D2*
G1X6064Y4170D1*
G1X4216Y4170D2*
G1X6163Y6116D1*
G1X4131Y4170D2*
G1X6138Y6177D1*
G1X4158Y6033D2*
G1X6021Y4170D1*
G1X4072Y6035D2*
G1X5936Y4170D1*
G1X4007Y6057D2*
G1X5894Y4170D1*
G1X4119Y6030D2*
G1X5979Y4170D1*
G1X3799Y6180D2*
G1X5809Y4170D1*
G1X3827Y6195D2*
G1X5852Y4170D1*
G1X3834Y4170D2*
G1X5082Y5418D1*
G1X3877Y4170D2*
G1X5159Y5452D1*
G1X3750Y4170D2*
G1X4991Y5412D1*
G1X3792Y4170D2*
G1X5032Y5410D1*
G1X2133Y7040D2*
G1X4889Y4284D1*
G1X2091Y7040D2*
G1X4846Y4285D1*
G1X2175Y7040D2*
G1X4937Y4279D1*
G1X2048Y7040D2*
G1X4805Y4283D1*
G1X2006Y7040D2*
G1X4767Y4279D1*
G1X3665Y4170D2*
G1X4924Y5429D1*
G1X3622Y4170D2*
G1X4896Y5443D1*
G1X3707Y4170D2*
G1X4956Y5418D1*
G1X3368Y4170D2*
G1X4782Y5584D1*
G1X3410Y4170D2*
G1X4794Y5554D1*
G1X2591Y5218D2*
G1X3570Y6197D1*
G1X3384Y5535D2*
G1X4663Y4255D1*
G1X1963Y7040D2*
G1X4730Y4273D1*
G1X1921Y7040D2*
G1X4696Y4265D1*
G1X3422Y5455D2*
G1X4632Y4244D1*
G1X3430Y5404D2*
G1X4602Y4232D1*
G1X2689Y4170D2*
G1X3967Y5448D1*
G1X2731Y4170D2*
G1X3960Y5399D1*
G1X2562Y4170D2*
G1X5432Y7040D1*
G1X2519Y4170D2*
G1X5389Y7040D1*
G1X2604Y4170D2*
G1X5474Y7040D1*
G1X2434Y4170D2*
G1X5304Y7040D1*
G1X2477Y4170D2*
G1X5347Y7040D1*
G1X3537Y4170D2*
G1X4847Y5480D1*
G1X3495Y4170D2*
G1X4827Y5502D1*
G1X3580Y4170D2*
G1X4870Y5460D1*
G1X2392Y4170D2*
G1X5262Y7040D1*
G1X3453Y4170D2*
G1X4809Y5526D1*
G1X2350Y4170D2*
G1X4240Y6061D1*
G1X1586Y4170D2*
G1X3598Y6182D1*
G1X2647Y4170D2*
G1X3996Y5520D1*
G1X1115Y7040D2*
G1X3985Y4170D1*
G1X1157Y7040D2*
G1X4027Y4170D1*
G1X2659Y5368D2*
G1X3858Y4170D1*
G1X2659Y5411D2*
G1X3900Y4170D1*
G1X1628Y4170D2*
G1X2953Y5495D1*
G1X2649Y5463D2*
G1X3942Y4170D1*
G1X4449Y5318D2*
G1X5597Y4170D1*
G1X4438Y5287D2*
G1X5555Y4170D1*
G1X4457Y5352D2*
G1X5639Y4170D1*
G1X4406Y5234D2*
G1X5470Y4170D1*
G1X4423Y5259D2*
G1X5512Y4170D1*
G1X4363Y5192D2*
G1X5385Y4170D1*
G1X4338Y5175D2*
G1X5342Y4170D1*
G1X4385Y5212D2*
G1X5427Y4170D1*
G1X4278Y5149D2*
G1X5258Y4170D1*
G1X4309Y5161D2*
G1X5300Y4170D1*
G1X3429Y5363D2*
G1X4573Y4218D1*
G1X3422Y5327D2*
G1X4546Y4203D1*
G1X3411Y5295D2*
G1X4520Y4187D1*
G1X3381Y5241D2*
G1X4452Y4170D1*
G1X3397Y5267D2*
G1X4494Y4170D1*
G1X4243Y5142D2*
G1X5215Y4170D1*
G1X4203Y5140D2*
G1X5123Y4220D1*
G1X4084Y5174D2*
G1X4989Y4269D1*
G1X4154Y5146D2*
G1X5049Y4251D1*
G1X3339Y5197D2*
G1X4367Y4170D1*
G1X3325Y4170D2*
G1X4322Y5166D1*
G1X3361Y5218D2*
G1X4409Y4170D1*
G1X3288Y5164D2*
G1X4282Y4170D1*
G1X3315Y5179D2*
G1X4324Y4170D1*
G1X3257Y5152D2*
G1X4239Y4170D1*
G1X3240Y4170D2*
G1X4210Y5140D1*
G1X3283Y4170D2*
G1X4257Y5145D1*
G1X3198Y4170D2*
G1X4171Y5143D1*
G1X3223Y5144D2*
G1X4197Y4170D1*
G1X3071Y4170D2*
G1X4078Y5178D1*
G1X3028Y4170D2*
G1X4053Y5195D1*
G1X3113Y4170D2*
G1X4106Y5163D1*
G1X2943Y4170D2*
G1X4012Y5238D1*
G1X2986Y4170D2*
G1X4031Y5215D1*
G1X3156Y4170D2*
G1X4137Y5151D1*
G1X3185Y5140D2*
G1X4155Y4170D1*
G1X3078Y5162D2*
G1X4070Y4170D1*
G1X3139Y5143D2*
G1X4112Y4170D1*
G1X2150Y5241D2*
G1X3221Y4170D1*
G1X2131Y5218D2*
G1X3179Y4170D1*
G1X2167Y5266D2*
G1X3264Y4170D1*
G1X2085Y5179D2*
G1X3094Y4170D1*
G1X2109Y5197D2*
G1X3136Y4170D1*
G1X2180Y4170D2*
G1X3151Y5142D1*
G1X2137Y4170D2*
G1X3116Y5148D1*
G1X2222Y4170D2*
G1X3193Y5140D1*
G1X310Y4170D2*
G1X4495Y4170D1*
G1X2095Y4170D2*
G1X3084Y5159D1*
G1X1968Y4170D2*
G1X3007Y5209D1*
G1X1925Y4170D2*
G1X2987Y5231D1*
G1X2010Y4170D2*
G1X3030Y5190D1*
G1X1840Y4170D2*
G1X2954Y5283D1*
G1X1883Y4170D2*
G1X2969Y5256D1*
G1X2053Y4170D2*
G1X3056Y5173D1*
G1X2057Y5164D2*
G1X3051Y4170D1*
G1X1993Y5144D2*
G1X2967Y4170D1*
G1X2027Y5152D2*
G1X3009Y4170D1*
G1X2816Y4170D2*
G1X3969Y5323D1*
G1X2774Y4170D2*
G1X3962Y5358D1*
G1X2859Y4170D2*
G1X3980Y5292D1*
G1X2643Y5300D2*
G1X3773Y4170D1*
G1X2653Y5332D2*
G1X3815Y4170D1*
G1X2630Y5271D2*
G1X3730Y4170D1*
G1X2613Y5245D2*
G1X3688Y4170D1*
G1X2901Y4170D2*
G1X3994Y5263D1*
G1X2573Y5200D2*
G1X3603Y4170D1*
G1X2594Y5221D2*
G1X3645Y4170D1*
G1X2522Y5166D2*
G1X3518Y4170D1*
G1X2492Y5154D2*
G1X3476Y4170D1*
G1X2549Y5182D2*
G1X3561Y4170D1*
G1X2307Y4170D2*
G1X3320Y5183D1*
G1X2319Y5157D2*
G1X3306Y4170D1*
G1X2421Y5140D2*
G1X3391Y4170D1*
G1X2459Y5145D2*
G1X3433Y4170D1*
G1X2265Y4170D2*
G1X3243Y5148D1*
G1X2376Y5142D2*
G1X3348Y4170D1*
G1X876Y5072D2*
G1X2844Y7040D1*
G1X863Y5102D2*
G1X2801Y7040D1*
G1X885Y5039D2*
G1X2886Y7040D1*
G1X809Y5175D2*
G1X2674Y7040D1*
G1X848Y5129D2*
G1X2759Y7040D1*
G1X1741Y5184D2*
G1X2754Y4170D1*
G1X1714Y5168D2*
G1X2712Y4170D1*
G1X829Y5153D2*
G1X2716Y7040D1*
G1X1713Y4170D2*
G1X2930Y5387D1*
G1X785Y5194D2*
G1X2632Y7040D1*
G1X759Y5210D2*
G1X2589Y7040D1*
G1X566Y5229D2*
G1X2377Y7040D1*
G1X730Y5223D2*
G1X2547Y7040D1*
G1X890Y5001D2*
G1X1366Y5477D1*
G1X1543Y4170D2*
G1X2582Y5209D1*
G1X888Y4957D2*
G1X1352Y5421D1*
G1X873Y4900D2*
G1X1350Y5377D1*
G1X1671Y4170D2*
G1X2934Y5433D1*
G1X1756Y4170D2*
G1X2934Y5348D1*
G1X1798Y4170D2*
G1X2942Y5314D1*
G1X1119Y4170D2*
G1X2201Y5252D1*
G1X1162Y4170D2*
G1X2220Y5228D1*
G1X1765Y5202D2*
G1X2797Y4170D1*
G1X1289Y4170D2*
G1X2290Y5171D1*
G1X1847Y5162D2*
G1X2839Y4170D1*
G1X1204Y4170D2*
G1X2240Y5206D1*
G1X1246Y4170D2*
G1X2264Y5187D1*
G1X737Y4170D2*
G1X1777Y5210D1*
G1X440Y4170D2*
G1X1456Y5186D1*
G1X780Y4170D2*
G1X1800Y5190D1*
G1X398Y4170D2*
G1X1432Y5204D1*
G1X440Y4170D2*
G1X1456Y5186D1*
G1X865Y4170D2*
G1X1854Y5159D1*
G1X1077Y4170D2*
G1X2089Y5182D1*
G1X483Y4170D2*
G1X1482Y5169D1*
G1X822Y4170D2*
G1X1825Y5173D1*
G1X310Y5058D2*
G1X2292Y7040D1*
G1X310Y5100D2*
G1X2250Y7040D1*
G1X310Y5015D2*
G1X2335Y7040D1*
G1X310Y5185D2*
G1X2165Y7040D1*
G1X310Y5143D2*
G1X2207Y7040D1*
G1X310Y4252D2*
G1X1364Y5306D1*
G1X310Y4209D2*
G1X1377Y5277D1*
G1X310Y5228D2*
G1X2122Y7040D1*
G1X310Y4294D2*
G1X1355Y5339D1*
G1X310Y5427D2*
G1X525Y5212D1*
G1X310Y5384D2*
G1X498Y5196D1*
G1X310Y5342D2*
G1X474Y5177D1*
G1X310Y5639D2*
G1X723Y5226D1*
G1X310Y5469D2*
G1X554Y5225D1*
G1X310Y5214D2*
G1X419Y5106D1*
G1X310Y5172D2*
G1X405Y5077D1*
G1X310Y5299D2*
G1X453Y5156D1*
G1X310Y5257D2*
G1X434Y5132D1*
G1X310Y6233D2*
G1X2373Y4170D1*
G1X310Y6190D2*
G1X2330Y4170D1*
G1X310Y6148D2*
G1X2288Y4170D1*
G1X310Y6318D2*
G1X2458Y4170D1*
G1X310Y6275D2*
G1X2415Y4170D1*
G1X310Y6021D2*
G1X2161Y4170D1*
G1X310Y5978D2*
G1X2118Y4170D1*
G1X310Y5936D2*
G1X2076Y4170D1*
G1X310Y6105D2*
G1X2245Y4170D1*
G1X310Y6063D2*
G1X2203Y4170D1*
G1X310Y5851D2*
G1X1991Y4170D1*
G1X310Y5808D2*
G1X1948Y4170D1*
G1X310Y5766D2*
G1X1906Y4170D1*
G1X310Y4170D2*
G1X310Y7040D1*
G1X310Y5893D2*
G1X2033Y4170D1*
G1X313Y4170D2*
G1X1393Y5250D1*
G1X356Y4170D2*
G1X1411Y5226D1*
G1X310Y5724D2*
G1X1864Y4170D1*
G1X310Y5681D2*
G1X1821Y4170D1*
G1X652Y4170D2*
G1X1624Y5141D1*
G1X610Y4170D2*
G1X1581Y5141D1*
G1X695Y4170D2*
G1X1677Y5152D1*
G1X525Y4170D2*
G1X1511Y5156D1*
G1X568Y4170D2*
G1X1544Y5146D1*
G1X875Y4904D2*
G1X1609Y4170D1*
G1X862Y4875D2*
G1X1567Y4170D1*
G1X876Y5073D2*
G1X1779Y4170D1*
G1X827Y4824D2*
G1X1482Y4170D1*
G1X846Y4848D2*
G1X1524Y4170D1*
G1X782Y4785D2*
G1X1397Y4170D1*
G1X756Y4769D2*
G1X1354Y4170D1*
G1X806Y4803D2*
G1X1439Y4170D1*
G1X310Y4888D2*
G1X391Y4969D1*
G1X727Y4755D2*
G1X1312Y4170D1*
G1X657Y4741D2*
G1X1227Y4170D1*
G1X694Y4746D2*
G1X1270Y4170D1*
G1X559Y4754D2*
G1X1142Y4170D1*
G1X613Y4741D2*
G1X1185Y4170D1*
G1X1685Y5155D2*
G1X2670Y4170D1*
G1X1652Y5145D2*
G1X2627Y4170D1*
G1X1908Y5144D2*
G1X2882Y4170D1*
G1X1501Y4170D2*
G1X2481Y5150D1*
G1X1515Y5155D2*
G1X2500Y4170D1*
G1X1614Y5140D2*
G1X2585Y4170D1*
G1X1571Y5142D2*
G1X2542Y4170D1*
G1X1954Y5140D2*
G1X2924Y4170D1*
G1X1416Y4170D2*
G1X2387Y5141D1*
G1X1459Y4170D2*
G1X2429Y5141D1*
G1X1331Y4170D2*
G1X2319Y5157D1*
G1X1034Y4170D2*
G1X2012Y5148D1*
G1X1374Y4170D2*
G1X2351Y5147D1*
G1X907Y4170D2*
G1X1886Y5148D1*
G1X949Y4170D2*
G1X1921Y5142D1*
G1X890Y4974D2*
G1X1694Y4170D1*
G1X992Y4170D2*
G1X1962Y5140D1*
G1X884Y4937D2*
G1X1651Y4170D1*
G1X888Y5018D2*
G1X1736Y4170D1*
G1X310Y4591D2*
G1X501Y4782D1*
G1X310Y4634D2*
G1X477Y4801D1*
G1X310Y4549D2*
G1X528Y4767D1*
G1X310Y4718D2*
G1X436Y4845D1*
G1X310Y4676D2*
G1X455Y4821D1*
G1X310Y4421D2*
G1X629Y4740D1*
G1X310Y4464D2*
G1X591Y4745D1*
G1X310Y4379D2*
G1X673Y4742D1*
G1X310Y4506D2*
G1X558Y4754D1*
G1X310Y4337D2*
G1X730Y4757D1*
G1X310Y4973D2*
G1X401Y5064D1*
G1X310Y5045D2*
G1X391Y4963D1*
G1X310Y4931D2*
G1X391Y5012D1*
G1X310Y5130D2*
G1X396Y5044D1*
G1X310Y5087D2*
G1X391Y5007D1*
G1X310Y4803D2*
G1X407Y4900D1*
G1X310Y4761D2*
G1X420Y4871D1*
G1X310Y5002D2*
G1X404Y4909D1*
G1X310Y4846D2*
G1X397Y4932D1*
G1X310Y4875D2*
G1X1015Y4170D1*
G1X310Y4833D2*
G1X973Y4170D1*
G1X310Y4790D2*
G1X930Y4170D1*
G1X310Y4960D2*
G1X1100Y4170D1*
G1X310Y4917D2*
G1X1057Y4170D1*
G1X310Y4663D2*
G1X803Y4170D1*
G1X310Y4620D2*
G1X760Y4170D1*
G1X310Y4578D2*
G1X718Y4170D1*
G1X310Y4748D2*
G1X888Y4170D1*
G1X310Y4705D2*
G1X845Y4170D1*
G1X310Y4451D2*
G1X591Y4170D1*
G1X310Y4408D2*
G1X548Y4170D1*
G1X310Y4366D2*
G1X506Y4170D1*
G1X310Y4536D2*
G1X676Y4170D1*
G1X310Y4493D2*
G1X633Y4170D1*
G1X310Y4239D2*
G1X379Y4170D1*
G1X310Y4196D2*
G1X336Y4170D1*
G1X310Y4323D2*
G1X463Y4170D1*
G1X310Y4281D2*
G1X421Y4170D1*
G1X16760Y10550D2*
G1X16760Y11020D1*
G1X16760Y10550D2*
G1X16920Y10390D1*
G1X16920Y9210D2*
G1X16920Y10390D1*
G1X16400Y8690D2*
G1X16920Y9210D1*
G1X10770Y17460D2*
G1X10770Y17680D1*
G1X10590Y17280D2*
G1X10770Y17460D1*
G1X10590Y13940D2*
G1X10590Y17280D1*
G1X10590Y13940D2*
G1X13140Y11390D1*
G1X12900Y13520D2*
G1X13390Y13520D1*
G1X11120Y15300D2*
G1X12900Y13520D1*
G1X11120Y15300D2*
G1X11120Y17640D1*
G1X3220Y10990D2*
G1X3870Y10340D1*
G1X3220Y10990D2*
G1X3220Y14680D1*
G1X16730Y5520D2*
G1X17030Y5820D1*
G1X17620Y7120D2*
G1X18000Y7120D1*
G1X17520Y7220D2*
G1X17620Y7120D1*
G1X17030Y7220D2*
G1X17520Y7220D1*
G1X16260Y6450D2*
G1X17030Y7220D1*
G1X11010Y11200D2*
G1X12180Y11200D1*
G1X15760Y10580D2*
G1X15760Y11090D1*
G1X15760Y10580D2*
G1X15980Y10360D1*
G1X15980Y9780D2*
G1X15980Y10360D1*
G1X10410Y13760D2*
G1X13140Y11030D1*
G1X13140Y10800D2*
G1X13140Y11030D1*
G1X13140Y13160D2*
G1X13480Y12820D1*
G1X13480Y9780D2*
G1X13480Y12820D1*
G1X8880Y12190D2*
G1X9200Y12510D1*
G1X7390Y13080D2*
G1X7960Y12510D1*
G1X2100Y14740D2*
G1X3220Y15860D1*
G1X1660Y14740D2*
G1X2100Y14740D1*
G1X1000Y10970D2*
G1X1000Y14450D1*
G1X2210Y15660D1*
G1X2640Y16090D2*
G1X2640Y17310D1*
G1X2210Y15660D2*
G1X2640Y16090D1*
G1X960Y14760D2*
G1X960Y15070D1*
G1X1940Y16050D1*
G1X2260Y16050D1*
G1X16260Y5620D2*
G1X16260Y6450D1*
G1X16990Y4760D2*
G1X17130Y4900D1*
G1X18000Y5770D2*
G1X18000Y6100D1*
G1X17130Y4900D2*
G1X18000Y5770D1*
G1X16650Y4760D2*
G1X16990Y4760D1*
G1X17450Y4520D2*
G1X18000Y5070D1*
G1X16050Y4520D2*
G1X17450Y4520D1*
G1X10410Y13760D2*
G1X10410Y17630D1*
G1X3520Y14980D2*
G1X3520Y17070D1*
G1X3220Y14680D2*
G1X3520Y14980D1*
G1X16730Y5150D2*
G1X16730Y5520D1*
G1X4490Y14160D2*
G1X4490Y18690D1*
G1X4240Y13910D2*
G1X4490Y14160D1*
G1X4300Y18880D2*
G1X4490Y18690D1*
G1X1680Y17740D2*
G1X2210Y17740D1*
G1X1680Y18240D2*
G1X2350Y18240D1*
G1X3520Y17070D1*
G1X4100Y13140D2*
G1X4100Y17920D1*
G1X4240Y13290D2*
G1X4240Y13910D1*
G1X4100Y13140D2*
G1X5260Y11980D1*
G1X4240Y13290D2*
G1X5340Y12190D1*
G1X5260Y11980D2*
G1X5940Y11980D1*
G1X6880Y11040D1*
G1X5340Y12190D2*
G1X8880Y12190D1*
G1X7070Y24400D2*
G1X7460Y24400D1*
G1X6726Y24400D2*
G1X7070Y24400D1*
G1X4010Y26526D2*
G1X4010Y26800D1*
G1X4010Y26526D2*
G1X6136Y24400D1*
G1X9820Y24400D2*
G1X10590Y24400D1*
G1X9430Y24400D2*
G1X9820Y24400D1*
G1X9040Y24400D2*
G1X9430Y24400D1*
G1X8640Y24400D2*
G1X9040Y24400D1*
G1X8250Y24400D2*
G1X8640Y24400D1*
G1X7860Y24400D2*
G1X8250Y24400D1*
G1X5930Y26380D2*
G1X5930Y26800D1*
G1X4970Y26410D2*
G1X4970Y26800D1*
G1X1250Y22120D2*
G1X1530Y22400D1*
G1X1250Y21810D2*
G1X1250Y22120D1*
G1X1250Y21810D2*
G1X1600Y21460D1*
G1X3220Y21740D2*
G1X3590Y22110D1*
G1X3590Y22750D1*
G1X4760Y23920D1*
G1X10090Y23920D1*
G1X6136Y24400D2*
G1X6726Y24400D1*
G1X9240Y25610D2*
G1X10430Y26800D1*
G1X10730Y26800D1*
G1X9240Y25360D2*
G1X9240Y25610D1*
G1X9470Y26800D2*
G1X9770Y26800D1*
G1X8840Y25360D2*
G1X8840Y26170D1*
G1X9470Y26800D1*
G1X8450Y25360D2*
G1X8450Y26010D1*
G1X8810Y26370D1*
G1X8810Y26800D1*
G1X7850Y26800D2*
G1X8050Y26600D1*
G1X8050Y25360D2*
G1X8050Y26600D1*
G1X6890Y26480D2*
G1X6890Y26800D1*
G1X6890Y26480D2*
G1X7660Y25710D1*
G1X7660Y25360D2*
G1X7660Y25710D1*
G1X4970Y26410D2*
G1X6020Y25360D1*
G1X6870Y25360D1*
G1X5930Y26380D2*
G1X6560Y25750D1*
G1X6870Y25750D1*
G1X7260Y25360D1*
G1X9630Y25360D2*
G1X9880Y25360D1*
G1X11320Y26800D1*
G1X11690Y26800D1*
G1X2210Y17740D2*
G1X2640Y17310D1*
G1X8150Y21080D2*
G1X8370Y20860D1*
G1X8210Y17520D2*
G1X8500Y17230D1*
G1X8050Y17160D2*
G1X8050Y19920D1*
G1X7540Y16650D2*
G1X8050Y17160D1*
G1X8840Y20880D2*
G1X8850Y20870D1*
G1X8210Y17520D2*
G1X8210Y17830D1*
G1X8370Y17990D1*
G1X8370Y20860D1*
G1X7540Y17040D2*
G1X7820Y17320D1*
G1X8600Y18080D2*
G1X8600Y20640D1*
G1X8840Y20880D1*
G1X6860Y20280D2*
G1X7460Y20880D1*
G1X6860Y18880D2*
G1X6860Y20280D1*
G1X7600Y18470D2*
G1X7600Y19580D1*
G1X6660Y17920D2*
G1X7480Y18740D1*
G1X7480Y19260D1*
G1X7050Y17920D2*
G1X7600Y18470D1*
G1X7260Y19920D2*
G1X7600Y19580D1*
G1X7030Y19710D2*
G1X7030Y20050D1*
G1X7030Y19710D2*
G1X7480Y19260D1*
G1X7030Y20050D2*
G1X7860Y20880D1*
G1X8500Y16450D2*
G1X9080Y17030D1*
G1X9080Y20330D1*
G1X9630Y20880D1*
G1X7850Y11520D2*
G1X9580Y11520D1*
G1X7380Y11050D2*
G1X7850Y11520D1*
G1X7820Y17320D2*
G1X7820Y18090D1*
G1X8500Y16850D2*
G1X8830Y17180D1*
G1X8830Y19880D1*
G1X7390Y13080D2*
G1X7390Y13580D1*
G1X7120Y13930D2*
G1X7280Y14090D1*
G1X7280Y14810D1*
G1X7540Y15070D1*
G1X2010Y13110D2*
G54D63*
G1X2260Y13360D1*
G1X2260Y14480D1*
G1X3230Y22250D2*
G1X3230Y24400D1*
G1X3220Y24410D2*
G1X3230Y24400D1*
G1X980Y23150D2*
G1X980Y23410D1*
G1X980Y23150D2*
G1X1050Y23080D1*
G1X1050Y22780D2*
G1X1050Y23080D1*
G1X1050Y21530D2*
G1X1050Y22780D1*
G1X610Y21090D2*
G1X1050Y21530D1*
G1X3050Y26290D2*
G1X3050Y26800D1*
G1X2190Y25430D2*
G1X3050Y26290D1*
G1X2090Y26540D2*
G1X2090Y26800D1*
G1X980Y25430D2*
G1X2090Y26540D1*
G1X4300Y28460D2*
G54D19*
G1X4760Y28460D1*
G1X5820Y29520D1*
G1X5260Y28460D2*
G1X6020Y29220D1*
G1X6020Y30496D1*
G1X5820Y29520D2*
G1X5820Y30579D1*
G1X6420Y29220D2*
G1X7180Y28460D1*
G1X6220Y28460D2*
G1X6220Y30413D1*
G1X6420Y29220D2*
G1X6420Y30330D1*
G1X5820Y30579D2*
G1X6971Y31730D1*
G1X6020Y30496D2*
G1X7054Y31530D1*
G1X6220Y30413D2*
G1X7137Y31330D1*
G1X6420Y30330D2*
G1X7220Y31130D1*
G1X10260Y31130D1*
G1X7137Y31330D2*
G1X11150Y31330D1*
G1X7054Y31530D2*
G1X12040Y31530D1*
G1X6971Y31730D2*
G1X12930Y31730D1*
G1X10260Y31130D2*
G1X10750Y30640D1*
G1X11150Y31330D2*
G1X11840Y30640D1*
G1X12040Y31530D2*
G1X12930Y30640D1*
G1X12930Y31730D2*
G1X14020Y30640D1*
G1X11980Y28460D2*
G1X13510Y28460D1*
G1X14570Y29520D1*
G1X11320Y28760D2*
G1X12720Y28760D1*
G1X13480Y29520D1*
G1X11830Y28960D2*
G1X12390Y29520D1*
G1X11080Y28960D2*
G1X11830Y28960D1*
G1X10580Y28460D2*
G1X11080Y28960D1*
G1X10060Y28460D2*
G1X10580Y28460D1*
G1X9100Y28460D2*
G1X9630Y28460D1*
G1X9930Y28760D1*
G1X10530Y28760D1*
G1X11290Y29520D1*
G1X8140Y28460D2*
G1X8440Y28760D1*
G1X9450Y28760D1*
G1X10210Y29520D1*
G1X2200Y19460D2*
G1X2200Y21320D1*
G1X1520Y22000D2*
G1X2200Y21320D1*
G1X11020Y28460D2*
G1X11320Y28760D1*
G1X5280Y12580D2*
G54D64*
G1X5480Y12780D1*
G1X17150Y8300D2*
G1X17150Y12570D1*
G1X15980Y7130D2*
G1X17150Y8300D1*
G1X15980Y5150D2*
G1X15980Y7130D1*
G1X13970Y9790D2*
G1X13970Y14730D1*
G1X13970Y9790D2*
G1X13980Y9780D1*
G1X13980Y8690D2*
G1X14800Y7870D1*
G1X13980Y8690D2*
G1X13980Y9780D1*
G1X12190Y14730D2*
G1X13060Y15600D1*
G1X15660Y14060D2*
G1X17150Y12570D1*
G1X15660Y14060D2*
G1X15660Y15080D1*
G1X16630Y19480D2*
G1X17810Y19480D1*
G1X13290Y25580D2*
G1X13290Y27320D1*
G1X13290Y25580D2*
G1X13300Y25570D1*
G1X14820Y21290D2*
G1X14820Y21920D1*
G1X14820Y21290D2*
G1X16630Y19480D1*
G1X4780Y17600D2*
G1X4780Y19080D1*
G1X4780Y17600D2*
G1X5480Y16900D1*
G1X5480Y12780D2*
G1X5480Y15860D1*
G1X5480Y16900D1*
G1X13060Y15600D2*
G1X13060Y15880D1*
G1X13060Y17310D1*
G1X13280Y17530D1*
G1X13280Y19110D1*
G1X11280Y20230D2*
G1X12160Y20230D1*
G1X13280Y19110D1*
G1X10250Y20230D2*
G1X11280Y20230D1*
G1X10080Y20400D2*
G1X10250Y20230D1*
G1X6510Y22540D2*
G54D67*
G1X6710Y22740D1*
G1X3980Y22540D2*
G1X6510Y22540D1*
G1X3980Y21950D2*
G1X6610Y21950D1*
G54D70*
G1X13480Y9780D3*
G1X13980Y9780D3*
G1X14480Y9780D3*
G1X14980Y9780D3*
G1X15480Y9780D3*
G1X15980Y9780D3*
G54D71*
G1X16480Y9780D3*
G54D72*
G1X17430Y1340D3*
G1X17430Y2480D3*
G54D73*
G1X1680Y18240D3*
G1X1680Y17740D3*
G1X1680Y18740D3*
G54D74*
G1X1680Y17240D3*
G54D75*
G1X4850Y3680D3*
G1X4850Y30480D3*
G1X16650Y17480D3*
G54D76*
G1X4190Y30080D3*
G1X17310Y30080D3*
G54D77*
G1X10750Y30640D3*
G1X9660Y30640D3*
G1X8570Y30640D3*
G1X7480Y30640D3*
G1X11840Y30640D3*
G1X12930Y30640D3*
G1X14020Y30640D3*
G1X14570Y29520D3*
G1X13480Y29520D3*
G1X12390Y29520D3*
G1X11290Y29520D3*
G1X10210Y29520D3*
G1X9110Y29520D3*
G1X8020Y29520D3*
G1X6930Y29520D3*
G54D78*
G1X17460Y11980D3*
G1X6600Y13930D3*
G1X930Y29640D3*
G1X1950Y31280D3*
G1X780Y26530D3*
G1X1450Y30620D3*
G1X17880Y15470D3*
G1X14790Y2310D3*
G1X16280Y1840D3*
G1X10080Y13790D3*
G1X10850Y16100D3*
G1X10940Y15000D3*
G1X11210Y12370D3*
G1X3870Y10340D3*
G1X17140Y5390D3*
G1X17320Y7680D3*
G1X12790Y8520D3*
G1X11080Y10480D3*
G1X11880Y11700D3*
G1X11810Y9530D3*
G1X17510Y18360D3*
G1X15950Y23520D3*
G1X17700Y22830D3*
G1X17870Y24460D3*
G1X12060Y25430D3*
G1X12530Y23750D3*
G1X12530Y22480D3*
G1X14240Y22660D3*
G1X13230Y21900D3*
G1X13370Y20890D3*
G1X12310Y21240D3*
G1X17030Y7220D3*
G1X17030Y5820D3*
G1X18400Y31220D3*
G1X12180Y11200D3*
G1X11010Y11200D3*
G1X15760Y11090D3*
G1X10160Y15550D3*
G1X10480Y13000D3*
G1X13140Y10800D3*
G1X13140Y11390D3*
G1X13140Y11980D3*
G1X13970Y14730D3*
G1X13390Y13520D3*
G1X16110Y11020D3*
G1X11870Y13010D3*
G1X12190Y13330D3*
G1X13140Y12570D3*
G1X16760Y11020D3*
G1X14800Y7870D3*
G1X16410Y8070D3*
G1X16400Y8690D3*
G1X14290Y9070D3*
G1X17460Y12570D3*
G1X17460Y11390D3*
G1X13140Y13160D3*
G1X9710Y14290D3*
G1X15140Y20280D3*
G1X12190Y14730D3*
G1X18400Y13340D3*
G1X18400Y14160D3*
G1X5280Y12580D3*
G1X2890Y12020D3*
G1X2150Y11290D3*
G1X2960Y11410D3*
G1X2380Y12450D3*
G1X2210Y15660D3*
G1X2090Y15200D3*
G1X1660Y14740D3*
G1X6710Y22740D3*
G1X10640Y25390D3*
G1X6210Y20480D3*
G1X11950Y16530D3*
G1X12300Y16040D3*
G1X12480Y16520D3*
G1X12270Y17000D3*
G1X11540Y18050D3*
G1X15950Y16830D3*
G1X17860Y14760D3*
G1X13350Y14260D3*
G1X16640Y13660D3*
G1X17840Y9180D3*
G1X17530Y10120D3*
G1X18400Y4340D3*
G1X18400Y4840D3*
G1X18400Y3840D3*
G1X14520Y12030D3*
G1X15130Y14270D3*
G1X18000Y7120D3*
G1X18000Y6100D3*
G1X18000Y5070D3*
G1X2260Y14480D3*
G1X16730Y5150D3*
G1X15440Y27490D3*
G1X17410Y26880D3*
G1X15840Y29200D3*
G1X10220Y33340D3*
G1X17270Y13750D3*
G1X17440Y14340D3*
G1X16550Y11780D3*
G1X14540Y13130D3*
G1X15640Y1360D3*
G1X14506Y5670D3*
G1X14770Y1360D3*
G1X17550Y8310D3*
G1X3735Y13960D3*
G1X5840Y13790D3*
G1X4780Y16180D3*
G1X6390Y16640D3*
G1X7340Y15520D3*
G1X6940Y17400D3*
G1X3740Y17430D3*
G1X6940Y14480D3*
G1X8280Y13620D3*
G1X9360Y15050D3*
G1X6530Y19600D3*
G1X10900Y19120D3*
G1X10629Y20560D3*
G1X8660Y21490D3*
G1X7500Y22750D3*
G1X8280Y23560D3*
G1X9540Y22660D3*
G1X8380Y22660D3*
G1X7270Y21690D3*
G1X9240Y21840D3*
G1X9330Y23560D3*
G1X7230Y23630D3*
G1X6150Y25070D3*
G1X1140Y27430D3*
G1X480Y25210D3*
G1X510Y23080D3*
G1X3900Y25020D3*
G1X4790Y24880D3*
G1X5130Y20470D3*
G1X3690Y19520D3*
G1X2770Y18550D3*
G1X660Y18880D3*
G1X570Y16530D3*
G1X530Y14300D3*
G1X2700Y13210D3*
G1X3660Y12380D3*
G1X610Y12530D3*
G1X4920Y10360D3*
G1X5480Y11020D3*
G1X6390Y11095D3*
G1X7070Y11800D3*
G1X9820Y10630D3*
G1X16870Y3520D3*
G1X17440Y13160D3*
G1X15670Y12520D3*
G1X14000Y7260D3*
G1X16180Y14250D3*
G1X15450Y11480D3*
G1X17460Y10800D3*
G1X14250Y14260D3*
G1X16660Y14980D3*
G1X17880Y16220D3*
G1X13190Y20170D3*
G1X16220Y20710D3*
G1X17770Y17220D3*
G1X14300Y23850D3*
G1X12310Y20620D3*
G1X12530Y21860D3*
G1X12530Y23130D3*
G1X11900Y24820D3*
G1X13300Y23310D3*
G1X17360Y25750D3*
G1X15670Y25770D3*
G1X16490Y27810D3*
G1X14750Y28310D3*
G1X13900Y27620D3*
G1X5020Y29210D3*
G1X2950Y29460D3*
G1X4350Y31300D3*
G1X4500Y33090D3*
G1X7580Y32380D3*
G1X13590Y31830D3*
G1X6480Y33280D3*
G1X11970Y33370D3*
G1X15190Y31410D3*
G1X15720Y32980D3*
G1X18060Y34030D3*
G1X18060Y33270D3*
G1X18070Y32760D3*
G1X18230Y32270D3*
G1X18400Y31720D3*
G1X18400Y30720D3*
G1X18400Y29720D3*
G1X18400Y29220D3*
G1X18400Y28720D3*
G1X18400Y28220D3*
G1X18400Y27720D3*
G1X18400Y27220D3*
G1X18400Y26720D3*
G1X18400Y26220D3*
G1X18400Y25720D3*
G1X18400Y25220D3*
G1X18400Y24720D3*
G1X18400Y24220D3*
G1X18400Y23720D3*
G1X18400Y23220D3*
G1X18400Y22720D3*
G1X18400Y22220D3*
G1X18400Y21720D3*
G1X18400Y21220D3*
G1X18400Y20720D3*
G1X18400Y20220D3*
G1X18400Y19720D3*
G1X18400Y19220D3*
G1X18400Y18720D3*
G1X18400Y18220D3*
G1X18400Y17720D3*
G1X18400Y17220D3*
G1X18400Y16720D3*
G1X15660Y15080D3*
G1X4490Y14160D3*
G1X6850Y13670D3*
G1X7540Y13890D3*
G1X4100Y15070D3*
G1X8200Y5840D3*
G1X5020Y5660D3*
G1X5130Y6000D3*
G1X7380Y6240D3*
G1X6880Y6240D3*
G1X4120Y6280D3*
G1X5880Y6240D3*
G1X4200Y6900D3*
G1X3700Y6410D3*
G1X2930Y5660D3*
G1X870Y6870D3*
G1X1600Y5390D3*
G1X640Y4990D3*
G1X14770Y6340D3*
G1X6840Y5840D3*
G1X10110Y5590D3*
G1X7660Y5190D3*
G1X9380Y6240D3*
G1X8380Y6240D3*
G1X7880Y6240D3*
G1X6510Y5150D3*
G1X6450Y4530D3*
G1X6380Y6240D3*
G1X1400Y10910D3*
G1X1000Y10970D3*
G1X7540Y15070D3*
G1X11120Y17640D3*
G1X7540Y16250D3*
G1X8500Y15860D3*
G1X10090Y23920D3*
G1X3980Y22540D3*
G1X4370Y22240D3*
G1X3980Y21950D3*
G1X6610Y21950D3*
G1X11110Y23130D3*
G1X10080Y20400D3*
G1X11280Y20230D3*
G1X5420Y24240D3*
G1X10590Y24400D3*
G1X7860Y24400D3*
G1X9820Y24400D3*
G1X9430Y24400D3*
G1X9040Y24400D3*
G1X8640Y24400D3*
G1X8250Y24400D3*
G1X7070Y24400D3*
G1X7460Y24400D3*
G1X9630Y25360D3*
G1X9240Y25360D3*
G1X8840Y25360D3*
G1X8450Y25360D3*
G1X8050Y25360D3*
G1X7660Y25360D3*
G1X7260Y25360D3*
G1X2090Y26800D3*
G1X2640Y26330D3*
G1X2380Y28460D3*
G1X3050Y26800D3*
G1X3600Y26330D3*
G1X3340Y28460D3*
G1X7850Y26800D3*
G1X8400Y26330D3*
G1X8140Y28460D3*
G1X8810Y26800D3*
G1X9360Y26330D3*
G1X9100Y28460D3*
G1X9770Y26800D3*
G1X10320Y26330D3*
G1X10060Y28460D3*
G1X10730Y26800D3*
G1X11280Y26330D3*
G1X11020Y28460D3*
G1X11690Y26800D3*
G1X12240Y26330D3*
G1X11980Y28460D3*
G1X6890Y26800D3*
G1X7440Y26330D3*
G1X7180Y28460D3*
G1X5930Y26800D3*
G1X6480Y26330D3*
G1X6220Y28460D3*
G1X4970Y26800D3*
G1X5520Y26330D3*
G1X5260Y28460D3*
G1X9450Y4280D3*
G1X9110Y4280D3*
G1X18400Y14720D3*
G1X18400Y15220D3*
G1X18400Y15720D3*
G1X18400Y16220D3*
G1X4560Y26330D3*
G1X4300Y28460D3*
G1X4010Y26800D3*
G1X6870Y25360D3*
G1X12890Y26330D3*
G1X2190Y25430D3*
G1X3230Y22250D3*
G1X3220Y21740D3*
G1X3220Y24410D3*
G1X2210Y22510D3*
G1X980Y25430D3*
G1X980Y23410D3*
G1X1050Y22780D3*
G1X1530Y22400D3*
G1X1520Y22000D3*
G1X610Y21090D3*
G1X2200Y19460D3*
G1X980Y19470D3*
G1X1600Y21460D3*
G1X3220Y21090D3*
G1X13300Y25570D3*
G1X13290Y27320D3*
G1X17810Y19480D3*
G1X16780Y19110D3*
G1X16790Y19850D3*
G1X14820Y21920D3*
G1X2260Y16450D3*
G1X2260Y16050D3*
G1X3220Y15860D3*
G1X960Y14760D3*
G1X3220Y14680D3*
G1X4780Y19080D3*
G1X4300Y18880D3*
G1X4100Y17920D3*
G1X7540Y16650D3*
G1X7540Y17440D3*
G1X8500Y17630D3*
G1X7540Y17040D3*
G1X8500Y17230D3*
G1X8500Y16850D3*
G1X8840Y20880D3*
G1X8150Y21080D3*
G1X8050Y19920D3*
G1X7660Y19920D3*
G1X7070Y20880D3*
G1X7460Y20880D3*
G1X7860Y20880D3*
G1X9630Y20880D3*
G1X8500Y16450D3*
G1X6660Y17920D3*
G1X6860Y18880D3*
G1X6460Y18880D3*
G1X7050Y17920D3*
G1X7260Y19920D3*
G1X7250Y18880D3*
G1X13280Y19110D3*
G1X6660Y12580D3*
G1X6880Y11040D3*
G1X7380Y11050D3*
G1X5390Y11520D3*
G1X5480Y15860D3*
G1X6270Y17920D3*
G1X5870Y17920D3*
G1X8830Y19880D3*
G1X9330Y19010D3*
G1X9330Y18390D3*
G1X610Y11950D3*
G1X2010Y13110D3*
G1X9200Y12510D3*
G1X7960Y12510D3*
G1X9860Y12180D3*
G1X9580Y11520D3*
G1X7370Y11520D3*
G1X4890Y13600D3*
G1X4490Y13600D3*
G1X15980Y5150D3*
G1X16260Y5620D3*
G1X16650Y4760D3*
G1X15390Y5940D3*
G1X16050Y4520D3*
G1X10770Y17680D3*
G1X10410Y17630D3*
G1X7390Y13580D3*
G1X7540Y14480D3*
G1X8500Y14870D3*
G1X8500Y15470D3*
G1X11360Y17190D3*
G1X13060Y15880D3*
G1X12040Y15080D3*
G1X18400Y12840D3*
G1X18400Y12340D3*
G1X18400Y11840D3*
G1X18400Y11340D3*
G1X18400Y10840D3*
G1X18400Y10340D3*
G1X18400Y9840D3*
G1X18400Y9340D3*
G1X18400Y8840D3*
G1X18400Y8340D3*
G1X18400Y7840D3*
G1X18400Y7340D3*
G1X18400Y6840D3*
G1X18400Y6340D3*
G1X18400Y5840D3*
G1X18400Y5340D3*
G1X18400Y3250D3*
G1X8600Y18090D3*
G1X7820Y18090D3*
G1X3800Y15510D3*
G1X5250Y17750D3*
G1X5920Y15450D3*
G1X6340Y14410D3*
G1X7920Y13510D3*
G1X4210Y5390D3*
G1X3180Y5390D3*
G1X2410Y5390D3*
G1X1950Y5390D3*
G1X15390Y2480D3*
G1X1400Y6370D3*
G1X3300Y6410D3*
G1X7120Y13930D3*
G1X10360Y5590D2*
G54D10*
G1X10356Y5633D1*
G1X10345Y5676D1*
G1X10327Y5715D1*
G1X10302Y5751D1*
G1X10271Y5782D1*
G1X10235Y5807D1*
G1X10196Y5825D1*
G1X10153Y5836D1*
G1X10110Y5840D1*
G1X10067Y5836D1*
G1X10024Y5825D1*
G1X9985Y5807D1*
G1X9949Y5782D1*
G1X9918Y5751D1*
G1X9893Y5715D1*
G1X9875Y5676D1*
G1X9864Y5633D1*
G1X9860Y5590D1*
G1X9864Y5547D1*
G1X9875Y5504D1*
G1X9893Y5465D1*
G1X9918Y5429D1*
G1X9949Y5398D1*
G1X9985Y5373D1*
G1X10024Y5355D1*
G1X10067Y5344D1*
G1X10110Y5340D1*
G1X10153Y5344D1*
G1X10196Y5355D1*
G1X10235Y5373D1*
G1X10271Y5398D1*
G1X10302Y5429D1*
G1X10327Y5465D1*
G1X10345Y5504D1*
G1X10356Y5547D1*
G1X10360Y5590D1*
G1X8130Y6240D2*
G1X8126Y6283D1*
G1X8115Y6326D1*
G1X8097Y6365D1*
G1X8072Y6401D1*
G1X8041Y6432D1*
G1X8005Y6457D1*
G1X7966Y6475D1*
G1X7923Y6486D1*
G1X7880Y6490D1*
G1X7837Y6486D1*
G1X7794Y6475D1*
G1X7755Y6457D1*
G1X7719Y6432D1*
G1X7688Y6401D1*
G1X7663Y6365D1*
G1X7645Y6326D1*
G1X7634Y6283D1*
G1X7630Y6240D1*
G1X9630Y6240D2*
G1X9626Y6283D1*
G1X9615Y6326D1*
G1X9597Y6365D1*
G1X9572Y6401D1*
G1X9541Y6432D1*
G1X9505Y6457D1*
G1X9466Y6475D1*
G1X9423Y6486D1*
G1X9380Y6490D1*
G1X9337Y6486D1*
G1X9294Y6475D1*
G1X9255Y6457D1*
G1X9219Y6432D1*
G1X9188Y6401D1*
G1X9163Y6365D1*
G1X9145Y6326D1*
G1X9134Y6283D1*
G1X9130Y6240D1*
G1X9134Y6197D1*
G1X9145Y6154D1*
G1X9163Y6115D1*
G1X9188Y6079D1*
G1X9219Y6048D1*
G1X9255Y6023D1*
G1X9294Y6005D1*
G1X9337Y5994D1*
G1X9380Y5990D1*
G1X9423Y5994D1*
G1X9466Y6005D1*
G1X9505Y6023D1*
G1X9541Y6048D1*
G1X9572Y6079D1*
G1X9597Y6115D1*
G1X9615Y6154D1*
G1X9626Y6197D1*
G1X9630Y6240D1*
G1X8450Y5840D2*
G1X8446Y5883D1*
G1X8435Y5926D1*
G1X8417Y5965D1*
G1X8392Y6001D1*
G1X8361Y6032D1*
G1X8325Y6057D1*
G1X8286Y6075D1*
G1X8243Y6086D1*
G1X8200Y6090D1*
G1X8157Y6086D1*
G1X8114Y6075D1*
G1X8075Y6057D1*
G1X8039Y6032D1*
G1X8008Y6001D1*
G1X7983Y5965D1*
G1X7965Y5926D1*
G1X7954Y5883D1*
G1X7950Y5840D1*
G1X7954Y5797D1*
G1X7965Y5754D1*
G1X7983Y5715D1*
G1X8008Y5679D1*
G1X8039Y5648D1*
G1X8075Y5623D1*
G1X8114Y5605D1*
G1X8157Y5594D1*
G1X8200Y5590D1*
G1X8243Y5594D1*
G1X8286Y5605D1*
G1X8325Y5623D1*
G1X8361Y5648D1*
G1X8392Y5679D1*
G1X8417Y5715D1*
G1X8435Y5754D1*
G1X8446Y5797D1*
G1X8450Y5840D1*
G1X7630Y6240D2*
G1X7634Y6197D1*
G1X7645Y6154D1*
G1X7663Y6115D1*
G1X7688Y6079D1*
G1X7719Y6048D1*
G1X7755Y6023D1*
G1X7794Y6005D1*
G1X7837Y5994D1*
G1X7880Y5990D1*
G1X7923Y5994D1*
G1X7966Y6005D1*
G1X8005Y6023D1*
G1X8041Y6048D1*
G1X8072Y6079D1*
G1X8097Y6115D1*
G1X8115Y6154D1*
G1X8126Y6197D1*
G1X8130Y6240D1*
G1X7630Y6240D2*
G1X7626Y6283D1*
G1X7615Y6326D1*
G1X7597Y6365D1*
G1X7572Y6401D1*
G1X7541Y6432D1*
G1X7505Y6457D1*
G1X7466Y6475D1*
G1X7423Y6486D1*
G1X7380Y6490D1*
G1X7337Y6486D1*
G1X7294Y6475D1*
G1X7255Y6457D1*
G1X7219Y6432D1*
G1X7188Y6401D1*
G1X7163Y6365D1*
G1X7145Y6326D1*
G1X7134Y6283D1*
G1X7130Y6240D1*
G1X7134Y6197D1*
G1X7145Y6154D1*
G1X7163Y6115D1*
G1X7188Y6079D1*
G1X7219Y6048D1*
G1X7255Y6023D1*
G1X7294Y6005D1*
G1X7337Y5994D1*
G1X7380Y5990D1*
G1X7423Y5994D1*
G1X7466Y6005D1*
G1X7505Y6023D1*
G1X7541Y6048D1*
G1X7572Y6079D1*
G1X7597Y6115D1*
G1X7615Y6154D1*
G1X7626Y6197D1*
G1X7630Y6240D1*
G1X7130Y6240D2*
G1X7126Y6283D1*
G1X7115Y6326D1*
G1X7097Y6365D1*
G1X7072Y6401D1*
G1X7041Y6432D1*
G1X7005Y6457D1*
G1X6966Y6475D1*
G1X6923Y6486D1*
G1X6880Y6490D1*
G1X6837Y6486D1*
G1X6794Y6475D1*
G1X6755Y6457D1*
G1X6719Y6432D1*
G1X6688Y6401D1*
G1X6663Y6365D1*
G1X6645Y6326D1*
G1X6634Y6283D1*
G1X6630Y6240D1*
G1X7008Y6025D2*
G1X7043Y6051D1*
G1X7074Y6082D1*
G1X7098Y6118D1*
G1X7116Y6158D1*
G1X7127Y6200D1*
G1X7130Y6240D1*
G1X6630Y6240D2*
G1X6634Y6197D1*
G1X6645Y6155D1*
G1X6664Y6115D1*
G1X6689Y6079D1*
G1X6712Y6055D1*
G1X7090Y5840D2*
G1X7086Y5883D1*
G1X7075Y5925D1*
G1X7056Y5965D1*
G1X7031Y6001D1*
G1X7008Y6025D1*
G1X6630Y6240D2*
G1X6626Y6283D1*
G1X6615Y6326D1*
G1X6597Y6365D1*
G1X6572Y6401D1*
G1X6541Y6432D1*
G1X6505Y6457D1*
G1X6466Y6475D1*
G1X6423Y6486D1*
G1X6380Y6490D1*
G1X6337Y6486D1*
G1X6294Y6475D1*
G1X6255Y6457D1*
G1X6219Y6432D1*
G1X6188Y6401D1*
G1X6163Y6365D1*
G1X6145Y6326D1*
G1X6134Y6283D1*
G1X6130Y6240D1*
G1X6134Y6197D1*
G1X6145Y6154D1*
G1X6163Y6115D1*
G1X6188Y6079D1*
G1X6219Y6048D1*
G1X6255Y6023D1*
G1X6294Y6005D1*
G1X6337Y5994D1*
G1X6380Y5990D1*
G1X6423Y5994D1*
G1X6466Y6005D1*
G1X6505Y6023D1*
G1X6541Y6048D1*
G1X6572Y6079D1*
G1X6597Y6115D1*
G1X6615Y6154D1*
G1X6626Y6197D1*
G1X6630Y6240D1*
G1X6712Y6055D2*
G1X6677Y6030D1*
G1X6646Y5998D1*
G1X6622Y5962D1*
G1X6604Y5922D1*
G1X6593Y5880D1*
G1X6590Y5837D1*
G1X6594Y5793D1*
G1X6606Y5751D1*
G1X6625Y5712D1*
G1X6650Y5677D1*
G1X6682Y5646D1*
G1X6718Y5622D1*
G1X6758Y5604D1*
G1X6800Y5593D1*
G1X6843Y5590D1*
G1X6887Y5594D1*
G1X6929Y5606D1*
G1X6968Y5625D1*
G1X7003Y5650D1*
G1X7034Y5682D1*
G1X7058Y5718D1*
G1X7076Y5758D1*
G1X7087Y5800D1*
G1X7090Y5840D1*
G1X6760Y5150D2*
G1X6756Y5193D1*
G1X6745Y5236D1*
G1X6727Y5275D1*
G1X6702Y5311D1*
G1X6671Y5342D1*
G1X6635Y5367D1*
G1X6596Y5385D1*
G1X6553Y5396D1*
G1X6510Y5400D1*
G1X6467Y5396D1*
G1X6424Y5385D1*
G1X6385Y5367D1*
G1X6349Y5342D1*
G1X6318Y5311D1*
G1X6293Y5275D1*
G1X6275Y5236D1*
G1X6264Y5193D1*
G1X6260Y5150D1*
G1X6264Y5107D1*
G1X6275Y5064D1*
G1X6293Y5025D1*
G1X6318Y4989D1*
G1X6349Y4958D1*
G1X6385Y4933D1*
G1X6424Y4915D1*
G1X6467Y4904D1*
G1X6510Y4900D1*
G1X6553Y4904D1*
G1X6596Y4915D1*
G1X6635Y4933D1*
G1X6671Y4958D1*
G1X6702Y4989D1*
G1X6727Y5025D1*
G1X6745Y5064D1*
G1X6756Y5107D1*
G1X6760Y5150D1*
G1X5241Y5776D2*
G1X5278Y5799D1*
G1X5311Y5827D1*
G1X5338Y5862D1*
G1X5359Y5900D1*
G1X5373Y5941D1*
G1X5379Y5984D1*
G1X5380Y6000D1*
G1X5270Y5660D2*
G1X5266Y5703D1*
G1X5255Y5745D1*
G1X5241Y5776D1*
G1X9700Y4280D2*
G1X9696Y4323D1*
G1X9685Y4365D1*
G1X9666Y4405D1*
G1X9642Y4441D1*
G1X9611Y4471D1*
G1X9575Y4496D1*
G1X9536Y4515D1*
G1X9493Y4526D1*
G1X9450Y4530D1*
G1X9407Y4526D1*
G1X9365Y4515D1*
G1X9325Y4496D1*
G1X9289Y4471D1*
G1X9280Y4463D1*
G1X9674Y4170D2*
G1X9690Y4211D1*
G1X9698Y4254D1*
G1X9700Y4280D1*
G1X9280Y4463D2*
G1X9246Y4490D1*
G1X9207Y4510D1*
G1X9166Y4524D1*
G1X9122Y4530D1*
G1X9079Y4528D1*
G1X9036Y4519D1*
G1X8996Y4502D1*
G1X8959Y4479D1*
G1X8927Y4450D1*
G1X8900Y4416D1*
G1X8879Y4377D1*
G1X8866Y4336D1*
G1X8860Y4292D1*
G1X8862Y4249D1*
G1X8871Y4206D1*
G1X8885Y4170D1*
G1X4370Y6280D2*
G1X4366Y6323D1*
G1X4355Y6366D1*
G1X4337Y6405D1*
G1X4312Y6441D1*
G1X4281Y6472D1*
G1X4245Y6497D1*
G1X4205Y6515D1*
G1X4163Y6526D1*
G1X4120Y6530D1*
G1X4076Y6526D1*
G1X4034Y6515D1*
G1X3995Y6497D1*
G1X3959Y6472D1*
G1X3945Y6459D1*
G1X5380Y6000D2*
G1X5376Y6043D1*
G1X5365Y6086D1*
G1X5347Y6125D1*
G1X5322Y6161D1*
G1X5291Y6192D1*
G1X5255Y6217D1*
G1X5216Y6235D1*
G1X5173Y6246D1*
G1X5130Y6250D1*
G1X5087Y6246D1*
G1X5044Y6235D1*
G1X5005Y6217D1*
G1X4969Y6192D1*
G1X4938Y6161D1*
G1X4913Y6125D1*
G1X4895Y6086D1*
G1X4884Y6043D1*
G1X4880Y6000D1*
G1X4884Y5957D1*
G1X4895Y5914D1*
G1X4909Y5884D1*
G1X3875Y6231D2*
G1X3887Y6189D1*
G1X3907Y6150D1*
G1X3932Y6115D1*
G1X3964Y6085D1*
G1X4000Y6061D1*
G1X4040Y6043D1*
G1X4082Y6033D1*
G1X4126Y6030D1*
G1X4169Y6035D1*
G1X4211Y6047D1*
G1X4250Y6066D1*
G1X4285Y6092D1*
G1X4315Y6124D1*
G1X4339Y6160D1*
G1X4357Y6200D1*
G1X4367Y6242D1*
G1X4370Y6280D1*
G1X3945Y6459D2*
G1X3933Y6501D1*
G1X3913Y6540D1*
G1X3888Y6575D1*
G1X3856Y6605D1*
G1X3820Y6629D1*
G1X3780Y6647D1*
G1X3738Y6657D1*
G1X3694Y6660D1*
G1X3651Y6655D1*
G1X3609Y6643D1*
G1X3570Y6623D1*
G1X3535Y6598D1*
G1X3505Y6566D1*
G1X3481Y6530D1*
G1X3463Y6490D1*
G1X3453Y6448D1*
G1X3450Y6404D1*
G1X3455Y6361D1*
G1X3467Y6319D1*
G1X3487Y6280D1*
G1X3512Y6245D1*
G1X3544Y6215D1*
G1X3580Y6191D1*
G1X3620Y6173D1*
G1X3662Y6163D1*
G1X3706Y6160D1*
G1X3749Y6165D1*
G1X3791Y6177D1*
G1X3830Y6197D1*
G1X3865Y6222D1*
G1X3875Y6231D1*
G1X4909Y5884D2*
G1X4872Y5861D1*
G1X4839Y5833D1*
G1X4812Y5798D1*
G1X4791Y5760D1*
G1X4777Y5719D1*
G1X4771Y5676D1*
G1X4772Y5632D1*
G1X4780Y5590D1*
G1X4796Y5549D1*
G1X4819Y5512D1*
G1X4847Y5479D1*
G1X4882Y5452D1*
G1X4920Y5431D1*
G1X4961Y5417D1*
G1X5004Y5411D1*
G1X5048Y5412D1*
G1X5090Y5420D1*
G1X5131Y5436D1*
G1X5168Y5459D1*
G1X5201Y5487D1*
G1X5228Y5522D1*
G1X5249Y5560D1*
G1X5263Y5601D1*
G1X5269Y5644D1*
G1X5270Y5660D1*
G1X1120Y6870D2*
G1X1116Y6913D1*
G1X1105Y6955D1*
G1X1086Y6995D1*
G1X1061Y7031D1*
G1X1053Y7040D1*
G1X687Y7040D2*
G1X660Y7006D1*
G1X640Y6967D1*
G1X627Y6926D1*
G1X621Y6883D1*
G1X622Y6839D1*
G1X631Y6797D1*
G1X648Y6756D1*
G1X671Y6719D1*
G1X700Y6687D1*
G1X734Y6660D1*
G1X773Y6640D1*
G1X814Y6627D1*
G1X857Y6621D1*
G1X901Y6622D1*
G1X943Y6631D1*
G1X984Y6648D1*
G1X1021Y6671D1*
G1X1053Y6700D1*
G1X1080Y6734D1*
G1X1100Y6773D1*
G1X1113Y6814D1*
G1X1119Y6857D1*
G1X1120Y6870D1*
G1X2660Y5390D2*
G1X2656Y5433D1*
G1X2645Y5476D1*
G1X2627Y5515D1*
G1X2602Y5551D1*
G1X2571Y5582D1*
G1X2535Y5607D1*
G1X2495Y5625D1*
G1X2453Y5636D1*
G1X2410Y5640D1*
G1X2367Y5636D1*
G1X2324Y5625D1*
G1X2285Y5607D1*
G1X2249Y5582D1*
G1X2218Y5551D1*
G1X2193Y5515D1*
G1X2180Y5488D1*
G1X2159Y5526D1*
G1X2133Y5561D1*
G1X2100Y5590D1*
G1X2063Y5613D1*
G1X2023Y5629D1*
G1X1980Y5638D1*
G1X1936Y5640D1*
G1X1893Y5634D1*
G1X1852Y5620D1*
G1X1813Y5600D1*
G1X1779Y5573D1*
G1X1775Y5569D1*
G1X4460Y5390D2*
G1X4456Y5433D1*
G1X4445Y5476D1*
G1X4427Y5515D1*
G1X4402Y5551D1*
G1X4371Y5582D1*
G1X4335Y5607D1*
G1X4296Y5625D1*
G1X4253Y5636D1*
G1X4210Y5640D1*
G1X4167Y5636D1*
G1X4124Y5625D1*
G1X4085Y5607D1*
G1X4049Y5582D1*
G1X4018Y5551D1*
G1X3993Y5515D1*
G1X3975Y5476D1*
G1X3964Y5433D1*
G1X3960Y5390D1*
G1X3964Y5347D1*
G1X3975Y5304D1*
G1X3993Y5265D1*
G1X4018Y5229D1*
G1X4049Y5198D1*
G1X4085Y5173D1*
G1X4124Y5155D1*
G1X4167Y5144D1*
G1X4210Y5140D1*
G1X4253Y5144D1*
G1X4296Y5155D1*
G1X4335Y5173D1*
G1X4371Y5198D1*
G1X4402Y5229D1*
G1X4427Y5265D1*
G1X4445Y5304D1*
G1X4456Y5347D1*
G1X4460Y5390D1*
G1X3430Y5390D2*
G1X3426Y5433D1*
G1X3415Y5476D1*
G1X3397Y5515D1*
G1X3372Y5551D1*
G1X3341Y5582D1*
G1X3305Y5607D1*
G1X3266Y5625D1*
G1X3223Y5636D1*
G1X3180Y5640D1*
G1X3137Y5636D1*
G1X3094Y5625D1*
G1X3055Y5607D1*
G1X3019Y5582D1*
G1X2988Y5551D1*
G1X2963Y5515D1*
G1X2945Y5476D1*
G1X2934Y5433D1*
G1X2930Y5390D1*
G1X2934Y5347D1*
G1X2945Y5304D1*
G1X2963Y5265D1*
G1X2988Y5229D1*
G1X3019Y5198D1*
G1X3055Y5173D1*
G1X3094Y5155D1*
G1X3137Y5144D1*
G1X3180Y5140D1*
G1X3223Y5144D1*
G1X3266Y5155D1*
G1X3305Y5173D1*
G1X3341Y5198D1*
G1X3372Y5229D1*
G1X3397Y5265D1*
G1X3415Y5304D1*
G1X3426Y5347D1*
G1X3430Y5390D1*
G1X5205Y4170D2*
G1X5115Y4224D1*
G1X5016Y4262D1*
G1X4912Y4282D1*
G1X4807Y4284D1*
G1X4703Y4267D1*
G1X4603Y4232D1*
G1X4511Y4181D1*
G1X4495Y4170D1*
G1X2180Y5292D2*
G1X2201Y5254D1*
G1X2227Y5219D1*
G1X2260Y5190D1*
G1X2297Y5167D1*
G1X2337Y5151D1*
G1X2380Y5142D1*
G1X2423Y5140D1*
G1X2467Y5146D1*
G1X2508Y5160D1*
G1X2546Y5181D1*
G1X2581Y5207D1*
G1X2610Y5240D1*
G1X2633Y5277D1*
G1X2649Y5317D1*
G1X2658Y5360D1*
G1X2660Y5390D1*
G1X1775Y5569D2*
G1X1741Y5597D1*
G1X1703Y5618D1*
G1X1662Y5633D1*
G1X1619Y5640D1*
G1X1575Y5639D1*
G1X1532Y5631D1*
G1X1492Y5616D1*
G1X1454Y5593D1*
G1X1421Y5565D1*
G1X1393Y5531D1*
G1X1372Y5493D1*
G1X1357Y5452D1*
G1X1350Y5409D1*
G1X1351Y5365D1*
G1X1359Y5322D1*
G1X1374Y5282D1*
G1X1397Y5244D1*
G1X1425Y5211D1*
G1X1459Y5183D1*
G1X1497Y5162D1*
G1X1538Y5147D1*
G1X1581Y5140D1*
G1X1625Y5141D1*
G1X1668Y5149D1*
G1X1708Y5164D1*
G1X1746Y5187D1*
G1X1775Y5211D1*
G1X1809Y5183D1*
G1X1847Y5162D1*
G1X1888Y5148D1*
G1X1931Y5141D1*
G1X1975Y5141D1*
G1X2017Y5149D1*
G1X2058Y5164D1*
G1X2096Y5187D1*
G1X2129Y5215D1*
G1X2156Y5249D1*
G1X2178Y5287D1*
G1X2180Y5292D1*
G1X890Y4990D2*
G1X886Y5033D1*
G1X875Y5076D1*
G1X857Y5115D1*
G1X832Y5151D1*
G1X801Y5182D1*
G1X765Y5207D1*
G1X726Y5225D1*
G1X683Y5236D1*
G1X640Y5240D1*
G1X597Y5236D1*
G1X554Y5225D1*
G1X515Y5207D1*
G1X479Y5182D1*
G1X448Y5151D1*
G1X423Y5115D1*
G1X405Y5076D1*
G1X394Y5033D1*
G1X390Y4990D1*
G1X394Y4947D1*
G1X405Y4904D1*
G1X423Y4865D1*
G1X448Y4829D1*
G1X479Y4798D1*
G1X515Y4773D1*
G1X554Y4755D1*
G1X597Y4744D1*
G1X640Y4740D1*
G1X683Y4744D1*
G1X726Y4755D1*
G1X765Y4773D1*
G1X801Y4798D1*
G1X832Y4829D1*
G1X857Y4865D1*
G1X875Y4904D1*
G1X886Y4947D1*
G1X890Y4990D1*
M2*
