*
%LPD*%
%LNSST*%
%FSLAX24Y24*%
%MOIN*%
%AD*%
%ADD63C,0.008*%
G54D63*
%SRX1Y1I0.0J0.0*%
G1X1310Y11790D2*
G1X1310Y12110D1*
G1X1310Y12950D2*
G1X1310Y13270D1*
G1X1310Y12370D2*
G1X1310Y12690D1*
G1X8420Y11830D2*
G1X8740Y11830D1*
G1X16110Y2320D2*
G1X16110Y2640D1*
G1X17330Y15580D2*
G1X17330Y15590D1*
G1X15870Y15580D2*
G1X17330Y15580D1*
G1X15870Y15580D2*
G1X15870Y15590D1*
G1X17330Y16750D2*
G1X17330Y16760D1*
G1X15870Y16760D2*
G1X17330Y16760D1*
G1X15870Y16750D2*
G1X15870Y16760D1*
G1X15660Y16760D2*
G1X15710Y16760D1*
G1X710Y6180D2*
G1X1030Y6180D1*
G1X16730Y10220D2*
G1X16730Y10280D1*
G1X13230Y10280D2*
G1X16730Y10280D1*
G1X13230Y10220D2*
G1X13230Y10280D1*
G1X13230Y9280D2*
G1X13230Y9340D1*
G1X13230Y9280D2*
G1X16730Y9280D1*
G1X16730Y9340D1*
G1X15410Y7840D2*
G1X15630Y7840D1*
G1X15150Y7290D2*
G1X15150Y7610D1*
G1X13550Y8380D2*
G1X13870Y8380D1*
G1X15850Y8380D2*
G1X16170Y8380D1*
G1X14130Y8380D2*
G1X14450Y8380D1*
G1X5910Y11940D2*
G1X6030Y11940D1*
G1X5910Y12420D2*
G1X6030Y12420D1*
G1X1300Y15380D2*
G1X1320Y15380D1*
G1X1300Y14120D2*
G1X1320Y14120D1*
G1X1800Y14680D2*
G1X1800Y14820D1*
G1X820Y14680D2*
G1X820Y14820D1*
G1X9010Y13550D2*
G1X9010Y13870D1*
G1X17080Y10520D2*
G1X17540Y10520D1*
G1X16430Y10520D2*
G1X16440Y10520D1*
G1X13060Y10520D2*
G1X15790Y10520D1*
G1X13060Y14620D2*
G1X17540Y14620D1*
G1X15710Y6520D2*
G1X16030Y6520D1*
G1X7520Y5680D2*
G1X7520Y6000D1*
G1X660Y17740D2*
G1X980Y17740D1*
G1X16870Y6520D2*
G1X17190Y6520D1*
G1X16290Y6520D2*
G1X16610Y6520D1*
G1X9040Y11830D2*
G1X9360Y11830D1*
G1X5110Y22460D2*
G1X5110Y22780D1*
G1X9010Y14130D2*
G1X9010Y14450D1*
G1X2120Y16990D2*
G1X2180Y16990D1*
G1X2180Y18990D1*
G1X2120Y18990D2*
G1X2180Y18990D1*
G1X1180Y18990D2*
G1X1240Y18990D1*
G1X1180Y16990D2*
G1X1180Y18990D1*
G1X1180Y16990D2*
G1X1240Y16990D1*
G1X12030Y14030D2*
G1X12350Y14030D1*
G1X10030Y18230D2*
G1X10030Y18550D1*
G1X10030Y18850D2*
G1X10030Y19170D1*
G1X2140Y27700D2*
G1X2140Y27720D1*
G1X2620Y27700D2*
G1X2620Y27720D1*
G1X3100Y27700D2*
G1X3100Y27720D1*
G1X3580Y27700D2*
G1X3580Y27720D1*
G1X7900Y27700D2*
G1X7900Y27720D1*
G1X8380Y27700D2*
G1X8380Y27720D1*
G1X8860Y27700D2*
G1X8860Y27720D1*
G1X9340Y27700D2*
G1X9340Y27720D1*
G1X9820Y27700D2*
G1X9820Y27720D1*
G1X10300Y27700D2*
G1X10300Y27720D1*
G1X10780Y27700D2*
G1X10780Y27720D1*
G1X11260Y27700D2*
G1X11260Y27720D1*
G1X11740Y27700D2*
G1X11740Y27720D1*
G1X12220Y27700D2*
G1X12220Y27720D1*
G1X6940Y27700D2*
G1X6940Y27720D1*
G1X7420Y27700D2*
G1X7420Y27720D1*
G1X5980Y27700D2*
G1X5980Y27720D1*
G1X6460Y27700D2*
G1X6460Y27720D1*
G1X5020Y27700D2*
G1X5020Y27720D1*
G1X5500Y27700D2*
G1X5500Y27720D1*
G1X4060Y27700D2*
G1X4060Y27720D1*
G1X4540Y27700D2*
G1X4540Y27720D1*
G1X830Y22740D2*
G1X1270Y22740D1*
G1X1450Y22580D2*
G1X2350Y22580D1*
G1X1450Y21520D2*
G1X1450Y22740D1*
G1X2350Y22740D1*
G1X2350Y21520D2*
G1X2350Y22740D1*
G1X1450Y21520D2*
G1X2350Y21520D1*
G1X2510Y24250D2*
G1X2510Y24570D1*
G1X2510Y24870D2*
G1X2510Y25190D1*
G1X1290Y20930D2*
G1X1290Y21250D1*
G1X1290Y20310D2*
G1X1290Y20630D1*
G1X2510Y20930D2*
G1X2510Y21250D1*
G1X1290Y23630D2*
G1X1290Y23950D1*
G1X2510Y23630D2*
G1X2510Y23950D1*
G1X1290Y19700D2*
G1X1290Y20020D1*
G1X1900Y23010D2*
G1X1900Y23330D1*
G1X2510Y19700D2*
G1X2510Y20020D1*
G1X2510Y20310D2*
G1X2510Y20630D1*
G1X3330Y12870D2*
G1X3330Y13370D1*
G1X3180Y13560D2*
G1X7580Y13560D1*
G1X3180Y13560D2*
G1X3180Y17960D1*
G1X7580Y17960D1*
G1X7580Y13560D2*
G1X7580Y17960D1*
G1X1310Y15650D2*
G1X1310Y15970D1*
G1X1310Y13530D2*
G1X1310Y13850D1*
G1X5630Y19390D2*
G1X5950Y19390D1*
G1X13130Y26640D2*
G1X13450Y26640D1*
G1X14950Y26670D2*
G1X14950Y27370D1*
G1X14330Y26670D2*
G1X14330Y27370D1*
G1X14330Y26670D2*
G1X14950Y26670D1*
G1X13750Y26640D2*
G1X14070Y26640D1*
G1X3610Y22920D2*
G1X3610Y24260D1*
G1X4350Y22920D2*
G1X4350Y24260D1*
G1X3610Y22720D2*
G1X3610Y22760D1*
G1X4350Y20230D2*
G1X4350Y21570D1*
G1X3610Y20230D2*
G1X3610Y21570D1*
G1X4350Y21730D2*
G1X4350Y21770D1*
G1X11810Y22320D2*
G1X11810Y22640D1*
G1X5110Y21220D2*
G1X5110Y21540D1*
G1X11810Y21700D2*
G1X11810Y22020D1*
G1X5110Y21840D2*
G1X5110Y22160D1*
G1X11810Y23590D2*
G1X11810Y23910D1*
G1X5110Y23700D2*
G1X5110Y24020D1*
G1X11810Y22970D2*
G1X11810Y23290D1*
G1X5110Y23080D2*
G1X5110Y23400D1*
G1X11590Y24240D2*
G1X11590Y24560D1*
G1X11590Y20460D2*
G1X11590Y20780D1*
G1X11590Y21080D2*
G1X11590Y21400D1*
G1X15850Y24350D2*
G1X15850Y24690D1*
G1X14670Y24350D2*
G1X14670Y24690D1*
G1X14680Y24690D2*
G1X15850Y24690D1*
G1X14670Y24350D2*
G1X15850Y24350D1*
G1X15880Y24860D2*
G1X15880Y25200D1*
G1X15630Y24350D2*
G1X15630Y24690D1*
G1X17060Y22840D2*
G1X17380Y22840D1*
G1X12710Y23730D2*
G1X12720Y23730D1*
G1X12710Y23730D2*
G1X12710Y25190D1*
G1X12720Y25190D1*
G1X13880Y23730D2*
G1X13890Y23730D1*
G1X13890Y25190D1*
G1X13880Y25190D2*
G1X13890Y25190D1*
G1X13890Y25350D2*
G1X13890Y25400D1*
G1X14120Y24720D2*
G1X14440Y24720D1*
G1X16080Y24720D2*
G1X16400Y24720D1*
G1X17800Y25190D2*
G1X17810Y25190D1*
G1X17810Y23730D2*
G1X17810Y25190D1*
G1X17800Y23730D2*
G1X17810Y23730D1*
G1X16630Y25190D2*
G1X16640Y25190D1*
G1X16630Y23730D2*
G1X16630Y25190D1*
G1X16630Y23730D2*
G1X16640Y23730D1*
G1X16630Y23520D2*
G1X16630Y23570D1*
G1X16200Y20100D2*
G1X16540Y20100D1*
G1X16710Y19850D2*
G1X17050Y19850D1*
G1X16710Y18890D2*
G1X16710Y20070D1*
G1X16710Y18890D2*
G1X17050Y18890D1*
G1X17050Y20070D1*
G1X16710Y20070D2*
G1X17050Y20070D1*
G1X15530Y20960D2*
G1X15870Y20960D1*
G1X15530Y22140D2*
G1X15870Y22140D1*
G1X15870Y20960D2*
G1X15870Y22130D1*
G1X15530Y20960D2*
G1X15530Y22140D1*
G1X16040Y20930D2*
G1X16380Y20930D1*
G1X15530Y21180D2*
G1X15870Y21180D1*
G1X16630Y20490D2*
G1X16640Y20490D1*
G1X16630Y20490D2*
G1X16630Y21950D1*
G1X16640Y21950D1*
G1X17800Y20490D2*
G1X17810Y20490D1*
G1X17810Y21950D1*
G1X17800Y21950D2*
G1X17810Y21950D1*
G1X17810Y22110D2*
G1X17810Y22160D1*
G1X13590Y20490D2*
G1X13600Y20490D1*
G1X13590Y20490D2*
G1X13590Y21950D1*
G1X13600Y21950D1*
G1X14760Y20490D2*
G1X14770Y20490D1*
G1X14770Y21950D1*
G1X14760Y21950D2*
G1X14770Y21950D1*
G1X14770Y22110D2*
G1X14770Y22160D1*
G1X15600Y19480D2*
G1X15920Y19480D1*
G1X15030Y23060D2*
G1X16370Y23060D1*
G1X15030Y22320D2*
G1X16370Y22320D1*
G1X14830Y23060D2*
G1X14870Y23060D1*
G1X1290Y24870D2*
G1X1290Y25190D1*
G1X1290Y24250D2*
G1X1290Y24570D1*
G1X1310Y11210D2*
G1X1310Y11530D1*
G1X5010Y19390D2*
G1X5330Y19390D1*
G1X1585Y16285D2*
G1X1585Y16605D1*
G1X9180Y15700D2*
G1X9180Y16020D1*
G1X4870Y12020D2*
G1X4870Y12340D1*
G1X7070Y12020D2*
G1X7070Y12340D1*
G1X10650Y4830D2*
G1X10650Y4850D1*
G1X11130Y4830D2*
G1X11130Y4850D1*
G1X9870Y4830D2*
G1X9870Y4850D1*
G1X10350Y4830D2*
G1X10350Y4850D1*
G1X9120Y5680D2*
G1X9120Y6000D1*
G1X9120Y5100D2*
G1X9120Y5420D1*
G1X9120Y4520D2*
G1X9120Y4840D1*
G1X5540Y5430D2*
G1X5590Y5430D1*
G1X5750Y5420D2*
G1X5750Y5430D1*
G1X7210Y5430D1*
G1X7210Y5420D2*
G1X7210Y5430D1*
G1X5750Y4250D2*
G1X5750Y4260D1*
G1X5750Y4250D2*
G1X7210Y4250D1*
G1X7210Y4260D1*
G1X7890Y4830D2*
G1X7890Y4850D1*
G1X8370Y4830D2*
G1X8370Y4850D1*
G1X2290Y3980D2*
G1X2290Y4300D1*
G1X6090Y11365D2*
G1X6090Y11685D1*
G1X6130Y5680D2*
G1X6130Y6000D1*
G1X5170Y10610D2*
G1X5220Y10610D1*
G1X5010Y10610D2*
G1X5010Y10620D1*
G1X3550Y10610D2*
G1X5010Y10610D1*
G1X3550Y10610D2*
G1X3550Y10620D1*
G1X5010Y11780D2*
G1X5010Y11790D1*
G1X3550Y11790D2*
G1X5010Y11790D1*
G1X3550Y11780D2*
G1X3550Y11790D1*
G1X5760Y7330D2*
G1X5760Y9950D1*
G1X5640Y6460D2*
G1X5640Y7160D1*
G1X5600Y7330D2*
G1X9660Y7330D1*
G1X5600Y7330D2*
G1X5600Y9950D1*
G1X9660Y9950D1*
G1X9660Y7330D2*
G1X9660Y9950D1*
G1X1300Y5340D2*
G1X1300Y7140D1*
G1X1300Y5340D2*
G1X5320Y5340D1*
G1X5320Y7140D1*
G1X1300Y7140D2*
G1X5320Y7140D1*
G1X5180Y7310D2*
G1X5180Y7890D1*
G1X5160Y5340D2*
G1X5160Y7140D1*
G1X11200Y15200D2*
G1X11520Y15200D1*
G1X17740Y6780D2*
G1X18260Y6780D1*
G1X18220Y6620D2*
G1X18260Y6620D1*
G1X18260Y7320D1*
G1X18220Y7320D2*
G1X18260Y7320D1*
G1X17740Y7320D2*
G1X17780Y7320D1*
G1X17740Y6620D2*
G1X17740Y7320D1*
G1X17740Y6620D2*
G1X17780Y6620D1*
G1X12590Y17350D2*
G1X12590Y17670D1*
G1X12595Y17970D2*
G1X12595Y18290D1*
G1X13065Y18520D2*
G1X13115Y18520D1*
G1X12905Y18520D2*
G1X12905Y18530D1*
G1X11445Y18520D2*
G1X12905Y18520D1*
G1X11445Y18520D2*
G1X11445Y18530D1*
G1X12905Y19690D2*
G1X12905Y19700D1*
G1X11445Y19700D2*
G1X12905Y19700D1*
G1X11445Y19690D2*
G1X11445Y19700D1*
G1X15785Y18160D2*
G1X15785Y18480D1*
G1X14980Y14920D2*
G1X14980Y15240D1*
G1X12350Y15350D2*
G1X12350Y15670D1*
G1X11760Y15900D2*
G1X12660Y15900D1*
G1X12660Y17120D1*
G1X11760Y17120D2*
G1X12660Y17120D1*
G1X11760Y15900D2*
G1X11760Y17120D1*
G1X11760Y16960D2*
G1X12660Y16960D1*
G1X11140Y17120D2*
G1X11580Y17120D1*
G1X14320Y17540D2*
G1X14680Y17540D1*
G1X14320Y15580D2*
G1X14680Y15580D1*
G1X17740Y5410D2*
G1X18260Y5410D1*
G1X17740Y5570D2*
G1X17780Y5570D1*
G1X17740Y4870D2*
G1X17740Y5570D1*
G1X17740Y4870D2*
G1X17780Y4870D1*
G1X18220Y4870D2*
G1X18260Y4870D1*
G1X18260Y5570D1*
G1X18220Y5570D2*
G1X18260Y5570D1*
G1X13630Y18410D2*
G1X13630Y18480D1*
G1X14750Y18480D1*
G1X14750Y18410D2*
G1X14750Y18480D1*
G1X14750Y17780D2*
G1X14750Y17850D1*
G1X13630Y17780D2*
G1X14750Y17780D1*
G1X13630Y17780D2*
G1X13630Y17850D1*
G1X13470Y18410D2*
G1X13470Y18480D1*
G1X17010Y3430D2*
G1X17010Y3770D1*
G1X15830Y3430D2*
G1X17010Y3430D1*
G1X15830Y3430D2*
G1X15830Y3770D1*
G1X17010Y3770D1*
G1X16790Y3430D2*
G1X16790Y3770D1*
G1X17040Y3940D2*
G1X17040Y4280D1*
G1X9600Y12220D2*
G1X10120Y12220D1*
G1X9600Y12380D2*
G1X9640Y12380D1*
G1X9600Y11680D2*
G1X9600Y12380D1*
G1X9600Y11680D2*
G1X9640Y11680D1*
G1X10080Y11680D2*
G1X10120Y11680D1*
G1X10120Y12380D1*
G1X10080Y12380D2*
G1X10120Y12380D1*
G1X15230Y4880D2*
G1X15550Y4880D1*
G1X15240Y3060D2*
G1X15540Y3060D1*
G1X15230Y3680D2*
G1X15550Y3680D1*
G1X14610Y4880D2*
G1X14930Y4880D1*
G1X14620Y3060D2*
G1X14920Y3060D1*
G1X14610Y3680D2*
G1X14930Y3680D1*
G1X670Y5020D2*
G1X670Y5070D1*
G1X670Y5500D2*
G1X800Y5500D1*
G1X670Y5450D2*
G1X670Y5500D1*
G1X670Y5020D2*
G1X800Y5020D1*
G1X3910Y26640D2*
G1X4090Y26640D1*
G1X3910Y26230D2*
G1X3910Y26640D1*
G1X4690Y26230D2*
G1X4690Y26640D1*
G1X4510Y26640D2*
G1X4690Y26640D1*
G1X4870Y26640D2*
G1X5050Y26640D1*
G1X4870Y26230D2*
G1X4870Y26640D1*
G1X5650Y26230D2*
G1X5650Y26640D1*
G1X5470Y26640D2*
G1X5650Y26640D1*
G1X5830Y26640D2*
G1X6010Y26640D1*
G1X5830Y26230D2*
G1X5830Y26640D1*
G1X6610Y26230D2*
G1X6610Y26640D1*
G1X6430Y26640D2*
G1X6610Y26640D1*
G1X6790Y26640D2*
G1X6970Y26640D1*
G1X6790Y26230D2*
G1X6790Y26640D1*
G1X7570Y26230D2*
G1X7570Y26640D1*
G1X7390Y26640D2*
G1X7570Y26640D1*
G1X11590Y26640D2*
G1X11770Y26640D1*
G1X11590Y26230D2*
G1X11590Y26640D1*
G1X12370Y26230D2*
G1X12370Y26640D1*
G1X12190Y26640D2*
G1X12370Y26640D1*
G1X10630Y26640D2*
G1X10810Y26640D1*
G1X10630Y26230D2*
G1X10630Y26640D1*
G1X11410Y26230D2*
G1X11410Y26640D1*
G1X11230Y26640D2*
G1X11410Y26640D1*
G1X9670Y26640D2*
G1X9850Y26640D1*
G1X9670Y26230D2*
G1X9670Y26640D1*
G1X10450Y26230D2*
G1X10450Y26640D1*
G1X10270Y26640D2*
G1X10450Y26640D1*
G1X8710Y26640D2*
G1X8890Y26640D1*
G1X8710Y26230D2*
G1X8710Y26640D1*
G1X9490Y26230D2*
G1X9490Y26640D1*
G1X9310Y26640D2*
G1X9490Y26640D1*
G1X7750Y26640D2*
G1X7930Y26640D1*
G1X7750Y26230D2*
G1X7750Y26640D1*
G1X8530Y26230D2*
G1X8530Y26640D1*
G1X8350Y26640D2*
G1X8530Y26640D1*
G1X2950Y26640D2*
G1X3130Y26640D1*
G1X2950Y26230D2*
G1X2950Y26640D1*
G1X3730Y26230D2*
G1X3730Y26640D1*
G1X3550Y26640D2*
G1X3730Y26640D1*
G1X1990Y26640D2*
G1X2170Y26640D1*
G1X1990Y26230D2*
G1X1990Y26640D1*
G1X2770Y26230D2*
G1X2770Y26640D1*
G1X2590Y26640D2*
G1X2770Y26640D1*
G1X6540Y20830D2*
G1X6540Y24450D1*
G1X6540Y20830D2*
G1X10160Y20830D1*
G1X10160Y24450D1*
G1X6540Y24450D2*
G1X10160Y24450D1*
G1X10010Y24630D2*
G1X10010Y25130D1*
G1X12230Y-570D2*
G1X12230Y-220D1*
G1X9270Y-570D2*
G1X12230Y-570D1*
G1X9270Y-570D2*
G1X9270Y-220D1*
G1X9270Y780D2*
G1X9270Y1400D1*
G1X9370Y1400D1*
G1X12230Y780D2*
G1X12230Y1400D1*
G1X12130Y1400D2*
G1X12230Y1400D1*
G1X13470Y19980D2*
G1X13520Y19980D1*
G1X13680Y19970D2*
G1X13680Y19980D1*
G1X15140Y19980D1*
G1X15140Y19970D2*
G1X15140Y19980D1*
G1X13680Y18800D2*
G1X13680Y18810D1*
G1X13680Y18800D2*
G1X15140Y18800D1*
G1X15140Y18810D1*
G1X8700Y17430D2*
G1X8750Y17430D1*
G1X8910Y17420D2*
G1X8910Y17430D1*
G1X10370Y17430D1*
G1X10370Y17420D2*
G1X10370Y17430D1*
G1X8910Y16250D2*
G1X8910Y16260D1*
G1X8910Y16250D2*
G1X10370Y16250D1*
G1X10370Y16260D1*
G1X11800Y14390D2*
G1X11800Y14440D1*
G1X11790Y14230D2*
G1X11800Y14230D1*
G1X11800Y12770D2*
G1X11800Y14230D1*
G1X11790Y12770D2*
G1X11800Y12770D1*
G1X10620Y14230D2*
G1X10630Y14230D1*
G1X10620Y12770D2*
G1X10620Y14230D1*
G1X10620Y12770D2*
G1X10630Y12770D1*
G1X7800Y11830D2*
G1X8120Y11830D1*
G1X17850Y1340D2*
G1X17844Y1413D1*
G1X17825Y1484D1*
G1X17794Y1550D1*
G1X17752Y1610D1*
G1X17700Y1662D1*
G1X17640Y1704D1*
G1X17574Y1735D1*
G1X17503Y1754D1*
G1X17430Y1760D1*
G1X17357Y1754D1*
G1X17286Y1735D1*
G1X17220Y1704D1*
G1X17160Y1662D1*
G1X17108Y1610D1*
G1X17066Y1550D1*
G1X17035Y1484D1*
G1X17016Y1413D1*
G1X17010Y1340D1*
G1X17016Y1267D1*
G1X17035Y1196D1*
G1X17066Y1130D1*
G1X17108Y1070D1*
G1X17160Y1018D1*
G1X17220Y976D1*
G1X17286Y945D1*
G1X17357Y926D1*
G1X17430Y920D1*
G1X17503Y926D1*
G1X17574Y945D1*
G1X17640Y976D1*
G1X17700Y1018D1*
G1X17752Y1070D1*
G1X17794Y1130D1*
G1X17825Y1196D1*
G1X17844Y1267D1*
G1X17850Y1340D1*
G1X3630Y13890D2*
G1X3628Y13911D1*
G1X3623Y13931D1*
G1X3614Y13950D1*
G1X3602Y13967D1*
G1X3587Y13982D1*
G1X3570Y13994D1*
G1X3551Y14003D1*
G1X3531Y14008D1*
G1X3510Y14010D1*
G1X3489Y14008D1*
G1X3469Y14003D1*
G1X3450Y13994D1*
G1X3433Y13982D1*
G1X3418Y13967D1*
G1X3406Y13950D1*
G1X3397Y13931D1*
G1X3392Y13911D1*
G1X3390Y13890D1*
G1X3392Y13869D1*
G1X3397Y13849D1*
G1X3406Y13830D1*
G1X3418Y13813D1*
G1X3433Y13798D1*
G1X3450Y13786D1*
G1X3469Y13777D1*
G1X3489Y13772D1*
G1X3510Y13770D1*
G1X3531Y13772D1*
G1X3551Y13777D1*
G1X3570Y13786D1*
G1X3587Y13798D1*
G1X3602Y13813D1*
G1X3614Y13830D1*
G1X3623Y13849D1*
G1X3628Y13869D1*
G1X3630Y13890D1*
G1X17850Y2480D2*
G1X17844Y2553D1*
G1X17825Y2624D1*
G1X17794Y2690D1*
G1X17752Y2750D1*
G1X17700Y2802D1*
G1X17640Y2844D1*
G1X17574Y2875D1*
G1X17503Y2894D1*
G1X17430Y2900D1*
G1X17357Y2894D1*
G1X17286Y2875D1*
G1X17220Y2844D1*
G1X17160Y2802D1*
G1X17108Y2750D1*
G1X17066Y2690D1*
G1X17035Y2624D1*
G1X17016Y2553D1*
G1X17010Y2480D1*
G1X17016Y2407D1*
G1X17035Y2336D1*
G1X17066Y2270D1*
G1X17108Y2210D1*
G1X17160Y2158D1*
G1X17220Y2116D1*
G1X17286Y2085D1*
G1X17357Y2066D1*
G1X17430Y2060D1*
G1X17503Y2066D1*
G1X17574Y2085D1*
G1X17640Y2116D1*
G1X17700Y2158D1*
G1X17752Y2210D1*
G1X17794Y2270D1*
G1X17825Y2336D1*
G1X17844Y2407D1*
G1X17850Y2480D1*
G1X9950Y24120D2*
G1X9948Y24141D1*
G1X9943Y24161D1*
G1X9934Y24180D1*
G1X9922Y24197D1*
G1X9907Y24212D1*
G1X9890Y24224D1*
G1X9871Y24233D1*
G1X9851Y24238D1*
G1X9830Y24240D1*
G1X9809Y24238D1*
G1X9789Y24233D1*
G1X9770Y24224D1*
G1X9753Y24212D1*
G1X9738Y24197D1*
G1X9726Y24180D1*
G1X9717Y24161D1*
G1X9712Y24141D1*
G1X9710Y24120D1*
G1X9712Y24099D1*
G1X9717Y24079D1*
G1X9726Y24060D1*
G1X9738Y24043D1*
G1X9753Y24028D1*
G1X9770Y24016D1*
G1X9789Y24007D1*
G1X9809Y24002D1*
G1X9830Y24000D1*
G1X9851Y24002D1*
G1X9871Y24007D1*
G1X9890Y24016D1*
G1X9907Y24028D1*
G1X9922Y24043D1*
G1X9934Y24060D1*
G1X9943Y24079D1*
G1X9948Y24099D1*
G1X9950Y24120D1*
M2*
