M48
INCH,TZ
FMAT,2
ICI,OFF
T01C.016
T02C.028
T03C.039
T04C.043
T05C.079
T06C.122
%
T01
G05
X640Y4990
X1950Y5390
X1600Y5390
X1400Y6370
X870Y6870
X1400Y10910
X1000Y10970
X610Y11950
X610Y12530
X530Y14300
X1660Y14740
X960Y14760
X570Y16530
X660Y18880
X980Y19470
X610Y21090
X510Y23080
X480Y25210
X2150Y11290
X2010Y13110
X2090Y15200
X1600Y21460
X1520Y22000
X1530Y22400
X1050Y22780
X980Y23410
X980Y25430
X780Y26530
X2090Y26800
X1140Y27430
X930Y29640
X1450Y30620
X1950Y31280
X3180Y5390
X2410Y5390
X2930Y5660
X2960Y11410
X2890Y12020
X2380Y12450
X2700Y13210
X2260Y14480
X2210Y15660
X2260Y16050
X2260Y16450
X2770Y18550
X2200Y19460
X2210Y22510
X2190Y25430
X4210Y5390
X4120Y6280
X3700Y6410
X3300Y6410
X4200Y6900
X3870Y10340
X3660Y12380
X3735Y13960
X3220Y14680
X4100Y15070
X3800Y15510
X3220Y15860
X3740Y17430
X4100Y17920
X3690Y19520
X3220Y21090
X3220Y21740
X3980Y21950
X3230Y22250
X3980Y22540
X3220Y24410
X2640Y26330
X2380Y28460
X3900Y25020
X3600Y26330
X3050Y26800
X3340Y28460
X2950Y29460
X4920Y10360
X4490Y13600
X4890Y13600
X4490Y14160
X4780Y16180
X4300Y18880
X4780Y19080
X4370Y22240
X4790Y24880
X4560Y26330
X4010Y26800
X4970Y26800
X5020Y5660
X5130Y6000
X5880Y6240
X5480Y11020
X5390Y11520
X5280Y12580
X5840Y13790
X5920Y15450
X5480Y15860
X5250Y17750
X5870Y17920
X5130Y20470
X4300Y28460
X5420Y24240
X5520Y26330
X5930Y26800
X5260Y28460
X5020Y29210
X4350Y31300
X4500Y33090
X6450Y4530
X6510Y5150
X6840Y5840
X6380Y6240
X6880Y6240
X7380Y6240
X6390Y11095
X6660Y12580
X6850Y13670
X6600Y13930
X6340Y14410
X6390Y16640
X6270Y17920
X6460Y18880
X6530Y19600
X6210Y20480
X6150Y25070
X6480Y26330
X6220Y28460
X6480Y33280
X7660Y5190
X8200Y5840
X8380Y6240
X7880Y6240
X6880Y11040
X7380Y11050
X7370Y11520
X7070Y11800
X7960Y12510
X7920Y13510
X7390Y13580
X7540Y13890
X7120Y13930
X7540Y14480
X6940Y14480
X8280Y13620
X7540Y15070
X7340Y15520
X7540Y16250
X7540Y16650
X7540Y17040
X6940Y17400
X7540Y17440
X7050Y17920
X6660Y17920
X7820Y18090
X7250Y18880
X6860Y18880
X8050Y19920
X7260Y19920
X7660Y19920
X7070Y20880
X7860Y20880
X7460Y20880
X8150Y21080
X7270Y21690
X6610Y21950
X6710Y22740
X7230Y23630
X7460Y24400
X7070Y24400
X7260Y25360
X6870Y25360
X7440Y26330
X6890Y26800
X7500Y22750
X8500Y17630
X8500Y17230
X8500Y16850
X8500Y16450
X8500Y15860
X8500Y15470
X8500Y14870
X8600Y18090
X8830Y19880
X8840Y20880
X8660Y21490
X8380Y22660
X8280Y23560
X7860Y24400
X8250Y24400
X8640Y24400
X7660Y25360
X8050Y25360
X8450Y25360
X8840Y25360
X8400Y26330
X8810Y26800
X7850Y26800
X7180Y28460
X7580Y32380
X9450Y4280
X9110Y4280
X8140Y28460
X10110Y5590
X9380Y6240
X9820Y10630
X9580Y11520
X9860Y12180
X9200Y12510
X9040Y24400
X11080Y10480
X11010Y11200
X10480Y13000
X10080Y13790
X9710Y14290
X9360Y15050
X9100Y28460
X10940Y15000
X10160Y15550
X9330Y18390
X9330Y19010
X10080Y20400
X9630Y20880
X9240Y21840
X9540Y22660
X9330Y23560
X10090Y23920
X9820Y24400
X9430Y24400
X9240Y25360
X9630Y25360
X9360Y26330
X9770Y26800
X10060Y28460
X11210Y12370
X10850Y16100
X10410Y17630
X11120Y17640
X10770Y17680
X10900Y19120
X10629Y20560
X11110Y23130
X10590Y24400
X10640Y25390
X10320Y26330
X10220Y33340
X11810Y9530
X12180Y11200
X11880Y11700
X11870Y13010
X12190Y13330
X12190Y14730
X12040Y15080
X11950Y16530
X12270Y17000
X11360Y17190
X11540Y18050
X11280Y20230
X11900Y24820
X12060Y25430
X11280Y26330
X12240Y26330
X10730Y26800
X11020Y28460
X12790Y8520
X13140Y10800
X13140Y11390
X13140Y11980
X13140Y12570
X13140Y13160
X13060Y15880
X12300Y16040
X13390Y13520
X13350Y14260
X12480Y16520
X11690Y26800
X11980Y28460
X11970Y33370
X13280Y19110
X13190Y20170
X12310Y20620
X12310Y21240
X13370Y20890
X12530Y21860
X13230Y21900
X12530Y22480
X12530Y23130
X13300Y23310
X12530Y23750
X13300Y25570
X12890Y26330
X13290Y27320
X14770Y1360
X14506Y5670
X14000Y7260
X14290Y9070
X14520Y12030
X14540Y13130
X14250Y14260
X13970Y14730
X13900Y27620
X13590Y31830
X15640Y1360
X14790Y2310
X15390Y2480
X16050Y4520
X15980Y5150
X15390Y5940
X14770Y6340
X14800Y7870
X16110Y11020
X15760Y11090
X15450Y11480
X15670Y12520
X15130Y14270
X15660Y15080
X15950Y16830
X15140Y20280
X14820Y21920
X14240Y22660
X14300Y23850
X14750Y28310
X16280Y1840
X16870Y3520
X16650Y4760
X16730Y5150
X16260Y5620
X16180Y14250
X16220Y20710
X15950Y23520
X15670Y25770
X15440Y27490
X15840Y29200
X15190Y31410
X15720Y32980
X18000Y5070
X17140Y5390
X17030Y5820
X18000Y6100
X18000Y7120
X17030Y7220
X17320Y7680
X16410Y8070
X16400Y8690
X16760Y11020
X16550Y11780
X18400Y7840
X18400Y7340
X18400Y6840
X18400Y6340
X18400Y5840
X18400Y5340
X18400Y4840
X18400Y4340
X18400Y3840
X18400Y3250
X17550Y8310
X18400Y8340
X18400Y8840
X17840Y9180
X18400Y9340
X18400Y9840
X17530Y10120
X18400Y10340
X17460Y10800
X18400Y10840
X18400Y11340
X17460Y11390
X18400Y11840
X17460Y11980
X18400Y12340
X17460Y12570
X18400Y12840
X17440Y13160
X16640Y13660
X17270Y13750
X16660Y14980
X16780Y19110
X16790Y19850
X16490Y27810
X18400Y14160
X18400Y13340
X17440Y14340
X18400Y14720
X17860Y14760
X18400Y15220
X17880Y15470
X18400Y15720
X18400Y16220
X17880Y16220
X18400Y16720
X17770Y17220
X18400Y17220
X18400Y17720
X18400Y18220
X17510Y18360
X18400Y18720
X18400Y19220
X17810Y19480
X18400Y19720
X18400Y20220
X18400Y20720
X18400Y21220
X18400Y21720
X18400Y22220
X18400Y22720
X17700Y22830
X17870Y24460
X17360Y25750
X18400Y26720
X18400Y26220
X18400Y25720
X18400Y25220
X18400Y24720
X18400Y24220
X18400Y23720
X18400Y23220
X17410Y26880
X18400Y27220
X18400Y27720
X18400Y28220
X18400Y28720
X18400Y29220
X18400Y29720
X18400Y30720
X18400Y31220
X18400Y31720
X18230Y32270
X18070Y32760
X18060Y33270
X18060Y34030
T02
X1680Y17240
X1680Y17740
X1680Y18240
X1680Y18740
X13480Y9780
X14480Y9780
X13980Y9780
X15480Y9780
X14980Y9780
X15980Y9780
X16480Y9780
T03
X17430Y1340
X17430Y2480
T04
X6930Y29520
X8020Y29520
X7480Y30640
X8570Y30640
X9110Y29520
X10210Y29520
X9660Y30640
X10750Y30640
X11290Y29520
X12390Y29520
X11840Y30640
X12930Y30640
X13480Y29520
X14570Y29520
X14020Y30640
T05
X4850Y3680
X4850Y30480
X16650Y17480
T06
X4190Y30080
X17310Y30080
M30
